<svg width="86" height="27" viewBox="0 0 86 27" fill="none" xmlns="http://www.w3.org/2000/svg">
<g style="mix-blend-mode:luminosity">
<path fillRule="evenodd" clipRule="evenodd" d="M52.9935 20.5141C47.6184 24.4823 39.8238 26.5903 33.1146 26.5903C23.7085 26.5903 15.2399 23.1126 8.83046 17.3273C8.32828 16.8729 8.77577 16.2519 9.37987 16.6041C16.2949 20.6284 24.8451 23.0513 33.6778 23.0513C39.6349 23.0513 46.184 21.8142 52.2107 19.2584C53.1212 18.8722 53.8836 19.8556 52.9935 20.5141Z" fill="#F2F2F2"/>
<path fillRule="evenodd" clipRule="evenodd" d="M55.1156 18.0764C54.4841 17.2698 50.9489 17.6942 49.3608 17.8845C48.8805 17.9438 48.8057 17.5225 49.2393 17.2167C52.0597 15.2355 56.6819 15.808 57.2203 16.471C57.7615 17.1403 57.0783 21.7751 54.4339 23.9871C54.0268 24.3273 53.6415 24.1461 53.821 23.697C54.4137 22.2103 55.7474 18.8843 55.1156 18.0764ZM49.4716 3.21904V1.29552C49.4748 1.00049 49.6932 0.805723 49.9598 0.807035L58.5899 0.805722C58.8661 0.805722 59.0876 1.00679 59.0876 1.2908V2.9429C59.0844 3.21903 58.8503 3.58074 58.4369 4.15481L53.9675 10.5369C55.6259 10.4978 57.3825 10.7474 58.8894 11.5929C59.2293 11.7848 59.3215 12.0672 59.348 12.345V14.3994C59.348 14.6819 59.0375 15.011 58.7115 14.8394C56.0564 13.4479 52.5309 13.2965 49.595 14.8564C49.2955 15.0155 48.9802 14.6926 48.9802 14.4102V12.4573C48.9802 12.1452 48.9865 11.6102 49.3015 11.1344L54.4809 3.70569H49.9709C49.6947 3.70569 49.4748 3.50751 49.4716 3.21904ZM17.9941 15.2449H15.3702C15.1206 15.2279 14.9209 15.0404 14.9006 14.8018L14.9038 1.32807C14.9038 1.05823 15.1298 0.842994 15.4107 0.842994L17.8568 0.84142C18.1127 0.85402 18.3169 1.04747 18.3327 1.29395V3.05209H18.3825C19.0191 1.3517 20.2202 0.557669 21.8379 0.557669C23.4806 0.557669 24.5101 1.3517 25.2435 3.05209C25.8813 1.3517 27.326 0.557669 28.8718 0.557669C29.9748 0.557669 31.1744 1.01151 31.9093 2.0318C32.7438 3.16733 32.5721 4.80997 32.5721 6.25628L32.5692 14.7598C32.5692 15.0281 32.343 15.2433 32.0621 15.2433H29.4398C29.1776 15.2263 28.9703 15.0187 28.9703 14.7598L28.9687 7.61492C28.9687 7.04873 29.0186 5.63077 28.8954 5.09241C28.6988 4.18446 28.1122 3.93038 27.3525 3.93038C26.716 3.93038 26.0545 4.35456 25.7847 5.03466C25.5149 5.71634 25.5398 6.84898 25.5398 7.61492V14.7583C25.5398 15.0265 25.3135 15.2418 25.0327 15.2418H22.412C22.1485 15.2247 21.9408 15.0171 21.9408 14.7583L21.9377 7.61334C21.9377 6.11113 22.181 3.90072 20.32 3.90072C18.4324 3.90072 18.5072 6.05495 18.5072 7.61334L18.5057 14.7567C18.5012 15.0297 18.2749 15.2449 17.9941 15.2449ZM66.5412 3.30776C64.6051 3.30776 64.482 5.94418 64.482 7.58841C64.482 9.23263 64.4571 12.7489 66.5163 12.7489C68.5506 12.7489 68.6487 9.91274 68.6487 8.18426C68.6487 7.05031 68.5988 5.68983 68.2555 4.61206C67.9607 3.67602 67.3728 3.30776 66.5412 3.30776ZM66.5163 0.557669C70.4132 0.557669 72.5207 3.90386 72.5207 8.15617C72.5207 12.267 70.1932 15.5274 66.5163 15.5274C62.6942 15.5274 60.61 12.1812 60.61 8.01443C60.6085 3.81803 62.7175 0.557669 66.5163 0.557669ZM77.5736 15.2449H74.9574C74.6954 15.2279 74.4862 15.0202 74.4862 14.7614L74.483 1.28292C74.5051 1.03487 74.7219 0.842994 74.987 0.842994L77.4221 0.84142C77.6515 0.85402 77.8403 1.00994 77.8886 1.21888V3.27967H77.9384C78.6734 1.43596 79.7029 0.557669 81.5156 0.557669C82.6918 0.557669 83.8431 0.983425 84.5794 2.14572C85.2658 3.22192 85.2658 5.03624 85.2658 6.34212V14.8192C85.2361 15.0578 85.0225 15.2433 84.7621 15.2433H82.1301C81.8868 15.2279 81.6904 15.0483 81.6637 14.8192V7.50415C81.6637 6.03002 81.8353 3.87578 80.021 3.87578C79.3832 3.87578 78.7949 4.29996 78.5017 4.95198C78.135 5.77409 78.0852 6.5962 78.0852 7.50415V14.7598C78.0789 15.0297 77.8526 15.2449 77.5736 15.2449ZM45.2395 15.2105C45.0663 15.3667 44.8151 15.3775 44.6185 15.2714C43.7465 14.5475 43.5906 14.2123 43.1131 13.5227C41.6734 14.9906 40.6531 15.4305 38.7857 15.4305C36.5753 15.4305 34.856 14.0671 34.856 11.3386C34.856 9.2077 36.012 7.7585 37.6562 7.04873C39.0805 6.42322 41.0712 6.30931 42.5936 6.13921V5.79745C42.5936 5.17194 42.6435 4.43409 42.2739 3.89442C41.954 3.41091 41.341 3.21116 40.7995 3.21116C39.7997 3.21116 38.9088 3.72432 38.6889 4.78819C38.6437 5.02548 38.4705 5.25935 38.2335 5.27195L35.6892 4.99582C35.4739 4.94594 35.2351 4.77585 35.2975 4.44669C35.8826 1.35931 38.6702 0.426425 41.1678 0.426425C42.4453 0.426425 44.1148 0.76661 45.1225 1.73388C46.4 2.92715 46.2769 4.51835 46.2769 6.25156V10.3419C46.2769 11.5727 46.7885 12.1124 47.2675 12.7739C47.436 13.0125 47.4733 13.2965 47.2596 13.4713C46.7231 13.9204 45.7713 14.7472 45.2471 15.2137L45.2395 15.2105ZM42.5936 8.81003C42.5936 9.83321 42.6186 10.685 42.1023 11.5945C41.6841 12.3339 41.0211 12.788 40.2848 12.788C39.2787 12.788 38.6889 12.0205 38.6889 10.8832C38.6889 8.64781 40.6951 8.242 42.5936 8.242V8.81003ZM10.8258 15.2105C10.6528 15.3667 10.4016 15.3775 10.205 15.2714C9.33301 14.5475 9.17709 14.2123 8.69963 13.5227C7.25804 14.9906 6.23801 15.4305 4.37225 15.4305C2.16 15.4305 0.442543 14.0671 0.442543 11.3386C0.442543 9.2077 1.59696 7.7585 3.24276 7.04873C4.66702 6.42322 6.65589 6.30931 8.17859 6.13921V5.79745C8.17859 5.17194 8.22846 4.43409 7.85888 3.89442C7.5389 3.41091 6.926 3.21116 6.38606 3.21116C5.38467 3.21116 4.49378 3.72432 4.27539 4.78819C4.23024 5.02548 4.057 5.25935 3.81998 5.27195L1.27568 4.99582C1.06018 4.94594 0.821576 4.77585 0.882473 4.44669C1.46756 1.35931 4.25518 0.428003 6.75433 0.428003C8.03186 0.428003 9.70102 0.768184 10.709 1.73545C11.9865 2.92872 11.8634 4.51992 11.8634 6.25313V10.3435C11.8634 11.5743 12.375 12.114 12.8538 12.7754C13.0223 13.014 13.0598 13.298 12.8461 13.4729C12.3094 13.922 11.3563 14.7488 10.8321 15.2153L10.8258 15.2105ZM8.17859 8.81003C8.17859 9.83321 8.20352 10.685 7.68721 11.5945C7.27064 12.3339 6.6076 12.788 5.86974 12.788C4.86363 12.788 4.27382 12.0205 4.27382 10.8832C4.27382 8.64781 6.28001 8.242 8.17859 8.242V8.81003Z" fill="#F2F2F2"/>
</g>
</svg>
