<svg width="123" height="38" fill="none" xmlns="http://www.w3.org/2000/svg"><path fill-rule="evenodd" clip-rule="evenodd" d="M76.203 29.175C68.409 34.938 57.106 38 47.377 38c-13.64 0-25.92-5.051-35.214-13.453-.728-.66-.08-1.562.797-1.05 10.027 5.844 22.425 9.363 35.234 9.363 8.638 0 18.135-1.797 26.874-5.509 1.32-.56 2.425.868 1.135 1.824Z" fill="#fff"/><path fill-rule="evenodd" clip-rule="evenodd" d="M79.28 25.634c-.916-1.171-6.042-.555-8.345-.278-.696.086-.805-.526-.176-.97 4.09-2.878 10.792-2.046 11.573-1.083.785.972-.206 7.703-4.04 10.916-.59.494-1.15.231-.89-.421.86-2.16 2.794-6.99 1.878-8.164ZM71.096 4.056V1.262a.69.69 0 0 1 .708-.71L84.318.552c.4 0 .722.292.722.704v2.4c-.005.401-.344.926-.944 1.76l-6.48 9.27c2.404-.057 4.951.305 7.136 1.533.493.279.627.689.665 1.092v2.984c0 .41-.45.889-.923.64-3.85-2.022-8.962-2.242-13.22.024-.434.231-.89-.238-.89-.648v-2.836c0-.454.008-1.23.465-1.922l7.51-10.79h-6.54c-.4 0-.719-.287-.723-.706ZM25.45 21.522h-3.805a.72.72 0 0 1-.68-.643l.004-19.57c0-.391.328-.704.735-.704l3.547-.002c.371.018.667.3.69.657v2.554h.072C26.937 1.344 28.68.19 31.024.19c2.383 0 3.876 1.153 4.94 3.623.924-2.47 3.02-3.623 5.26-3.623 1.6 0 3.34.659 4.405 2.14 1.21 1.65.961 4.036.961 6.136l-.004 12.35c0 .39-.328.703-.735.703h-3.803a.713.713 0 0 1-.68-.702l-.003-10.378c0-.822.072-2.881-.106-3.663-.285-1.319-1.136-1.688-2.237-1.688-.923 0-1.883.616-2.274 1.604-.391.99-.355 2.635-.355 3.748v10.374c0 .39-.328.703-.736.703h-3.8a.714.714 0 0 1-.683-.703l-.005-10.377c0-2.182.353-5.392-2.345-5.392-2.737 0-2.629 3.129-2.629 5.392l-.002 10.375a.729.729 0 0 1-.742.71ZM95.848 4.185c-2.808 0-2.986 3.829-2.986 6.217 0 2.388-.036 7.495 2.95 7.495 2.95 0 3.092-4.12 3.092-6.63 0-1.647-.072-3.622-.57-5.188-.428-1.36-1.28-1.894-2.486-1.894ZM95.812.19c5.651 0 8.707 4.86 8.707 11.036 0 5.97-3.375 10.705-8.707 10.705-5.543 0-8.565-4.86-8.565-10.911C87.245 4.926 90.303.19 95.812.19Zm16.034 21.331h-3.794a.715.715 0 0 1-.683-.702l-.005-19.576c.032-.36.347-.639.731-.639l3.531-.002a.725.725 0 0 1 .676.548v2.993h.073c1.066-2.678 2.558-3.953 5.187-3.953 1.706 0 3.375.618 4.443 2.306C123 4.06 123 6.695 123 8.592v12.312a.723.723 0 0 1-.73.616h-3.817a.714.714 0 0 1-.676-.616V10.28c0-2.141.249-5.27-2.382-5.27-.925 0-1.778.616-2.203 1.563-.532 1.194-.604 2.388-.604 3.707v10.538a.732.732 0 0 1-.742.704Zm-46.887-.05c-.251.227-.615.243-.9.089-1.265-1.052-1.491-1.539-2.183-2.54-2.088 2.132-3.568 2.77-6.276 2.77-3.205 0-5.698-1.98-5.698-5.942 0-3.095 1.676-5.2 4.06-6.23 2.066-.91 4.953-1.075 7.16-1.322v-.496c0-.909.072-1.98-.463-2.764-.464-.702-1.353-.992-2.138-.992-1.45 0-2.742.745-3.061 2.29-.065.345-.317.684-.66.703l-3.69-.401c-.312-.073-.658-.32-.568-.798C51.391 1.355 55.433 0 59.055 0c1.852 0 4.273.494 5.734 1.899 1.853 1.733 1.674 4.044 1.674 6.561v5.941c0 1.788.742 2.572 1.437 3.532.244.347.298.76-.012 1.013-.778.652-2.158 1.853-2.918 2.53l-.011-.004Zm-3.837-9.296c0 1.486.036 2.723-.712 4.044-.607 1.074-1.568 1.734-2.636 1.734-1.459 0-2.314-1.115-2.314-2.767 0-3.246 2.91-3.836 5.662-3.836v.825Zm-46.066 9.296c-.25.227-.615.243-.9.089-1.264-1.052-1.49-1.539-2.183-2.54-2.09 2.132-3.57 2.77-6.275 2.77C2.49 21.792 0 19.812 0 15.85c0-3.095 1.674-5.2 4.06-6.23 2.066-.91 4.95-1.075 7.158-1.322v-.496c0-.909.072-1.98-.464-2.764-.464-.702-1.353-.992-2.135-.992-1.453 0-2.744.745-3.061 2.29-.066.345-.317.684-.66.703l-3.69-.401c-.312-.073-.658-.32-.57-.798C1.486 1.355 5.528.002 9.153.002c1.852 0 4.272.494 5.734 1.9 1.853 1.732 1.674 4.043 1.674 6.56v5.941c0 1.788.742 2.572 1.436 3.533.245.346.299.759-.01 1.012-.78.653-2.161 1.854-2.921 2.531l-.01-.007Zm-3.838-9.296c0 1.486.036 2.723-.713 4.044-.604 1.074-1.565 1.734-2.635 1.734-1.46 0-2.314-1.115-2.314-2.767 0-3.246 2.909-3.836 5.662-3.836v.825Z" fill="#fff"/></svg>