<svg width="66" height="27" viewBox="0 0 66 27" fill="none" xmlns="http://www.w3.org/2000/svg">
<g style="mix-blend-mode:luminosity">
<path fillRule="evenodd" clipRule="evenodd" d="M60.4755 18.7525C60.301 18.7525 60.1807 18.6344 60.1807 18.4647V10.0292H57.2431C57.0684 10.0292 56.948 9.91156 56.948 9.74148V8.57788C56.948 8.40749 57.0684 8.28971 57.2431 8.28971H65.0625C65.2368 8.28971 65.357 8.40765 65.357 8.57788V9.74148C65.357 9.91141 65.2368 10.0292 65.0625 10.0292H62.125V18.4645C62.125 18.6344 62.0041 18.7525 61.8302 18.7525H60.4755ZM37.973 14.5411L36.431 10.2255L34.8752 14.5411H37.973ZM41.3932 18.4118C41.4606 18.5821 41.3531 18.7525 41.1652 18.7525H39.7707C39.5694 18.7525 39.4485 18.6613 39.3812 18.4774L38.5903 16.2548H34.2587L33.4664 18.4774C33.3998 18.6613 33.2786 18.7525 33.0779 18.7525H31.7638C31.5893 18.7525 31.4684 18.5821 31.5355 18.4118L35.1701 8.55181C35.2373 8.36808 35.358 8.29017 35.5588 8.29017H37.3559C37.5573 8.29017 37.6915 8.36823 37.7586 8.55181L41.3932 18.4118ZM51.8111 17.3399C52.6691 17.3399 53.2461 16.9351 53.7157 16.2416L51.5432 13.9657C50.7114 14.4238 50.1747 14.8809 50.1747 15.7967C50.1748 16.6993 50.9255 17.3399 51.8111 17.3399ZM52.4146 9.67599C51.7174 9.67599 51.3151 10.1079 51.3151 10.6833C51.3151 11.1279 51.556 11.5202 52.1061 12.0958C53.0582 11.5593 53.4608 11.2325 53.4608 10.6572C53.4608 10.1206 53.1123 9.67599 52.4146 9.67599ZM58.3565 18.3863C58.5307 18.5696 58.4236 18.7525 58.2084 18.7525H56.5051C56.2773 18.7525 56.1565 18.6999 56.009 18.5298L54.9898 17.4317C54.3059 18.3211 53.3528 18.9878 51.7706 18.9878C49.8126 18.9878 48.2698 17.8371 48.2698 15.8626C48.2698 14.3451 49.1018 13.5341 50.3627 12.8541C49.7453 12.161 49.4642 11.4287 49.4642 10.788C49.4642 9.16589 50.6309 8.05444 52.3875 8.05444C54.1847 8.05444 55.2847 9.08798 55.2847 10.6178C55.2847 11.9257 54.3193 12.6574 53.2997 13.2071L54.8021 14.7901L55.6468 13.351C55.754 13.1812 55.8748 13.1155 56.0891 13.1155H57.3898C57.6047 13.1155 57.7254 13.2599 57.5916 13.4821L56.0892 15.9927L58.3565 18.3863ZM44.9718 18.7525C45.1462 18.7525 45.2675 18.6344 45.2675 18.4647V10.0292H48.2042C48.3786 10.0292 48.4992 9.91156 48.4992 9.74148V8.57788C48.4992 8.40749 48.3786 8.28971 48.2042 8.28971H40.3848C40.2103 8.28971 40.0899 8.40765 40.0899 8.57788V9.74148C40.0899 9.91141 40.2103 10.0292 40.3848 10.0292H43.3216V18.4645C43.3216 18.6344 43.4427 18.7525 43.6169 18.7525H44.9718Z" fill="#F2F2F2"/>
<path fillRule="evenodd" clipRule="evenodd" d="M5.2792 23.8408C7.55375 25.5583 10.4087 26.5903 13.5061 26.5903C16.8958 26.5903 19.9858 25.3628 22.3443 23.3475C22.3729 23.3228 22.3588 23.3066 22.3306 23.3228C21.2724 24.0124 18.2561 25.5174 13.5062 25.5174C9.37843 25.5174 6.76977 24.6189 5.29661 23.8169C5.26848 23.8032 5.25807 23.8238 5.2792 23.8408V23.8408ZM14.4169 24.5095C17.7183 24.5095 21.3462 23.6316 23.516 21.8938C24.1098 21.4202 24.6754 20.7901 25.1819 19.9432C25.4735 19.4558 25.7587 18.8769 25.991 18.3078C26.0013 18.2799 25.9837 18.2664 25.9624 18.2977C23.9446 21.1942 18.1016 23.001 12.0684 23.001C7.80379 23.001 3.21522 21.6707 1.41883 19.1306C1.40111 19.1071 1.3834 19.1171 1.39428 19.1441C3.06775 22.614 8.14489 24.5095 14.4169 24.5095V24.5095ZM10.8096 18.7532C3.9431 18.7532 0.7054 15.6336 0.118154 13.5047C0.11085 13.4738 0.0900269 13.4806 0.0900269 13.5084C0.0900269 14.2251 0.163685 15.1499 0.290179 15.7639C0.350473 16.0626 0.599885 16.5316 0.96538 16.9055C2.62797 18.5961 6.77335 20.965 13.9524 20.965C23.7334 20.965 25.9699 17.7867 26.4266 16.7414C26.7531 15.994 26.9223 14.6432 26.9223 13.5084C26.9223 13.2338 26.9153 13.0145 26.9046 12.7991C26.9046 12.7642 26.8839 12.7613 26.8768 12.7953C26.3879 15.3529 18.0311 18.7532 10.8096 18.7532V18.7532ZM1.3834 7.89609C0.990087 8.65782 0.553888 9.94284 0.424286 10.608C0.367411 10.8928 0.391653 11.0297 0.494059 11.2424C1.31704 12.9458 5.47982 15.6711 15.1901 15.6711C21.1142 15.6711 25.7161 14.2514 26.4617 11.6606C26.5989 11.1837 26.6064 10.6802 26.43 10.0017C26.233 9.24341 25.8639 8.35934 25.5515 7.73843C25.5411 7.71827 25.523 7.72115 25.5267 7.7451C25.6428 11.1431 15.9286 13.3333 11.0272 13.3333C5.7182 13.3333 1.28892 11.2698 1.28892 8.66434C1.28892 8.41391 1.34206 8.16364 1.40842 7.90306C1.4151 7.87926 1.39412 7.87517 1.3834 7.89609V7.89609ZM22.3661 3.72406C22.4225 3.81016 22.4506 3.90217 22.4506 4.02602C22.4506 5.47946 17.8902 8.05086 10.6308 8.05086C5.29661 8.05086 4.29803 6.12052 4.29803 4.89296C4.29803 4.45426 4.47052 4.00525 4.85046 3.54927C4.87129 3.52214 4.85357 3.51168 4.82964 3.53184C4.13672 4.1047 3.50006 4.74925 2.94156 5.4452C2.67459 5.77414 2.50894 6.06565 2.50894 6.24043C2.50894 8.78424 9.04805 10.6288 15.1622 10.6288C21.677 10.6288 24.5845 8.55413 24.5845 6.73097C24.5845 6.07929 24.3245 5.69896 23.6593 4.96148C23.2276 4.48185 22.8192 4.09121 22.3869 3.70662C22.3661 3.6898 22.3514 3.70359 22.3661 3.72406ZM20.3687 2.27077C18.3582 1.0952 16.0234 0.426392 13.5062 0.426392C10.9716 0.426392 8.56632 1.11855 6.54849 2.32535C5.94337 2.6887 5.60259 2.97991 5.60259 3.35418C5.60259 4.45759 8.2462 5.64408 12.9362 5.64408C17.5776 5.64408 21.1776 4.34451 21.1776 3.0936C21.1776 2.79497 20.9101 2.58608 20.3687 2.27077" fill="#F2F2F2"/>
</g>
</svg>
