<svg width="95" height="39" fill="none" xmlns="http://www.w3.org/2000/svg"><path fill-rule="evenodd" clip-rule="evenodd" d="M87.366 26.663c-.252 0-.427-.17-.427-.416V14.042h-4.25c-.252 0-.427-.17-.427-.416v-1.684c0-.246.175-.417.427-.417h11.314c.252 0 .426.171.426.417v1.684c0 .246-.174.416-.426.416h-4.25v12.204c0 .246-.175.417-.427.417h-1.96ZM54.809 20.57l-2.23-6.244-2.252 6.244h4.482Zm4.949 5.6c.097.247-.058.493-.33.493H57.41c-.291 0-.466-.132-.563-.398l-1.145-3.216h-6.267l-1.146 3.216c-.096.266-.272.398-.562.398h-1.901a.355.355 0 0 1-.33-.493l5.258-14.265c.097-.266.272-.379.562-.379h2.6c.292 0 .486.113.583.379l5.259 14.265Zm15.072-1.55c1.242 0 2.076-.586 2.756-1.59l-3.143-3.293c-1.204.663-1.98 1.325-1.98 2.65 0 1.305 1.086 2.232 2.367 2.232Zm.873-11.089c-1.008 0-1.59.625-1.59 1.457 0 .644.348 1.211 1.144 2.044 1.378-.776 1.96-1.249 1.96-2.081 0-.777-.504-1.42-1.514-1.42ZM84.3 26.133c.252.265.097.53-.214.53h-2.464c-.33 0-.505-.076-.718-.322l-1.475-1.589c-.99 1.287-2.368 2.252-4.657 2.252-2.833 0-5.065-1.665-5.065-4.522 0-2.196 1.204-3.369 3.028-4.353-.894-1.003-1.3-2.062-1.3-2.989 0-2.347 1.688-3.955 4.23-3.955 2.6 0 4.191 1.495 4.191 3.709 0 1.892-1.397 2.95-2.872 3.746l2.174 2.29 1.222-2.082c.155-.245.33-.34.64-.34h1.882c.31 0 .485.208.292.53L81.02 22.67l3.28 3.463Zm-19.365.53c.252 0 .428-.17.428-.416V14.042h4.249c.252 0 .427-.17.427-.416v-1.684c0-.246-.175-.417-.427-.417H58.299c-.253 0-.427.171-.427.417v1.684c0 .246.174.416.427.416h4.249v12.204c0 .246.175.417.427.417h1.96ZM7.508 34.025a19.707 19.707 0 0 0 11.902 3.978c4.905 0 9.375-1.776 12.788-4.692.041-.035.02-.059-.02-.035-1.531.997-5.895 3.175-12.767 3.175-5.973 0-9.747-1.3-11.878-2.46-.04-.02-.056.01-.025.034Zm13.22.968c4.777 0 10.026-1.27 13.165-3.785.859-.685 1.677-1.597 2.41-2.822a17.98 17.98 0 0 0 1.17-2.366c.016-.04-.01-.06-.04-.015-2.92 4.191-11.374 6.805-20.103 6.805-6.17 0-12.808-1.925-15.407-5.6-.026-.034-.052-.02-.036.02 2.421 5.02 9.767 7.762 18.841 7.762Zm-5.219-8.329C5.575 26.664.89 22.151.041 19.071c-.01-.045-.041-.035-.041.005 0 1.037.107 2.375.29 3.263.087.433.448 1.111.976 1.652 2.406 2.446 8.403 5.873 18.79 5.873 14.151 0 17.387-4.598 18.048-6.11.472-1.082.717-3.036.717-4.678 0-.397-.01-.715-.026-1.026 0-.05-.03-.055-.04-.006-.707 3.7-12.798 8.62-23.246 8.62ZM1.871 10.956c-.569 1.102-1.2 2.961-1.387 3.924-.083.412-.048.61.1.918 1.191 2.464 7.214 6.407 21.263 6.407 8.57 0 15.229-2.054 16.308-5.802.198-.69.21-1.419-.046-2.4-.285-1.098-.82-2.377-1.271-3.275-.015-.03-.041-.025-.036.01.168 4.916-13.887 8.085-20.978 8.085-7.681 0-14.09-2.986-14.09-6.755 0-.363.077-.725.173-1.102.01-.034-.02-.04-.036-.01ZM32.23 4.92a.75.75 0 0 1 .123.437c0 2.103-6.599 5.823-17.102 5.823-7.717 0-9.162-2.793-9.162-4.569 0-.635.25-1.284.8-1.944.03-.04.004-.054-.03-.025A19.183 19.183 0 0 0 4.125 7.41c-.387.476-.626.898-.626 1.15 0 3.681 9.46 6.35 18.306 6.35 9.426 0 13.633-3.002 13.633-5.64 0-.942-.376-1.493-1.339-2.56a22.615 22.615 0 0 0-1.84-1.815c-.03-.025-.052-.005-.03.025Zm-2.89-2.103C26.431 1.117 23.052.15 19.411.15c-3.668 0-7.147 1.001-10.067 2.747-.875.526-1.368.947-1.368 1.489 0 1.596 3.824 3.313 10.61 3.313 6.715 0 11.924-1.88 11.924-3.69 0-.432-.387-.734-1.17-1.19Z" fill="#fff"/></svg>