<svg width="115" height="41" fill="none" xmlns="http://www.w3.org/2000/svg"><path d="M26.15 15.925c-3.734 0-6.783-3.048-6.783-6.782 0-3.735 3.049-6.783 6.783-6.783 3.735 0 6.783 3.048 6.783 6.783-.02 3.753-3.049 6.782-6.783 6.782Zm0-15.204c-4.649 0-8.44 3.792-8.44 8.44 0 4.65 3.791 8.441 8.44 8.441 4.649 0 8.44-3.792 8.44-8.44 0-4.65-3.791-8.44-8.44-8.44ZM98.894 9.257c-.458-.229-3.201-1.658-3.601-1.867-1.448-.743-1.963-1.391-1.963-2.496 0-1.544 1.258-2.534 3.22-2.534 1.143 0 2.267.495 2.915.876a.95.95 0 0 0 .4.095.83.83 0 0 0 .839-.819.857.857 0 0 0-.42-.724c-.819-.457-2.21-1.086-3.715-1.086-2.877 0-4.877 1.715-4.877 4.192 0 2.21 1.448 3.258 2.877 3.982.4.21 3.181 1.638 3.6 1.867 1.106.572 1.715 1.448 1.715 2.439 0 1.333-1.124 2.743-3.22 2.743-2.038 0-3.62-1.371-4.039-1.79L92.492 14l-1.239 1.124.153.133c.552.534 2.534 2.306 5.258 2.306 3.049 0 4.878-2.248 4.878-4.42-.019-1.582-.972-3.01-2.648-3.887ZM8.85 2.379c1.81 0 3.506.705 4.801 1.981.305.305.877.305 1.182 0a.836.836 0 0 0 .247-.59.764.764 0 0 0-.247-.591l-.096-.095A8.4 8.4 0 0 0 8.87.72C4.22.721.43 4.513.43 9.161c0 4.65 3.791 8.441 8.44 8.441a8.36 8.36 0 0 0 6.211-2.744l-1.18-1.18a6.795 6.795 0 0 1-5.03 2.247c-3.735 0-6.784-3.048-6.784-6.782-.019-3.716 3.03-6.764 6.764-6.764ZM66.047 2.379c1.81 0 3.505.705 4.782 1.981.305.305.876.305 1.181 0a.836.836 0 0 0 .248-.59.836.836 0 0 0-.248-.591l-.095-.095A8.4 8.4 0 0 0 66.047.72c-4.65 0-8.44 3.792-8.44 8.44 0 4.65 3.79 8.441 8.44 8.441a8.36 8.36 0 0 0 6.21-2.744l-1.18-1.18a6.763 6.763 0 0 1-5.03 2.247c-3.735 0-6.783-3.048-6.783-6.782 0-3.716 3.048-6.764 6.783-6.764ZM51.757.721c-.305 0-.553.21-.686.457-.133.267-4.973 12.194-4.973 12.194s-4.84-11.946-4.972-12.194c-.134-.266-.382-.457-.686-.457-.362 0-.648.267-.743.61-.096.343-2.82 15.375-2.82 15.375 0 .058-.02.096-.02.153 0 .42.344.743.744.743a.774.774 0 0 0 .743-.61l2.362-12.86s4.554 11.24 4.687 11.508c.134.266.381.476.705.476.305 0 .572-.21.705-.476.134-.267 4.687-11.508 4.687-11.508l2.458 13.375h1.524S52.595 1.674 52.5 1.33c-.114-.343-.381-.61-.743-.61ZM79.25 9.619l2.515-6.173 2.515 6.173h-5.03ZM81.746.72c-.324 0-.552.21-.705.477-.133.266-6.249 15.356-6.249 15.356a.764.764 0 0 0-.057.286c0 .419.324.743.743.743.324 0 .59-.19.705-.476l2.381-5.83h6.383l2.534 6.21h1.62S82.604 1.446 82.47 1.179c-.153-.247-.4-.457-.725-.457ZM114.593 1.636a.846.846 0 0 0-.838-.839h-9.374a.833.833 0 0 0-.838.839c0 .457.362.819.838.819h3.944v15.033h1.524V2.455h3.925c.457.019.819-.362.819-.82ZM50.88 23.26c-.838 0-1.352.59-1.352 1.315V40.14h2.705V24.575c0-.724-.514-1.315-1.352-1.315ZM20.186 33.473v-8.898c0-.724-.533-1.315-1.352-1.315-.839 0-1.353.59-1.353 1.315v8.802c0 3.773 2.648 6.84 6.897 6.84 4.23 0 6.897-3.067 6.897-6.84v-10.04h-2.724v10.116c0 2.23-1.486 4.211-4.173 4.211-2.705.02-4.192-1.962-4.192-4.191ZM85.709 26.004c.895 0 1.429-.571 1.429-1.314 0-.743-.553-1.315-1.43-1.315h-8.287c-.762 0-1.315.552-1.315 1.315v14.175c0 .743.553 1.295 1.315 1.295h9.622v-2.629h-8.231v-4.877h6.211c.934 0 1.467-.553 1.467-1.315 0-.762-.514-1.315-1.467-1.315h-6.211v-4.02h6.897ZM8.431 37.55h-4.23v-5.01h4.23c1.943 0 2.877 1.123 2.877 2.514 0 1.372-.972 2.496-2.877 2.496Zm-4.23-11.565H8.26c1.525 0 2.268.915 2.268 2.039s-.82 2.039-2.268 2.039H4.201v-4.078Zm7.374 5.068c.457-.286 1.695-1.257 1.695-3.448 0-2.572-1.848-4.268-4.668-4.268H2.81c-.78 0-1.314.533-1.314 1.315v15.47h7.45c3.01 0 5.106-2.19 5.106-5.01 0-2.973-2.001-3.83-2.477-4.059ZM58.92 23.26c-.818 0-1.352.59-1.352 1.296v14.366c0 .724.629 1.295 1.353 1.295.705 0 1.334-.571 1.334-1.295V28.557s6.592 8.421 8.326 10.65c.438.553.743 1.03 1.524 1.03s1.314-.572 1.314-1.296V23.375h-2.667v11.622s-7.335-9.412-8.364-10.727c-.476-.61-.838-1.01-1.467-1.01ZM34.419 37.74c.343.439 1.924 2.496 5.41 2.496 3.43 0 5.755-1.962 5.755-4.725 0-1.81-.705-3.258-3.392-4.553-.724-.343-2.724-1.315-2.724-1.315-1.067-.515-1.543-1.124-1.543-1.963 0-.876.724-1.829 2.496-1.829 1.01 0 1.79.324 2.19.515.21.095.687.324 1.144.324.59 0 1.238-.42 1.238-1.277 0-.724-.514-1.105-.971-1.314-.724-.343-1.849-.839-3.735-.839-2.991 0-5.201 1.886-5.201 4.516 0 2.4 1.62 3.6 3.563 4.534.362.172 1.81.877 2.21 1.067 1.238.59 1.886 1.162 1.886 2.191 0 1.125-1.048 2.058-2.63 2.058-2.267 0-3.486-1.486-3.696-1.734l-2 1.848ZM89.825 37.74c.343.439 1.943 2.496 5.43 2.496 3.41 0 5.735-1.962 5.735-4.725 0-1.81-.705-3.258-3.392-4.553-.705-.343-2.724-1.315-2.724-1.315-1.067-.515-1.544-1.124-1.544-1.963 0-.876.724-1.829 2.496-1.829 1.01 0 1.772.324 2.191.515.21.095.686.324 1.144.324.59 0 1.238-.42 1.238-1.277 0-.724-.514-1.105-.972-1.314-.724-.343-1.867-.839-3.734-.839-2.991 0-5.202 1.886-5.202 4.516 0 2.4 1.62 3.6 3.563 4.534.381.172 1.83.877 2.23 1.067 1.219.59 1.867 1.162 1.867 2.191 0 1.125-1.048 2.058-2.63 2.058-2.286 0-3.486-1.486-3.696-1.734l-2 1.848ZM103.562 37.74c.343.439 1.924 2.496 5.411 2.496 3.41 0 5.754-1.962 5.754-4.725 0-1.81-.724-3.258-3.392-4.553-.724-.343-2.743-1.315-2.743-1.315-1.048-.515-1.525-1.124-1.525-1.963 0-.876.724-1.829 2.477-1.829 1.01 0 1.791.324 2.21.515.191.095.667.324 1.124.324.591 0 1.239-.42 1.239-1.277 0-.724-.515-1.105-.972-1.314-.724-.343-1.848-.839-3.734-.839-2.991 0-5.202 1.886-5.202 4.516 0 2.4 1.601 3.6 3.563 4.534.362.172 1.81.877 2.21 1.067 1.239.59 1.887 1.162 1.887 2.191 0 1.125-1.048 2.058-2.63 2.058-2.267 0-3.486-1.486-3.696-1.734l-1.981 1.848Z" fill="#fff"/></svg>