<svg width="43" height="28" viewBox="0 0 43 28" fill="none" xmlns="http://www.w3.org/2000/svg">
<path d="M17.778 10.5219C15.1969 10.5219 13.0899 8.41492 13.0899 5.83382C13.0899 3.25272 15.1969 1.1457 17.778 1.1457C20.3591 1.1457 22.4661 3.25272 22.4661 5.83382C22.453 8.42809 20.3591 10.5219 17.778 10.5219ZM17.778 0.0131836C14.5648 0.0131836 11.9442 2.63379 11.9442 5.84699C11.9442 9.06019 14.5648 11.6808 17.778 11.6808C20.9912 11.6808 23.6118 9.06019 23.6118 5.84699C23.6118 2.63379 20.9912 0.0131836 17.778 0.0131836Z" fill="white"/>
<path d="M5.82064 1.15887C7.07168 1.15887 8.24371 1.64612 9.13919 2.52844C9.34989 2.73914 9.74496 2.73914 9.95566 2.52844C10.061 2.42308 10.1269 2.27823 10.1269 2.1202C10.1269 1.96218 10.0742 1.81732 9.95566 1.71197L9.88982 1.64612C8.7968 0.592613 7.36139 0.0131836 5.83381 0.0131836C2.6206 0.0131836 0 2.63379 0 5.84699C0 9.06019 2.6206 11.6808 5.83381 11.6808C7.53259 11.6808 9.06018 10.9565 10.1269 9.78448L9.31039 8.96801C8.45441 9.91617 7.20337 10.5219 5.83381 10.5219C3.25271 10.5219 1.14569 8.41492 1.14569 5.83382C1.13252 3.26589 3.23954 1.15887 5.82064 1.15887Z" fill="white"/>
<path d="M45.3536 1.15887C46.6046 1.15887 47.7767 1.64612 48.659 2.52844C48.8697 2.73914 49.2647 2.73914 49.4754 2.52844C49.5808 2.42308 49.6466 2.27823 49.6466 2.1202C49.6466 1.96218 49.5808 1.81732 49.4754 1.71197L49.4096 1.64612C48.3166 0.592613 46.8812 0.0131836 45.3536 0.0131836C42.1404 0.0131836 39.5198 2.63379 39.5198 5.84699C39.5198 9.06019 42.1404 11.6808 45.3536 11.6808C47.0524 11.6808 48.58 10.9565 49.6466 9.78448L48.8302 8.96801C47.9742 9.91617 46.7363 10.5219 45.3536 10.5219C42.7725 10.5219 40.6655 8.41492 40.6655 5.83382C40.6655 3.26589 42.7725 1.15887 45.3536 1.15887Z" fill="white"/>
<path d="M35.4769 0.0131836C35.2662 0.0131836 35.095 0.15804 35.0028 0.329236C34.9106 0.5136 31.5657 8.75731 31.5657 8.75731C31.5657 8.75731 28.2208 0.500431 28.1287 0.329236C28.0365 0.144871 27.8653 0.0131836 27.6546 0.0131836C27.4044 0.0131836 27.2068 0.197547 27.141 0.434587C27.0751 0.671626 25.192 11.0619 25.192 11.0619C25.192 11.1014 25.1788 11.1277 25.1788 11.1672C25.1788 11.4569 25.4159 11.6808 25.6924 11.6808C25.9426 11.6808 26.1533 11.4964 26.206 11.2594L27.8389 2.37041C27.8389 2.37041 30.9863 10.14 31.0785 10.3244C31.1707 10.5088 31.3419 10.6536 31.5657 10.6536C31.7764 10.6536 31.9608 10.5088 32.053 10.3244C32.1452 10.14 35.2925 2.37041 35.2925 2.37041L36.9913 11.615H38.0448C38.0448 11.615 36.0563 0.671626 35.9905 0.434587C35.9115 0.197547 35.7271 0.0131836 35.4769 0.0131836Z" fill="white"/>
<path d="M34.8711 15.5919C34.2917 15.5919 33.9362 16.0002 33.9362 16.5006V27.2595H35.8061V16.5006C35.8061 16.0002 35.4506 15.5919 34.8711 15.5919Z" fill="white"/>
<path d="M13.6561 22.6504V16.5006C13.6561 16.0002 13.2874 15.5919 12.7211 15.5919C12.1417 15.5919 11.7861 16.0002 11.7861 16.5006V22.5846C11.7861 25.192 13.6166 27.3122 16.5533 27.3122C19.4767 27.3122 21.3204 25.192 21.3204 22.5846V15.6446H19.4372V22.6373C19.4372 24.178 18.4101 25.5476 16.5533 25.5476C14.6833 25.5607 13.6561 24.1912 13.6561 22.6504Z" fill="white"/>
<path d="M5.53101 25.4686H2.60753V22.0052H5.53101C6.87424 22.0052 7.51951 22.7822 7.51951 23.7435C7.51951 24.6917 6.8479 25.4686 5.53101 25.4686ZM2.60753 17.4751H5.4125C6.466 17.4751 6.97959 18.1072 6.97959 18.8842C6.97959 19.6612 6.41333 20.2933 5.4125 20.2933H2.60753V17.4751ZM7.70388 20.978C8.01993 20.7805 8.87591 20.1089 8.87591 18.5945C8.87591 16.8167 7.59853 15.6447 5.64953 15.6447H1.6462C1.10628 15.6447 0.737549 16.0134 0.737549 16.5533V27.2464H5.88657C7.96725 27.2464 9.41583 25.732 9.41583 23.783C9.41583 21.7287 8.0331 21.1361 7.70388 20.978Z" fill="white"/>
<path d="M40.4284 15.5919C39.8621 15.5919 39.4934 16.0002 39.4934 16.4874V26.4167C39.4934 26.9171 39.928 27.3122 40.4284 27.3122C40.9156 27.3122 41.3502 26.9171 41.3502 26.4167V19.2529C41.3502 19.2529 45.9066 25.0735 47.105 26.6143C47.4079 26.9962 47.6186 27.3254 48.1585 27.3254C48.6984 27.3254 49.0672 26.9303 49.0672 26.4299V15.6709H47.2235V23.7039C47.2235 23.7039 42.1535 17.1985 41.4424 16.2899C41.1132 15.8685 40.863 15.5919 40.4284 15.5919Z" fill="white"/>
<path d="M23.4933 25.6003C23.7303 25.9031 24.8233 27.3254 27.2332 27.3254C29.6036 27.3254 31.2102 25.969 31.2102 24.0595C31.2102 22.8085 30.723 21.8076 28.8662 20.9121C28.3658 20.6751 26.983 20.0035 26.983 20.0035C26.2456 19.6479 25.9164 19.2265 25.9164 18.6471C25.9164 18.0413 26.4168 17.3829 27.6415 17.3829C28.3394 17.3829 28.8794 17.6068 29.1559 17.7384C29.3008 17.8043 29.63 17.9623 29.946 17.9623C30.3543 17.9623 30.802 17.6726 30.802 17.08C30.802 16.5796 30.4464 16.3162 30.1304 16.1713C29.63 15.9343 28.853 15.5919 27.5493 15.5919C25.4818 15.5919 23.9542 16.8956 23.9542 18.7129C23.9542 20.3722 25.0735 21.2019 26.4168 21.8471C26.667 21.9656 27.6678 22.4529 27.9444 22.5846C28.8003 22.9928 29.2481 23.3879 29.2481 24.099C29.2481 24.876 28.5238 25.5212 27.4308 25.5212C25.8637 25.5212 25.0209 24.4941 24.876 24.3229L23.4933 25.6003Z" fill="white"/>
</svg>
