<svg width="77" height="44" viewBox="0 0 77 44" fill="none" xmlns="http://www.w3.org/2000/svg">
<path fillRule="evenodd" clipRule="evenodd" d="M11.2006 1.37072C10.1983 0.998715 9.13769 0.809388 8.06892 0.811666H0.557251V18.271H8.06892C9.26058 18.2982 10.4443 18.0695 11.5406 17.6001C12.4904 17.1779 13.3324 16.5452 14.0036 15.7496C14.6825 14.9298 15.1852 13.9782 15.4803 12.9543C15.8145 11.8107 15.9797 10.6241 15.9707 9.4323C15.9978 8.15521 15.7997 6.88336 15.3856 5.67545C15.0282 4.6686 14.4579 3.75125 13.7138 2.98639C13.0055 2.26799 12.1472 1.71618 11.2006 1.37072ZM9.41188 14.7545C8.89356 14.9327 8.34935 15.0234 7.80144 15.0229H4.40782V4.05978H7.13832C7.95008 4.03652 8.75849 4.17327 9.51776 4.4623C10.1275 4.70568 10.6621 5.10693 11.0669 5.62513C11.4732 6.16582 11.76 6.7871 11.9083 7.44765C12.0855 8.22886 12.1716 9.02809 12.1647 9.82923C12.1851 10.6607 12.0606 11.4894 11.7969 12.2779C11.5891 12.8828 11.2569 13.4371 10.8217 13.9047C10.4243 14.2945 9.94149 14.5855 9.41188 14.7545Z" fill="#F2F2F2"/>
<path fillRule="evenodd" clipRule="evenodd" d="M17.0907 0.811908V3.67427H20.5512V0.811908H17.0907ZM20.5512 18.2768V5.63097H17.0907V18.2768H20.5512Z" fill="#F2F2F2"/>
<path fillRule="evenodd" clipRule="evenodd" d="M32.9889 21.0271C33.4269 20.5005 33.7309 19.8751 33.8749 19.2046C34.0012 18.6392 34.0685 18.0621 34.0755 17.4827V5.64192H30.7878V7.31909H30.7376C30.3817 6.65134 29.8343 6.10606 29.1662 5.75373C28.4831 5.43317 27.7357 5.27441 26.9818 5.28972C26.169 5.27284 25.3642 5.45312 24.6358 5.81523C23.9842 6.14682 23.4135 6.61827 22.964 7.1961C22.5107 7.77898 22.1636 8.4376 21.9387 9.14161C21.7034 9.90567 21.585 10.7011 21.5876 11.5008C21.5823 12.3307 21.6853 13.1577 21.8941 13.9607C22.0782 14.6935 22.4038 15.383 22.8526 15.99C23.2966 16.5703 23.8689 17.0392 24.5243 17.3597C25.2895 17.7101 26.1243 17.8803 26.9651 17.8573C27.7172 17.8604 28.4609 17.6982 29.1439 17.3821C29.8233 17.0757 30.3847 16.5557 30.7432 15.9006H30.7933V17.5778C30.8418 18.3757 30.6134 19.1658 30.1469 19.814C29.6204 20.4382 28.8248 20.7675 28.0127 20.6973C27.4454 20.7088 26.8842 20.5781 26.3799 20.3171C25.878 20.0276 25.5293 19.5304 25.4271 18.9586H21.9889C22.0209 19.6158 22.2267 20.2525 22.5851 20.8035C22.932 21.313 23.382 21.7435 23.9058 22.067C24.449 22.3993 25.0416 22.6427 25.6611 22.7882C26.2799 22.9374 26.9138 23.0143 27.5502 23.0174C28.7298 23.0735 29.9082 22.8831 31.0107 22.4583C31.7722 22.1424 32.4496 21.6523 32.9889 21.0271ZM30.0633 14.2402C29.8143 14.5666 29.4965 14.8338 29.1327 15.0229C28.7324 15.2108 28.2927 15.299 27.8511 15.28C27.3818 15.2981 26.9174 15.1797 26.5137 14.939C26.1622 14.7153 25.8652 14.4153 25.6444 14.0613C25.4215 13.6868 25.265 13.2763 25.1819 12.8481C25.0927 12.4008 25.0479 11.9458 25.0481 11.4896C25.0476 11.0319 25.1019 10.5759 25.2097 10.1311C25.3087 9.73029 25.4806 9.35123 25.7168 9.01303C25.9469 8.68372 26.2478 8.41051 26.5973 8.21358C26.9834 8.01035 27.4152 7.91024 27.8511 7.92287C28.3424 7.90472 28.83 8.0145 29.2665 8.24153C29.6331 8.44755 29.9433 8.74141 30.1692 9.09688C30.4049 9.47603 30.571 9.89448 30.6596 10.3324C30.7577 10.82 30.8062 11.3164 30.8045 11.8139C30.8059 12.2565 30.744 12.6971 30.6206 13.1221C30.5007 13.5243 30.3122 13.9026 30.0633 14.2402Z" fill="#F2F2F2"/>
<path fillRule="evenodd" clipRule="evenodd" d="M35.2792 0.811908V3.67427H38.7397V0.811908H35.2792ZM38.7397 18.2768V5.63097H35.2792V18.2768H38.7397Z" fill="#F2F2F2"/>
<path d="M47.7392 5.63088V7.95655H45.2038V14.218C45.0739 14.6332 45.1847 15.0864 45.4914 15.3941C45.7981 15.7018 46.2499 15.813 46.6637 15.6827C46.8588 15.6827 47.0482 15.6827 47.221 15.6827C47.393 15.6675 47.5642 15.6432 47.7337 15.61V18.2991C47.4109 18.3523 47.0853 18.386 46.7585 18.3997C46.3963 18.3997 46.0508 18.3997 45.7109 18.3997C45.1998 18.4009 44.6894 18.3635 44.184 18.2879C43.7393 18.2281 43.31 18.0839 42.9191 17.863C42.5501 17.6493 42.2487 17.3353 42.0498 16.9573C41.8186 16.4772 41.7095 15.9471 41.7321 15.4143V7.95655H39.6425V5.63088H41.7377V1.84048H45.2038V5.63088H47.7392Z" fill="#F2F2F2"/>
<path fillRule="evenodd" clipRule="evenodd" d="M49.3719 7.49254C48.9915 8.10233 48.7799 8.80283 48.759 9.52191L52.2473 9.57782C52.2514 9.01217 52.4994 8.47598 52.9272 8.1075C53.4024 7.78985 53.9673 7.63492 54.5376 7.66585C54.8266 7.66546 55.1153 7.68601 55.4013 7.72735C55.6507 7.76325 55.8909 7.84675 56.109 7.97333C56.3151 8.09801 56.4844 8.27554 56.5994 8.48766C56.7328 8.76607 56.7941 9.0737 56.7777 9.38215C56.8139 9.68917 56.6972 9.99441 56.4657 10.1984C56.1905 10.4083 55.8729 10.5552 55.5351 10.6288C55.0948 10.7322 54.6479 10.805 54.1977 10.8469C53.6906 10.8972 53.1779 10.9587 52.6597 11.0425C52.1414 11.1264 51.6232 11.2382 51.1105 11.3724C50.6228 11.5005 50.1609 11.7124 49.7453 11.9985C49.3362 12.2881 49.0019 12.6715 48.7701 13.1166C48.4993 13.6667 48.3691 14.2757 48.3912 14.8888C48.3786 15.4652 48.4908 16.0374 48.7199 16.566C48.928 17.0258 49.2433 17.4285 49.6394 17.74C50.0433 18.0597 50.5078 18.2937 51.0047 18.4277C51.5494 18.5764 52.1118 18.6498 52.6764 18.6457C53.4543 18.6475 54.2282 18.5326 54.9722 18.3047C55.7142 18.0781 56.3858 17.6642 56.9226 17.1027C56.9391 17.3128 56.967 17.5218 57.0062 17.7288C57.0463 17.9317 57.1003 18.1316 57.1678 18.327H60.6784C60.4821 17.9645 60.3644 17.5644 60.3329 17.153C60.2694 16.6093 60.2378 16.0624 60.2382 15.515V8.93491C60.2694 8.28065 60.0897 7.63371 59.7255 7.09002C59.3877 6.61249 58.9354 6.22797 58.4104 5.97191C57.8476 5.70291 57.2457 5.52551 56.6273 5.4464C55.9902 5.35799 55.3479 5.31317 54.7048 5.31223C54.0031 5.31124 53.3031 5.38054 52.6151 5.51908C51.9554 5.6361 51.3204 5.86484 50.7372 6.19553C50.1879 6.51564 49.7204 6.95971 49.3719 7.49254ZM56.1982 12.3955C56.4029 12.3323 56.5926 12.2276 56.7554 12.088L56.7443 13.385C56.7408 13.6467 56.7222 13.9081 56.6886 14.1677C56.6408 14.508 56.5292 14.8361 56.3598 15.1348C56.1578 15.4742 55.8718 15.7553 55.5295 15.9511C55.041 16.2084 54.4922 16.3282 53.9413 16.2977C53.6723 16.2962 53.4039 16.2718 53.1389 16.225C52.8971 16.1804 52.6651 16.0933 52.4535 15.9678C52.2586 15.843 52.0992 15.6697 51.991 15.4647C51.8731 15.2211 51.8158 14.9526 51.8238 14.682C51.8139 14.4022 51.8712 14.1242 51.991 13.8714C52.1041 13.6671 52.2577 13.4883 52.4423 13.3459C52.6441 13.204 52.8657 13.0929 53.0999 13.016C53.3526 12.937 53.6093 12.8717 53.8689 12.8203C53.916 12.8126 53.9633 12.8047 54.0107 12.7968C54.2381 12.7589 54.4686 12.7205 54.6992 12.6973C54.9778 12.6694 55.2397 12.6247 55.4905 12.5799C55.7299 12.5331 55.9663 12.4715 56.1982 12.3955Z" fill="#F2F2F2"/>
<path d="M65.1475 0.811908V18.2768H61.6814V0.811908H65.1475Z" fill="#F2F2F2"/>
<path d="M12.7999 25.5443V28.7701H4.38553V32.8065H11.6743V35.7918H4.38553V43.0092H0.557251V25.5443H12.7999Z" fill="#F2F2F2"/>
<path fillRule="evenodd" clipRule="evenodd" d="M13.8196 25.5443V28.4067H17.2857V25.5443H13.8196ZM17.2857 43.0092V30.3634H13.8196V43.0092H17.2857Z" fill="#F2F2F2"/>
<path d="M26.3076 30.3636V32.6837H23.7721V38.9451C23.7198 39.359 23.8231 39.7775 24.0619 40.1191C24.4016 40.3606 24.8188 40.4663 25.2321 40.4154C25.4271 40.4154 25.6166 40.4154 25.7893 40.4154C25.9621 40.4154 26.1348 40.3707 26.302 40.3427V43.0318C25.9791 43.083 25.6535 43.1148 25.3268 43.1268C24.9646 43.1268 24.6191 43.1548 24.2792 43.1548C23.7682 43.156 23.2578 43.1186 22.7523 43.043C22.3072 42.9815 21.8779 42.8354 21.4874 42.6125C21.1184 42.3987 20.8171 42.0848 20.6181 41.7068C20.387 41.2286 20.2778 40.7004 20.3005 40.1694V32.6837H18.2108V30.3636H20.2949V26.5732H23.761V30.3636H26.3076Z" fill="#F2F2F2"/>
<path d="M30.5984 30.3635V32.1245H30.6708C31.0662 31.4304 31.6603 30.8715 32.376 30.52C33.0442 30.1923 33.7776 30.0203 34.5214 30.0168C35.2986 29.9915 36.0732 30.1207 36.8005 30.397C37.352 30.6185 37.8361 30.9808 38.2048 31.448C38.5617 31.9363 38.8071 32.4975 38.9236 33.0917C39.068 33.7941 39.1371 34.51 39.1298 35.2272V43.0093H35.6693V35.8646C35.7234 35.0552 35.5537 34.2465 35.1789 33.5277C34.7828 32.9782 34.1236 32.6838 33.4515 32.7562C32.6717 32.6864 31.9069 33.0012 31.4008 33.6004C30.9773 34.1669 30.7655 35.0987 30.7655 36.3957V43.0261H27.305V30.3635H30.5984Z" fill="#F2F2F2"/>
<path fillRule="evenodd" clipRule="evenodd" d="M48.3076 40.2083C47.0409 40.9868 45.4253 40.8932 44.2564 39.9735C43.6722 39.2879 43.373 38.4032 43.4206 37.5025H52.4925C52.5589 36.5636 52.4762 35.6201 52.2473 34.7072C52.036 33.844 51.6573 33.0309 51.1328 32.3145C50.6186 31.6093 49.9468 31.0349 49.1713 30.6373C48.306 30.2076 47.3504 29.9928 46.3851 30.0111C45.4861 30.0001 44.5945 30.1752 43.7661 30.5255C42.2142 31.1853 41.0038 32.4603 40.4226 34.0475C40.11 34.8936 39.9533 35.7896 39.9601 36.6919C39.9496 37.608 40.1024 38.5187 40.4114 39.3809C40.6914 40.1623 41.1254 40.8791 41.6875 41.4886C42.2586 42.0809 42.9505 42.5424 43.7159 42.8415C44.5706 43.1718 45.4804 43.335 46.3963 43.3223C47.6836 43.3595 48.954 43.0195 50.0518 42.3439C51.1493 41.5524 51.9375 40.4018 52.2808 39.0902H49.2326C49.0569 39.5558 48.7314 39.9493 48.3076 40.2083ZM46.2625 32.6387C46.9622 32.5842 47.6516 32.8324 48.1571 33.3208H48.1906C48.6455 33.9007 48.9327 34.595 49.0209 35.3278H43.3871C43.4121 35.0452 43.4662 34.7661 43.5487 34.4948C43.6421 34.1738 43.7995 33.8752 44.0112 33.6171C44.2496 33.3239 44.5479 33.0856 44.8861 32.9182C45.3162 32.7164 45.7881 32.6206 46.2625 32.6387Z" fill="#F2F2F2"/>
<path d="M56.5158 39.8674C56.6662 40.1286 56.8716 40.3538 57.1176 40.5271C57.3727 40.7029 57.658 40.8299 57.9591 40.9017C58.5332 41.0514 59.1342 41.0648 59.7144 40.9408C59.9698 40.8887 60.2159 40.7983 60.4444 40.6725C60.6645 40.5525 60.855 40.3843 61.0016 40.1805C61.1576 39.9566 61.2359 39.6875 61.2245 39.4146C61.2245 38.8891 60.8791 38.4978 60.1881 38.2406C59.245 37.9073 58.2782 37.6457 57.296 37.4579C56.7944 37.3405 56.3041 37.2063 55.8248 37.0498C55.3702 36.9106 54.9384 36.7053 54.5432 36.4404C54.1745 36.1939 53.8659 35.8671 53.6404 35.4844C53.4012 35.0568 53.2836 34.5714 53.3005 34.0812C53.2707 33.3812 53.4347 32.6865 53.7742 32.0742C54.0819 31.5631 54.5131 31.1382 55.028 30.8387C55.5732 30.5287 56.1666 30.3133 56.7833 30.2014C57.443 30.0777 58.1127 30.016 58.7838 30.0169C59.4517 30.0161 60.1181 30.0816 60.7732 30.2126C61.3799 30.3312 61.9609 30.5564 62.4895 30.8778C62.9977 31.1879 63.4285 31.6106 63.7489 32.1133C64.0902 32.697 64.2852 33.355 64.3173 34.0309H61.0239C61.0382 33.4745 60.7472 32.9551 60.2661 32.678C59.7684 32.4286 59.2173 32.3057 58.6612 32.3202C58.4489 32.3203 58.2367 32.3334 58.026 32.3593C57.8114 32.3803 57.601 32.4331 57.4018 32.5159C57.2186 32.5969 57.0564 32.7193 56.9282 32.8737C56.7915 33.0506 56.7224 33.2707 56.7331 33.4942C56.7238 33.7866 56.8491 34.0671 57.0731 34.2545C57.337 34.469 57.6398 34.6303 57.9647 34.7297C58.3755 34.8651 58.7942 34.9752 59.2185 35.0596L60.6562 35.3782C61.1555 35.4891 61.6485 35.6272 62.1329 35.7919C62.5889 35.9453 63.0205 36.1637 63.4145 36.4404C63.7851 36.7057 64.0932 37.0492 64.3173 37.4467C64.5578 37.9002 64.6751 38.4093 64.6572 38.9226C64.6823 39.6541 64.5089 40.3787 64.1557 41.0191C63.8372 41.5698 63.3896 42.0342 62.8517 42.372C62.2907 42.7289 61.6663 42.9738 61.0128 43.0932C60.3176 43.2344 59.6101 43.3056 58.9008 43.3056C58.1798 43.3074 57.4607 43.2324 56.7554 43.082C56.0964 42.9513 55.4661 42.7032 54.8942 42.3496C54.3477 42.0073 53.8879 41.5423 53.5513 40.9911C53.1845 40.3477 52.9924 39.6191 52.994 38.8779H56.2873C56.2756 39.2222 56.3544 39.5634 56.5158 39.8674Z" fill="#F2F2F2"/>
<path d="M68.7194 39.8674C68.8661 40.1296 69.0699 40.3551 69.3157 40.5271C69.5714 40.7018 69.8564 40.8287 70.1571 40.9017C70.4792 40.9855 70.8107 41.0269 71.1434 41.0247C71.4019 41.0232 71.6596 40.9951 71.9124 40.9408C72.1681 40.8896 72.4143 40.7991 72.6424 40.6725C72.8626 40.5525 73.053 40.3843 73.1997 40.1805C73.3556 39.9566 73.4339 39.6875 73.4226 39.4146C73.4226 38.8891 73.0771 38.4978 72.3861 38.2406C71.443 37.9073 70.4762 37.6457 69.494 37.4579C68.9925 37.3405 68.5021 37.2063 68.0229 37.0498C67.5687 36.9094 67.1371 36.7042 66.7412 36.4404C66.3725 36.1939 66.0639 35.8671 65.8385 35.4844C65.5992 35.0568 65.4816 34.5714 65.4985 34.0812C65.4688 33.3812 65.6327 32.6865 65.9722 32.0742C66.2799 31.5631 66.7111 31.1382 67.226 30.8387C67.7712 30.5287 68.3646 30.3133 68.9813 30.2014C69.641 30.0777 70.3107 30.016 70.9818 30.0169C71.6498 30.0161 72.3161 30.0816 72.9712 30.2126C73.5779 30.3312 74.1589 30.5564 74.6875 30.8778C75.1957 31.1879 75.6265 31.6106 75.9469 32.1133C76.3014 32.701 76.5062 33.3673 76.5431 34.0533H73.2331C73.2474 33.4969 72.9564 32.9774 72.4752 32.7004C71.9776 32.4509 71.4265 32.3281 70.8704 32.3426C70.658 32.3427 70.4459 32.3557 70.2351 32.3817C70.0205 32.4027 69.8102 32.4554 69.611 32.5382C69.4277 32.6192 69.2656 32.7417 69.1373 32.896C69.0007 33.0729 68.9315 33.293 68.9423 33.5166C68.9329 33.809 69.0583 34.0895 69.2822 34.2769C69.5462 34.4913 69.8489 34.6527 70.1738 34.7521C70.5847 34.8874 71.0034 34.9976 71.4276 35.0819L72.8709 35.4006C73.3682 35.5122 73.8593 35.6503 74.342 35.8143C74.798 35.9677 75.2297 36.1861 75.6237 36.4628C75.9943 36.728 76.3024 37.0715 76.5264 37.4691C76.767 37.9226 76.8842 38.4316 76.8663 38.945C76.8914 39.6765 76.7181 40.4011 76.3648 41.0415C76.0463 41.5921 75.5987 42.0565 75.0609 42.3944C74.4999 42.7513 73.8755 42.9961 73.222 43.1156C72.5286 43.2565 71.823 43.3277 71.1156 43.328C70.3927 43.3301 69.6717 43.2551 68.9646 43.1044C68.3056 42.9736 67.6753 42.7256 67.1034 42.372C66.5569 42.0297 66.0971 41.5646 65.7604 41.0135C65.3937 40.3701 65.2015 39.6415 65.2032 38.9003H68.4965C68.4844 39.2368 68.5613 39.5705 68.7194 39.8674Z" fill="#F2F2F2"/>
</svg>
