<svg width="314" height="146" fill="none" xmlns="http://www.w3.org/2000/svg"><mask id="a" maskUnits="userSpaceOnUse" x="0" y="0" width="314" height="146" fill="#000"><path fill="#fff" d="M0 0h314v146H0z"/><path d="M8.132 115.805c5.9-12.449 13.868-25.337 23.906-38.663l3.038-4.076-.265-.395c-.704-.964-1.056-1.885-1.056-2.761 0-.877.264-1.49.792-1.841a2.352 2.352 0 0 1 1.057-.264c.616 0 1.233.351 1.849 1.052l.66.527 2.51-3.025a124.44 124.44 0 0 1 2.641-3.156 69.86 69.86 0 0 1 3.038-3.55c5.019-5.875 9.95-11.267 14.792-16.176 4.931-4.997 8.19-7.978 9.774-8.943a2.353 2.353 0 0 1 1.057-.263c.264 0 .528.088.792.263.529.263.793.745.793 1.447 0 .35-.089.657-.265.92-.088.176-.352.395-.792.658-1.233.877-3.346 2.805-6.34 5.786-2.905 2.981-6.163 6.488-9.773 10.52a338.701 338.701 0 0 0-7.132 8.154 364.624 364.624 0 0 0-6.076 7.102c-1.673 2.016-2.51 3.112-2.51 3.287 0 .088.485.263 1.454.526 1.056.263 2.2.482 3.434.658.704.088 1.54.175 2.509.263h3.962c3.082 0 5.724-.132 7.925-.395 2.201-.35 4.622-.92 7.264-1.71.968-.35 1.805-.525 2.51-.525.44 0 .792.087 1.056.263.44.175.66.482.66.92v.395c-.176.613-.704 1.183-1.585 1.71-1.937 1.051-4.402 1.84-7.396 2.366-2.993.526-5.503.79-7.528.79h-3.83c-2.818 0-5.371-.176-7.66-.526a9.197 9.197 0 0 1-1.057-.264h-.397v.132c0 .088.044.22.133.395.088.262.22.613.396 1.051 1.76 3.683 2.641 7.716 2.641 12.1 0 4.12-.792 8.547-2.377 13.281-3.874 11.31-10.434 21.655-19.68 31.036-1.76 1.841-3.83 3.638-6.207 5.392-2.377 1.753-4.447 2.981-6.207 3.682C8.88 144.649 7.428 145 6.283 145c-.88 0-1.673-.175-2.377-.526-1.85-1.052-2.774-2.236-2.774-3.551-.088-1.402-.132-2.191-.132-2.367 0-2.279.396-4.822 1.189-7.627.88-3.069 1.893-5.918 3.037-8.548 1.145-2.718 2.07-4.822 2.774-6.313 0-.087.044-.175.132-.263Zm12.944 15.781c8.012-8.504 13.867-17.622 17.566-27.353 1.76-4.997 2.641-9.6 2.641-13.808 0-2.806-.396-5.392-1.189-7.76-.176-.613-.484-1.358-.924-2.235a14.872 14.872 0 0 0-1.189-2.367c-.352-.789-.572-1.227-.66-1.315-.088 0-.44.35-1.057 1.052a93.161 93.161 0 0 0-1.98 2.762c-10.479 13.94-18.712 27.704-24.7 41.293-.527 1.052-1.32 2.981-2.376 5.786-1.057 2.718-1.761 4.954-2.114 6.707-.352 1.753-.528 2.981-.528 3.682 0 1.403.396 2.411 1.189 3.025.352.175.748.263 1.188.263 1.057 0 2.29-.439 3.699-1.315a40.586 40.586 0 0 0 6.075-4.34c1.937-1.753 3.39-3.112 4.359-4.077Z"/><path d="M60.836 90.556c-2.466-.876-3.83-1.972-4.095-3.287-.264-1.403-.352-2.587-.264-3.551.088-1.052.396-2.192.925-3.42 1.585-3.419 3.874-6.487 6.868-9.205 2.993-2.718 5.81-4.734 8.452-6.05a11.16 11.16 0 0 1 3.302-1.051 8.717 8.717 0 0 1 2.114-.263c1.232 0 2.245.263 3.037.789 1.497.701 2.201 1.446 2.114 2.235v1.052c-.177 1.403-1.233 2.806-3.17 4.209-3.787 2.542-7.705 3.813-11.755 3.813-1.233 0-2.466-.087-3.698-.263-1.673 1.49-2.818 3.025-3.434 4.603-.617 1.578-.925 2.63-.925 3.156-.176 1.49.308 2.674 1.453 3.551.88.438 2.025.657 3.434.657h1.32c1.938-.087 3.567-.306 4.888-.657 4.138-.877 9.025-2.542 14.66-4.997 1.761-.79 3.038-1.447 3.83-1.973 1.497-.789 2.598-1.183 3.302-1.183h.396c.529.175.749.526.66 1.052 0 .175-.043.35-.131.526-.353.789-1.145 1.621-2.378 2.498-1.232.702-2.95 1.535-5.15 2.499-6.692 2.98-12.284 4.778-16.774 5.392-1.673.263-3.214.394-4.623.394-1.673 0-3.126-.175-4.358-.526Zm9.377-18.016c1.585-.176 3.258-.658 5.019-1.447l1.849-1.052c1.409-.877 2.113-1.534 2.113-1.972.088-.088.088-.176 0-.264-.264-.35-.748-.526-1.453-.526-.352 0-.792.044-1.32.132-1.321.263-2.95 1.052-4.887 2.367-.617.35-1.233.79-1.85 1.315-1.056.79-1.628 1.315-1.716 1.578 0 .088.132.132.396.132.352 0 .968-.088 1.849-.263Z"/><path d="M82.501 91.214c-1.76-.614-2.641-1.754-2.641-3.42 0-.788.22-1.71.66-2.761.88-2.104 2.73-4.647 5.547-7.627a67.532 67.532 0 0 1 9.114-8.285c4.93-3.595 8.937-5.392 12.018-5.392 1.233 0 2.334.307 3.302.92.793.702 1.233 1.666 1.321 2.894v.657l.264.526.397.395c.528.438.792.876.792 1.315v.394a8.19 8.19 0 0 1-1.057 1.578c-1.937 2.455-3.39 5.041-4.358 7.76-.44 1.051-.661 1.928-.661 2.63 0 1.314.749 1.972 2.246 1.972h.792c1.409-.175 3.082-.658 5.019-1.447a30.522 30.522 0 0 0 5.811-3.024c2.554-1.666 4.667-3.244 6.34-4.735 1.233-.964 2.157-1.446 2.774-1.446.176 0 .352.044.528.131.264.176.396.439.396.79 0 .525-.308 1.227-.924 2.103a24.537 24.537 0 0 1-7.264 6.181c-1.938 1.315-4.183 2.543-6.736 3.683-2.554 1.052-4.755 1.578-6.604 1.578a9.257 9.257 0 0 1-2.245-.264c-2.554-.964-3.831-2.805-3.831-5.523 0-.438.044-.92.132-1.446.088-.351.133-.658.133-.92l.132-.264c0-.088-.044-.131-.132-.131l-.925.657a77.186 77.186 0 0 0-2.509 1.973c-5.548 4.12-9.906 6.75-13.076 7.89-.88.35-1.629.57-2.245.658-.705.087-1.233.131-1.585.131-.352 0-.66-.044-.925-.131Zm3.963-4.34c2.905-1.14 6.868-3.594 11.886-7.364 1.145-.877 2.642-2.148 4.491-3.814 1.849-1.666 3.214-3.156 4.094-4.471.881-1.403 1.321-2.455 1.321-3.156v-.264c-.176-.438-.528-.657-1.057-.657h-.528c-.792.175-1.717.526-2.773 1.052a27.6 27.6 0 0 0-2.774 1.315c-3.17 1.929-6.516 4.603-10.038 8.022-3.434 3.42-5.767 6.312-7 8.68-.264.613-.396 1.008-.396 1.183 0 .088.088.131.264.131h.396a9.165 9.165 0 0 1 1.057-.263 5.18 5.18 0 0 0 1.057-.394Z"/><path d="M84.62 131.06c-.352-.263-.529-.657-.529-1.183 0-.614.265-1.447.793-2.499 3.786-7.452 15.277-23.408 34.472-47.868 3.874-4.998 8.365-10.653 13.471-16.965 5.107-6.4 9.422-11.704 12.944-15.912l1.981-2.367-2.377.131c-.617.088-1.541.176-2.774.263-1.233 0-2.465.044-3.698.132-4.138.263-8.629.482-13.472.657-4.754.176-8.188.307-10.302.395h-2.377c-.616-.088-1.013-.132-1.189-.132a2.181 2.181 0 0 0-.66-.131c-.528-.35-.793-.702-.793-1.052v-.658c0-.526.177-.92.529-1.183.352-.263.88-.439 1.585-.526.616-.088 1.056-.132 1.32-.132.353 0 .661.044.925.132h2.641c1.497 0 4.051-.088 7.661-.263 3.698-.176 8.805-.483 15.321-.92a192.16 192.16 0 0 0 4.754-.264 50.277 50.277 0 0 1 3.17-.131c.881-.088 1.541-.176 1.981-.264.441-.087.749-.175.925-.263h.264c.176-.175.836-.964 1.981-2.367a240.973 240.973 0 0 0 4.359-5.128 763.22 763.22 0 0 1 4.622-5.524c1.497-1.753 2.466-2.937 2.906-3.55 6.692-7.89 11.226-13.414 13.604-16.57.616-.877 1.1-1.534 1.453-1.973.352-.438.572-.789.66-1.052.088-.263.132-.526.132-.789 0-.789.308-1.403.925-1.841A2.35 2.35 0 0 1 182.884 1c.264 0 .529.044.793.132.616.263.968.789 1.056 1.578 0 .263-.044.526-.132.789 0 .263-.088.57-.264.92-.616 1.49-2.597 4.384-5.943 8.68-3.258 4.208-8.629 10.695-16.114 19.463a542.126 542.126 0 0 1-4.226 5.26c-1.145 1.315-1.717 2.016-1.717 2.104.088 0 1.013-.044 2.774-.132 1.849-.087 4.138-.219 6.868-.394 18.754-1.14 35.044-2.06 48.868-2.762 3.081-.087 5.371-.175 6.867-.263 1.585-.087 2.73-.131 3.434-.131.793-.088 1.585-.22 2.378-.395.44-.087.836-.131 1.188-.131.265 0 .485.044.661.131.44.088.748.307.924.658.177.35.265.701.265 1.052 0 .175-.044.394-.133.657-.352.526-.968.921-1.849 1.184-.528.088-1.144.22-1.849.395-.704.087-1.805.175-3.302.262-1.408.088-3.478.176-6.207.264-13.384.613-32.271 1.665-56.661 3.156-1.937.087-3.61.175-5.018.263-1.409.087-2.202.175-2.378.263-.088 0-.22.087-.396.263l-.66.657c-.265.351-.705.877-1.321 1.578a64.146 64.146 0 0 1-2.246 2.762c-.968 1.14-2.157 2.543-3.566 4.208-15.144 18.587-27.912 34.762-38.302 48.526-4.49 6.05-8.1 11.047-10.83 14.992-2.73 3.945-4.975 7.496-6.736 10.652a20.91 20.91 0 0 0-1.32 2.236c-.44.613-.749 1.008-.925 1.183-.352.263-.616.395-.792.395h-.529a1.27 1.27 0 0 1-.924-.395Z"/><path d="M158.455 85.296c0-1.403.353-2.937 1.057-4.603.088-.35.176-.657.264-.92l.132-.395c-.088 0-.264.088-.528.263-.264.175-.572.395-.925.658-4.49 3.156-8.981 5.874-13.471 8.153-3.434 1.754-6.032 2.63-7.793 2.63h-.528c-1.673 0-2.774-.438-3.302-1.315-.352-.614-.528-1.315-.528-2.104 0-.438.044-.92.132-1.447a14.118 14.118 0 0 1 1.453-4.076c1.232-2.455 2.905-4.998 5.019-7.628.528-.613.88-1.096 1.056-1.446.176-.35.264-.614.264-.79 0-1.139 1.013-2.279 3.038-3.418.704-.351 1.321-.526 1.849-.526.705 0 1.189.394 1.453 1.183.088.175.132.35.132.526a.89.89 0 0 1-.264.658c-.176.438-.572 1.008-1.189 1.71a53.028 53.028 0 0 0-6.207 8.021c-1.761 2.718-2.818 4.866-3.17 6.444 0 .263.044.438.132.526h.264c.616 0 1.673-.263 3.17-.789 1.497-.526 3.038-1.227 4.623-2.104 2.993-1.578 6.075-3.463 9.245-5.655 3.258-2.192 5.943-4.208 8.056-6.05 2.554-2.191 4.183-3.33 4.887-3.418h.264c.529 0 .969.175 1.321.526.352.35.528.789.528 1.315v.394c-.088.175-.264.482-.528.92-.176.351-.396.746-.66 1.184-3.522 5.085-5.327 8.943-5.415 11.573 0 1.753.308 2.674.924 2.761h1.189c.968 0 2.069-.306 3.302-.92 1.409-.79 2.553-1.49 3.434-2.104.176-.088.308-.132.396-.132a216.538 216.538 0 0 0 13.604-9.6c1.585-1.052 2.729-1.578 3.434-1.578.176 0 .352.044.528.132.176.087.264.263.264.526 0 .614-.792 1.666-2.377 3.156a152.076 152.076 0 0 1-14 10.389c-1.673 1.14-3.39 2.016-5.151 2.63-1.673.614-3.038.92-4.095.92-.968 0-1.849-.175-2.641-.525-1.673-.614-2.553-2.499-2.642-5.655Z"/><path d="m172.197 86.216 2.773-3.55c1.145-1.578 2.245-2.937 3.302-4.077.528-.614 1.321-1.578 2.377-2.893a165.565 165.565 0 0 0 3.434-4.077c1.673-2.192 2.906-3.77 3.699-4.734a99.36 99.36 0 0 1 1.717-2.236l1.056-1.578c.793-1.14 1.365-1.71 1.717-1.71.352-.087.572-.13.661-.13.528 0 .924.262 1.188.788.088.175.132.395.132.658 0 .438-.132.964-.396 1.578-.176.35-.484.877-.924 1.578l-1.321 1.841c-.44.614-.793 1.096-1.057 1.447l-.264.263c.352-.088.66-.132.925-.132.88 0 1.628.263 2.245.79.968.613 1.673 1.49 2.113 2.63.881 2.191 2.157 3.287 3.83 3.287h.396c1.761-.175 3.699-.877 5.812-2.104.88-.526 1.629-.79 2.245-.79h.396c.529.088.793.44.793 1.053 0 .614-.308 1.227-.925 1.84-.968.965-2.289 1.754-3.962 2.368-1.849.701-3.522 1.052-5.019 1.052-.44 0-.88-.044-1.321-.131-1.937-.351-3.566-1.535-4.886-3.551a6.837 6.837 0 0 1-.661-1.052c-.352-.79-.704-1.184-1.056-1.184-.265-.087-.441-.131-.529-.131-.528 0-1.277.307-2.245.92-1.585 1.052-3.346 2.63-5.283 4.735-1.849 2.104-3.39 3.945-4.623 5.523-.352.438-.748.964-1.188 1.578-.353.438-.705.92-1.057 1.447-.352.438-.616.745-.792.92-.969 1.052-1.806 1.578-2.51 1.578h-.132c-.704 0-1.101-.219-1.189-.657-.088-.526-.132-.877-.132-1.053 0-.613.22-1.314.661-2.104Z"/><path d="M200.994 90.556c-2.465-.876-3.83-1.972-4.094-3.287-.264-1.403-.352-2.587-.264-3.551.088-1.052.396-2.192.924-3.42 1.585-3.419 3.875-6.487 6.868-9.205 2.994-2.718 5.812-4.734 8.453-6.05a11.161 11.161 0 0 1 3.302-1.051 8.721 8.721 0 0 1 2.113-.263c1.233 0 2.246.263 3.038.789 1.497.701 2.201 1.446 2.113 2.235v1.052c-.176 1.403-1.232 2.806-3.17 4.209-3.786 2.542-7.704 3.813-11.754 3.813-1.233 0-2.466-.087-3.698-.263-1.673 1.49-2.818 3.025-3.434 4.603-.617 1.578-.925 2.63-.925 3.156-.176 1.49.308 2.674 1.453 3.551.88.438 2.025.657 3.434.657h1.321c1.937-.087 3.566-.306 4.886-.657 4.139-.877 9.026-2.542 14.661-4.997 1.761-.79 3.038-1.447 3.83-1.973 1.497-.789 2.598-1.183 3.302-1.183h.396c.529.175.749.526.661 1.052 0 .175-.044.35-.132.526-.353.789-1.145 1.621-2.378 2.498-1.233.702-2.95 1.535-5.151 2.499-6.692 2.98-12.283 4.778-16.773 5.392-1.673.263-3.214.394-4.623.394-1.673 0-3.126-.175-4.359-.526Zm9.378-18.016c1.585-.176 3.258-.658 5.019-1.447l1.849-1.052c1.409-.877 2.113-1.534 2.113-1.972.088-.088.088-.176 0-.264-.264-.35-.748-.526-1.453-.526-.352 0-.792.044-1.321.132-1.32.263-2.949 1.052-4.886 2.367-.617.35-1.233.79-1.85 1.315-1.056.79-1.628 1.315-1.716 1.578 0 .088.132.132.396.132.352 0 .968-.088 1.849-.263Z"/><path d="M227.151 129.745c-.793-.35-1.189-.92-1.189-1.709 0-.263.044-.526.132-.789.352-1.052 1.585-3.288 3.698-6.707s4.579-7.102 7.396-11.047c8.277-11.748 17.567-24.416 27.868-38.005 10.39-13.677 19.063-24.767 26.019-33.272.529-.613.969-1.14 1.321-1.578.352-.438.528-.701.528-.789-.088 0-1.496 1.228-4.226 3.683a7246.586 7246.586 0 0 0-10.83 9.731 5136.864 5136.864 0 0 1-16.642 15.123c-3.698 3.42-6.824 6.181-9.377 8.285-11.094 9.293-19.327 15.123-24.698 17.49-1.409.614-2.642.921-3.698.921A3.891 3.891 0 0 1 222 90.82c-1.321-.614-1.981-1.622-1.981-3.025 0-.964.308-2.104.924-3.419 1.673-2.98 4.183-6.049 7.528-9.205 3.346-3.156 6.428-5.392 9.246-6.707a13.417 13.417 0 0 1 5.547-1.183h.66c2.202 0 3.566 1.183 4.095 3.55l2.641-2.236c4.403-3.77 11.447-10.082 21.132-18.936 4.403-4.033 7.793-7.102 10.17-9.206a456.63 456.63 0 0 1 8.057-7.233c5.283-4.734 9.773-8.68 13.472-11.835 3.698-3.157 5.811-4.91 6.339-5.26.528-.264.969-.395 1.321-.395.44 0 .792.131 1.057.394.528.351.792.92.792 1.71v.394c0 .176-.396.746-1.189 1.71-.792.877-2.113 2.41-3.962 4.603-10.742 12.098-22.717 26.871-35.925 44.318a1732.145 1732.145 0 0 0-19.415 26.038c-6.868 9.381-11.71 16.088-14.528 20.12-4.667 7.014-7.176 11.179-7.528 12.494-.176.964-.529 1.622-1.057 1.972-.528.263-.969.395-1.321.395s-.66-.044-.924-.132Zm-.793-43.397c2.642-1.227 6.296-3.55 10.963-6.97.968-.789 2.025-1.622 3.169-2.499a66.36 66.36 0 0 0 3.038-2.498c.881-.702 1.365-1.096 1.453-1.184l-.396-.394c-.176-.176-.264-.526-.264-1.052 0-.614-.221-.92-.661-.92h-.792c-.441 0-.881.043-1.321.13-.704.176-1.233.351-1.585.527-3.434 1.402-7.176 4.34-11.226 8.81a75.63 75.63 0 0 0-2.114 2.762c-.704.877-1.276 1.71-1.717 2.499-.528.701-.792 1.184-.792 1.447h.132c.264 0 .969-.22 2.113-.658Z"/></mask><path d="M8.132 115.805c5.9-12.449 13.868-25.337 23.906-38.663l3.038-4.076-.265-.395c-.704-.964-1.056-1.885-1.056-2.761 0-.877.264-1.49.792-1.841a2.352 2.352 0 0 1 1.057-.264c.616 0 1.233.351 1.849 1.052l.66.527 2.51-3.025a124.44 124.44 0 0 1 2.641-3.156 69.86 69.86 0 0 1 3.038-3.55c5.019-5.875 9.95-11.267 14.792-16.176 4.931-4.997 8.19-7.978 9.774-8.943a2.353 2.353 0 0 1 1.057-.263c.264 0 .528.088.792.263.529.263.793.745.793 1.447 0 .35-.089.657-.265.92-.088.176-.352.395-.792.658-1.233.877-3.346 2.805-6.34 5.786-2.905 2.981-6.163 6.488-9.773 10.52a338.701 338.701 0 0 0-7.132 8.154 364.624 364.624 0 0 0-6.076 7.102c-1.673 2.016-2.51 3.112-2.51 3.287 0 .088.485.263 1.454.526 1.056.263 2.2.482 3.434.658.704.088 1.54.175 2.509.263h3.962c3.082 0 5.724-.132 7.925-.395 2.201-.35 4.622-.92 7.264-1.71.968-.35 1.805-.525 2.51-.525.44 0 .792.087 1.056.263.44.175.66.482.66.92v.395c-.176.613-.704 1.183-1.585 1.71-1.937 1.051-4.402 1.84-7.396 2.366-2.993.526-5.503.79-7.528.79h-3.83c-2.818 0-5.371-.176-7.66-.526a9.197 9.197 0 0 1-1.057-.264h-.397v.132c0 .088.044.22.133.395.088.262.22.613.396 1.051 1.76 3.683 2.641 7.716 2.641 12.1 0 4.12-.792 8.547-2.377 13.281-3.874 11.31-10.434 21.655-19.68 31.036-1.76 1.841-3.83 3.638-6.207 5.392-2.377 1.753-4.447 2.981-6.207 3.682C8.88 144.649 7.428 145 6.283 145c-.88 0-1.673-.175-2.377-.526-1.85-1.052-2.774-2.236-2.774-3.551-.088-1.402-.132-2.191-.132-2.367 0-2.279.396-4.822 1.189-7.627.88-3.069 1.893-5.918 3.037-8.548 1.145-2.718 2.07-4.822 2.774-6.313 0-.087.044-.175.132-.263Zm12.944 15.781c8.012-8.504 13.867-17.622 17.566-27.353 1.76-4.997 2.641-9.6 2.641-13.808 0-2.806-.396-5.392-1.189-7.76-.176-.613-.484-1.358-.924-2.235a14.872 14.872 0 0 0-1.189-2.367c-.352-.789-.572-1.227-.66-1.315-.088 0-.44.35-1.057 1.052a93.161 93.161 0 0 0-1.98 2.762c-10.479 13.94-18.712 27.704-24.7 41.293-.527 1.052-1.32 2.981-2.376 5.786-1.057 2.718-1.761 4.954-2.114 6.707-.352 1.753-.528 2.981-.528 3.682 0 1.403.396 2.411 1.189 3.025.352.175.748.263 1.188.263 1.057 0 2.29-.439 3.699-1.315a40.586 40.586 0 0 0 6.075-4.34c1.937-1.753 3.39-3.112 4.359-4.077Z" fill="#8C00FA"/><path d="M60.836 90.556c-2.466-.876-3.83-1.972-4.095-3.287-.264-1.403-.352-2.587-.264-3.551.088-1.052.396-2.192.925-3.42 1.585-3.419 3.874-6.487 6.868-9.205 2.993-2.718 5.81-4.734 8.452-6.05a11.16 11.16 0 0 1 3.302-1.051 8.717 8.717 0 0 1 2.114-.263c1.232 0 2.245.263 3.037.789 1.497.701 2.201 1.446 2.114 2.235v1.052c-.177 1.403-1.233 2.806-3.17 4.209-3.787 2.542-7.705 3.813-11.755 3.813-1.233 0-2.466-.087-3.698-.263-1.673 1.49-2.818 3.025-3.434 4.603-.617 1.578-.925 2.63-.925 3.156-.176 1.49.308 2.674 1.453 3.551.88.438 2.025.657 3.434.657h1.32c1.938-.087 3.567-.306 4.888-.657 4.138-.877 9.025-2.542 14.66-4.997 1.761-.79 3.038-1.447 3.83-1.973 1.497-.789 2.598-1.183 3.302-1.183h.396c.529.175.749.526.66 1.052 0 .175-.043.35-.131.526-.353.789-1.145 1.621-2.378 2.498-1.232.702-2.95 1.535-5.15 2.499-6.692 2.98-12.284 4.778-16.774 5.392-1.673.263-3.214.394-4.623.394-1.673 0-3.126-.175-4.358-.526Zm9.377-18.016c1.585-.176 3.258-.658 5.019-1.447l1.849-1.052c1.409-.877 2.113-1.534 2.113-1.972.088-.088.088-.176 0-.264-.264-.35-.748-.526-1.453-.526-.352 0-.792.044-1.32.132-1.321.263-2.95 1.052-4.887 2.367-.617.35-1.233.79-1.85 1.315-1.056.79-1.628 1.315-1.716 1.578 0 .088.132.132.396.132.352 0 .968-.088 1.849-.263Z" fill="#8C00FA"/><path d="M82.501 91.214c-1.76-.614-2.641-1.754-2.641-3.42 0-.788.22-1.71.66-2.761.88-2.104 2.73-4.647 5.547-7.627a67.532 67.532 0 0 1 9.114-8.285c4.93-3.595 8.937-5.392 12.018-5.392 1.233 0 2.334.307 3.302.92.793.702 1.233 1.666 1.321 2.894v.657l.264.526.397.395c.528.438.792.876.792 1.315v.394a8.19 8.19 0 0 1-1.057 1.578c-1.937 2.455-3.39 5.041-4.358 7.76-.44 1.051-.661 1.928-.661 2.63 0 1.314.749 1.972 2.246 1.972h.792c1.409-.175 3.082-.658 5.019-1.447a30.522 30.522 0 0 0 5.811-3.024c2.554-1.666 4.667-3.244 6.34-4.735 1.233-.964 2.157-1.446 2.774-1.446.176 0 .352.044.528.131.264.176.396.439.396.79 0 .525-.308 1.227-.924 2.103a24.537 24.537 0 0 1-7.264 6.181c-1.938 1.315-4.183 2.543-6.736 3.683-2.554 1.052-4.755 1.578-6.604 1.578a9.257 9.257 0 0 1-2.245-.264c-2.554-.964-3.831-2.805-3.831-5.523 0-.438.044-.92.132-1.446.088-.351.133-.658.133-.92l.132-.264c0-.088-.044-.131-.132-.131l-.925.657a77.186 77.186 0 0 0-2.509 1.973c-5.548 4.12-9.906 6.75-13.076 7.89-.88.35-1.629.57-2.245.658-.705.087-1.233.131-1.585.131-.352 0-.66-.044-.925-.131Zm3.963-4.34c2.905-1.14 6.868-3.594 11.886-7.364 1.145-.877 2.642-2.148 4.491-3.814 1.849-1.666 3.214-3.156 4.094-4.471.881-1.403 1.321-2.455 1.321-3.156v-.264c-.176-.438-.528-.657-1.057-.657h-.528c-.792.175-1.717.526-2.773 1.052a27.6 27.6 0 0 0-2.774 1.315c-3.17 1.929-6.516 4.603-10.038 8.022-3.434 3.42-5.767 6.312-7 8.68-.264.613-.396 1.008-.396 1.183 0 .088.088.131.264.131h.396a9.165 9.165 0 0 1 1.057-.263 5.18 5.18 0 0 0 1.057-.394Z" fill="#8C00FA"/><path d="M84.62 131.06c-.352-.263-.529-.657-.529-1.183 0-.614.265-1.447.793-2.499 3.786-7.452 15.277-23.408 34.472-47.868 3.874-4.998 8.365-10.653 13.471-16.965 5.107-6.4 9.422-11.704 12.944-15.912l1.981-2.367-2.377.131c-.617.088-1.541.176-2.774.263-1.233 0-2.465.044-3.698.132-4.138.263-8.629.482-13.472.657-4.754.176-8.188.307-10.302.395h-2.377c-.616-.088-1.013-.132-1.189-.132a2.181 2.181 0 0 0-.66-.131c-.528-.35-.793-.702-.793-1.052v-.658c0-.526.177-.92.529-1.183.352-.263.88-.439 1.585-.526.616-.088 1.056-.132 1.32-.132.353 0 .661.044.925.132h2.641c1.497 0 4.051-.088 7.661-.263 3.698-.176 8.805-.483 15.321-.92a192.16 192.16 0 0 0 4.754-.264 50.277 50.277 0 0 1 3.17-.131c.881-.088 1.541-.176 1.981-.264.441-.087.749-.175.925-.263h.264c.176-.175.836-.964 1.981-2.367a240.973 240.973 0 0 0 4.359-5.128 763.22 763.22 0 0 1 4.622-5.524c1.497-1.753 2.466-2.937 2.906-3.55 6.692-7.89 11.226-13.414 13.604-16.57.616-.877 1.1-1.534 1.453-1.973.352-.438.572-.789.66-1.052.088-.263.132-.526.132-.789 0-.789.308-1.403.925-1.841A2.35 2.35 0 0 1 182.884 1c.264 0 .529.044.793.132.616.263.968.789 1.056 1.578 0 .263-.044.526-.132.789 0 .263-.088.57-.264.92-.616 1.49-2.597 4.384-5.943 8.68-3.258 4.208-8.629 10.695-16.114 19.463a542.126 542.126 0 0 1-4.226 5.26c-1.145 1.315-1.717 2.016-1.717 2.104.088 0 1.013-.044 2.774-.132 1.849-.087 4.138-.219 6.868-.394 18.754-1.14 35.044-2.06 48.868-2.762 3.081-.087 5.371-.175 6.867-.263 1.585-.087 2.73-.131 3.434-.131.793-.088 1.585-.22 2.378-.395.44-.087.836-.131 1.188-.131.265 0 .485.044.661.131.44.088.748.307.924.658.177.35.265.701.265 1.052 0 .175-.044.394-.133.657-.352.526-.968.921-1.849 1.184-.528.088-1.144.22-1.849.395-.704.087-1.805.175-3.302.262-1.408.088-3.478.176-6.207.264-13.384.613-32.271 1.665-56.661 3.156-1.937.087-3.61.175-5.018.263-1.409.087-2.202.175-2.378.263-.088 0-.22.087-.396.263l-.66.657c-.265.351-.705.877-1.321 1.578a64.146 64.146 0 0 1-2.246 2.762c-.968 1.14-2.157 2.543-3.566 4.208-15.144 18.587-27.912 34.762-38.302 48.526-4.49 6.05-8.1 11.047-10.83 14.992-2.73 3.945-4.975 7.496-6.736 10.652a20.91 20.91 0 0 0-1.32 2.236c-.44.613-.749 1.008-.925 1.183-.352.263-.616.395-.792.395h-.529a1.27 1.27 0 0 1-.924-.395Z" fill="#8C00FA"/><path d="M158.455 85.296c0-1.403.353-2.937 1.057-4.603.088-.35.176-.657.264-.92l.132-.395c-.088 0-.264.088-.528.263-.264.175-.572.395-.925.658-4.49 3.156-8.981 5.874-13.471 8.153-3.434 1.754-6.032 2.63-7.793 2.63h-.528c-1.673 0-2.774-.438-3.302-1.315-.352-.614-.528-1.315-.528-2.104 0-.438.044-.92.132-1.447a14.118 14.118 0 0 1 1.453-4.076c1.232-2.455 2.905-4.998 5.019-7.628.528-.613.88-1.096 1.056-1.446.176-.35.264-.614.264-.79 0-1.139 1.013-2.279 3.038-3.418.704-.351 1.321-.526 1.849-.526.705 0 1.189.394 1.453 1.183.088.175.132.35.132.526a.89.89 0 0 1-.264.658c-.176.438-.572 1.008-1.189 1.71a53.028 53.028 0 0 0-6.207 8.021c-1.761 2.718-2.818 4.866-3.17 6.444 0 .263.044.438.132.526h.264c.616 0 1.673-.263 3.17-.789 1.497-.526 3.038-1.227 4.623-2.104 2.993-1.578 6.075-3.463 9.245-5.655 3.258-2.192 5.943-4.208 8.056-6.05 2.554-2.191 4.183-3.33 4.887-3.418h.264c.529 0 .969.175 1.321.526.352.35.528.789.528 1.315v.394c-.088.175-.264.482-.528.92-.176.351-.396.746-.66 1.184-3.522 5.085-5.327 8.943-5.415 11.573 0 1.753.308 2.674.924 2.761h1.189c.968 0 2.069-.306 3.302-.92 1.409-.79 2.553-1.49 3.434-2.104.176-.088.308-.132.396-.132a216.538 216.538 0 0 0 13.604-9.6c1.585-1.052 2.729-1.578 3.434-1.578.176 0 .352.044.528.132.176.087.264.263.264.526 0 .614-.792 1.666-2.377 3.156a152.076 152.076 0 0 1-14 10.389c-1.673 1.14-3.39 2.016-5.151 2.63-1.673.614-3.038.92-4.095.92-.968 0-1.849-.175-2.641-.525-1.673-.614-2.553-2.499-2.642-5.655Z" fill="#8C00FA"/><path d="m172.197 86.216 2.773-3.55c1.145-1.578 2.245-2.937 3.302-4.077.528-.614 1.321-1.578 2.377-2.893a165.565 165.565 0 0 0 3.434-4.077c1.673-2.192 2.906-3.77 3.699-4.734a99.36 99.36 0 0 1 1.717-2.236l1.056-1.578c.793-1.14 1.365-1.71 1.717-1.71.352-.087.572-.13.661-.13.528 0 .924.262 1.188.788.088.175.132.395.132.658 0 .438-.132.964-.396 1.578-.176.35-.484.877-.924 1.578l-1.321 1.841c-.44.614-.793 1.096-1.057 1.447l-.264.263c.352-.088.66-.132.925-.132.88 0 1.628.263 2.245.79.968.613 1.673 1.49 2.113 2.63.881 2.191 2.157 3.287 3.83 3.287h.396c1.761-.175 3.699-.877 5.812-2.104.88-.526 1.629-.79 2.245-.79h.396c.529.088.793.44.793 1.053 0 .614-.308 1.227-.925 1.84-.968.965-2.289 1.754-3.962 2.368-1.849.701-3.522 1.052-5.019 1.052-.44 0-.88-.044-1.321-.131-1.937-.351-3.566-1.535-4.886-3.551a6.837 6.837 0 0 1-.661-1.052c-.352-.79-.704-1.184-1.056-1.184-.265-.087-.441-.131-.529-.131-.528 0-1.277.307-2.245.92-1.585 1.052-3.346 2.63-5.283 4.735-1.849 2.104-3.39 3.945-4.623 5.523-.352.438-.748.964-1.188 1.578-.353.438-.705.92-1.057 1.447-.352.438-.616.745-.792.92-.969 1.052-1.806 1.578-2.51 1.578h-.132c-.704 0-1.101-.219-1.189-.657-.088-.526-.132-.877-.132-1.053 0-.613.22-1.314.661-2.104Z" fill="#8C00FA"/><path d="M200.994 90.556c-2.465-.876-3.83-1.972-4.094-3.287-.264-1.403-.352-2.587-.264-3.551.088-1.052.396-2.192.924-3.42 1.585-3.419 3.875-6.487 6.868-9.205 2.994-2.718 5.812-4.734 8.453-6.05a11.161 11.161 0 0 1 3.302-1.051 8.721 8.721 0 0 1 2.113-.263c1.233 0 2.246.263 3.038.789 1.497.701 2.201 1.446 2.113 2.235v1.052c-.176 1.403-1.232 2.806-3.17 4.209-3.786 2.542-7.704 3.813-11.754 3.813-1.233 0-2.466-.087-3.698-.263-1.673 1.49-2.818 3.025-3.434 4.603-.617 1.578-.925 2.63-.925 3.156-.176 1.49.308 2.674 1.453 3.551.88.438 2.025.657 3.434.657h1.321c1.937-.087 3.566-.306 4.886-.657 4.139-.877 9.026-2.542 14.661-4.997 1.761-.79 3.038-1.447 3.83-1.973 1.497-.789 2.598-1.183 3.302-1.183h.396c.529.175.749.526.661 1.052 0 .175-.044.35-.132.526-.353.789-1.145 1.621-2.378 2.498-1.233.702-2.95 1.535-5.151 2.499-6.692 2.98-12.283 4.778-16.773 5.392-1.673.263-3.214.394-4.623.394-1.673 0-3.126-.175-4.359-.526Zm9.378-18.016c1.585-.176 3.258-.658 5.019-1.447l1.849-1.052c1.409-.877 2.113-1.534 2.113-1.972.088-.088.088-.176 0-.264-.264-.35-.748-.526-1.453-.526-.352 0-.792.044-1.321.132-1.32.263-2.949 1.052-4.886 2.367-.617.35-1.233.79-1.85 1.315-1.056.79-1.628 1.315-1.716 1.578 0 .088.132.132.396.132.352 0 .968-.088 1.849-.263Z" fill="#8C00FA"/><path d="M227.151 129.745c-.793-.35-1.189-.92-1.189-1.709 0-.263.044-.526.132-.789.352-1.052 1.585-3.288 3.698-6.707s4.579-7.102 7.396-11.047c8.277-11.748 17.567-24.416 27.868-38.005 10.39-13.677 19.063-24.767 26.019-33.272.529-.613.969-1.14 1.321-1.578.352-.438.528-.701.528-.789-.088 0-1.496 1.228-4.226 3.683a7246.586 7246.586 0 0 0-10.83 9.731 5136.864 5136.864 0 0 1-16.642 15.123c-3.698 3.42-6.824 6.181-9.377 8.285-11.094 9.293-19.327 15.123-24.698 17.49-1.409.614-2.642.921-3.698.921A3.891 3.891 0 0 1 222 90.82c-1.321-.614-1.981-1.622-1.981-3.025 0-.964.308-2.104.924-3.419 1.673-2.98 4.183-6.049 7.528-9.205 3.346-3.156 6.428-5.392 9.246-6.707a13.417 13.417 0 0 1 5.547-1.183h.66c2.202 0 3.566 1.183 4.095 3.55l2.641-2.236c4.403-3.77 11.447-10.082 21.132-18.936 4.403-4.033 7.793-7.102 10.17-9.206a456.63 456.63 0 0 1 8.057-7.233c5.283-4.734 9.773-8.68 13.472-11.835 3.698-3.157 5.811-4.91 6.339-5.26.528-.264.969-.395 1.321-.395.44 0 .792.131 1.057.394.528.351.792.92.792 1.71v.394c0 .176-.396.746-1.189 1.71-.792.877-2.113 2.41-3.962 4.603-10.742 12.098-22.717 26.871-35.925 44.318a1732.145 1732.145 0 0 0-19.415 26.038c-6.868 9.381-11.71 16.088-14.528 20.12-4.667 7.014-7.176 11.179-7.528 12.494-.176.964-.529 1.622-1.057 1.972-.528.263-.969.395-1.321.395s-.66-.044-.924-.132Zm-.793-43.397c2.642-1.227 6.296-3.55 10.963-6.97.968-.789 2.025-1.622 3.169-2.499a66.36 66.36 0 0 0 3.038-2.498c.881-.702 1.365-1.096 1.453-1.184l-.396-.394c-.176-.176-.264-.526-.264-1.052 0-.614-.221-.92-.661-.92h-.792c-.441 0-.881.043-1.321.13-.704.176-1.233.351-1.585.527-3.434 1.402-7.176 4.34-11.226 8.81a75.63 75.63 0 0 0-2.114 2.762c-.704.877-1.276 1.71-1.717 2.499-.528.701-.792 1.184-.792 1.447h.132c.264 0 .969-.22 2.113-.658Z" fill="#8C00FA"/><path d="M8.132 115.805c5.9-12.449 13.868-25.337 23.906-38.663l3.038-4.076-.265-.395c-.704-.964-1.056-1.885-1.056-2.761 0-.877.264-1.49.792-1.841a2.352 2.352 0 0 1 1.057-.264c.616 0 1.233.351 1.849 1.052l.66.527 2.51-3.025a124.44 124.44 0 0 1 2.641-3.156 69.86 69.86 0 0 1 3.038-3.55c5.019-5.875 9.95-11.267 14.792-16.176 4.931-4.997 8.19-7.978 9.774-8.943a2.353 2.353 0 0 1 1.057-.263c.264 0 .528.088.792.263.529.263.793.745.793 1.447 0 .35-.089.657-.265.92-.088.176-.352.395-.792.658-1.233.877-3.346 2.805-6.34 5.786-2.905 2.981-6.163 6.488-9.773 10.52a338.701 338.701 0 0 0-7.132 8.154 364.624 364.624 0 0 0-6.076 7.102c-1.673 2.016-2.51 3.112-2.51 3.287 0 .088.485.263 1.454.526 1.056.263 2.2.482 3.434.658.704.088 1.54.175 2.509.263h3.962c3.082 0 5.724-.132 7.925-.395 2.201-.35 4.622-.92 7.264-1.71.968-.35 1.805-.525 2.51-.525.44 0 .792.087 1.056.263.44.175.66.482.66.92v.395c-.176.613-.704 1.183-1.585 1.71-1.937 1.051-4.402 1.84-7.396 2.366-2.993.526-5.503.79-7.528.79h-3.83c-2.818 0-5.371-.176-7.66-.526a9.197 9.197 0 0 1-1.057-.264h-.397v.132c0 .088.044.22.133.395.088.262.22.613.396 1.051 1.76 3.683 2.641 7.716 2.641 12.1 0 4.12-.792 8.547-2.377 13.281-3.874 11.31-10.434 21.655-19.68 31.036-1.76 1.841-3.83 3.638-6.207 5.392-2.377 1.753-4.447 2.981-6.207 3.682C8.88 144.649 7.428 145 6.283 145c-.88 0-1.673-.175-2.377-.526-1.85-1.052-2.774-2.236-2.774-3.551-.088-1.402-.132-2.191-.132-2.367 0-2.279.396-4.822 1.189-7.627.88-3.069 1.893-5.918 3.037-8.548 1.145-2.718 2.07-4.822 2.774-6.313 0-.087.044-.175.132-.263Zm12.944 15.781c8.012-8.504 13.867-17.622 17.566-27.353 1.76-4.997 2.641-9.6 2.641-13.808 0-2.806-.396-5.392-1.189-7.76-.176-.613-.484-1.358-.924-2.235a14.872 14.872 0 0 0-1.189-2.367c-.352-.789-.572-1.227-.66-1.315-.088 0-.44.35-1.057 1.052a93.161 93.161 0 0 0-1.98 2.762c-10.479 13.94-18.712 27.704-24.7 41.293-.527 1.052-1.32 2.981-2.376 5.786-1.057 2.718-1.761 4.954-2.114 6.707-.352 1.753-.528 2.981-.528 3.682 0 1.403.396 2.411 1.189 3.025.352.175.748.263 1.188.263 1.057 0 2.29-.439 3.699-1.315a40.586 40.586 0 0 0 6.075-4.34c1.937-1.753 3.39-3.112 4.359-4.077Z" stroke="#000" stroke-width="2" mask="url(#a)"/><path d="M60.836 90.556c-2.466-.876-3.83-1.972-4.095-3.287-.264-1.403-.352-2.587-.264-3.551.088-1.052.396-2.192.925-3.42 1.585-3.419 3.874-6.487 6.868-9.205 2.993-2.718 5.81-4.734 8.452-6.05a11.16 11.16 0 0 1 3.302-1.051 8.717 8.717 0 0 1 2.114-.263c1.232 0 2.245.263 3.037.789 1.497.701 2.201 1.446 2.114 2.235v1.052c-.177 1.403-1.233 2.806-3.17 4.209-3.787 2.542-7.705 3.813-11.755 3.813-1.233 0-2.466-.087-3.698-.263-1.673 1.49-2.818 3.025-3.434 4.603-.617 1.578-.925 2.63-.925 3.156-.176 1.49.308 2.674 1.453 3.551.88.438 2.025.657 3.434.657h1.32c1.938-.087 3.567-.306 4.888-.657 4.138-.877 9.025-2.542 14.66-4.997 1.761-.79 3.038-1.447 3.83-1.973 1.497-.789 2.598-1.183 3.302-1.183h.396c.529.175.749.526.66 1.052 0 .175-.043.35-.131.526-.353.789-1.145 1.621-2.378 2.498-1.232.702-2.95 1.535-5.15 2.499-6.692 2.98-12.284 4.778-16.774 5.392-1.673.263-3.214.394-4.623.394-1.673 0-3.126-.175-4.358-.526Zm9.377-18.016c1.585-.176 3.258-.658 5.019-1.447l1.849-1.052c1.409-.877 2.113-1.534 2.113-1.972.088-.088.088-.176 0-.264-.264-.35-.748-.526-1.453-.526-.352 0-.792.044-1.32.132-1.321.263-2.95 1.052-4.887 2.367-.617.35-1.233.79-1.85 1.315-1.056.79-1.628 1.315-1.716 1.578 0 .088.132.132.396.132.352 0 .968-.088 1.849-.263Z" stroke="#000" stroke-width="2" mask="url(#a)"/><path d="M82.501 91.214c-1.76-.614-2.641-1.754-2.641-3.42 0-.788.22-1.71.66-2.761.88-2.104 2.73-4.647 5.547-7.627a67.532 67.532 0 0 1 9.114-8.285c4.93-3.595 8.937-5.392 12.018-5.392 1.233 0 2.334.307 3.302.92.793.702 1.233 1.666 1.321 2.894v.657l.264.526.397.395c.528.438.792.876.792 1.315v.394a8.19 8.19 0 0 1-1.057 1.578c-1.937 2.455-3.39 5.041-4.358 7.76-.44 1.051-.661 1.928-.661 2.63 0 1.314.749 1.972 2.246 1.972h.792c1.409-.175 3.082-.658 5.019-1.447a30.522 30.522 0 0 0 5.811-3.024c2.554-1.666 4.667-3.244 6.34-4.735 1.233-.964 2.157-1.446 2.774-1.446.176 0 .352.044.528.131.264.176.396.439.396.79 0 .525-.308 1.227-.924 2.103a24.537 24.537 0 0 1-7.264 6.181c-1.938 1.315-4.183 2.543-6.736 3.683-2.554 1.052-4.755 1.578-6.604 1.578a9.257 9.257 0 0 1-2.245-.264c-2.554-.964-3.831-2.805-3.831-5.523 0-.438.044-.92.132-1.446.088-.351.133-.658.133-.92l.132-.264c0-.088-.044-.131-.132-.131l-.925.657a77.186 77.186 0 0 0-2.509 1.973c-5.548 4.12-9.906 6.75-13.076 7.89-.88.35-1.629.57-2.245.658-.705.087-1.233.131-1.585.131-.352 0-.66-.044-.925-.131Zm3.963-4.34c2.905-1.14 6.868-3.594 11.886-7.364 1.145-.877 2.642-2.148 4.491-3.814 1.849-1.666 3.214-3.156 4.094-4.471.881-1.403 1.321-2.455 1.321-3.156v-.264c-.176-.438-.528-.657-1.057-.657h-.528c-.792.175-1.717.526-2.773 1.052a27.6 27.6 0 0 0-2.774 1.315c-3.17 1.929-6.516 4.603-10.038 8.022-3.434 3.42-5.767 6.312-7 8.68-.264.613-.396 1.008-.396 1.183 0 .088.088.131.264.131h.396a9.165 9.165 0 0 1 1.057-.263 5.18 5.18 0 0 0 1.057-.394Z" stroke="#000" stroke-width="2" mask="url(#a)"/><path d="M84.62 131.06c-.352-.263-.529-.657-.529-1.183 0-.614.265-1.447.793-2.499 3.786-7.452 15.277-23.408 34.472-47.868 3.874-4.998 8.365-10.653 13.471-16.965 5.107-6.4 9.422-11.704 12.944-15.912l1.981-2.367-2.377.131c-.617.088-1.541.176-2.774.263-1.233 0-2.465.044-3.698.132-4.138.263-8.629.482-13.472.657-4.754.176-8.188.307-10.302.395h-2.377c-.616-.088-1.013-.132-1.189-.132a2.181 2.181 0 0 0-.66-.131c-.528-.35-.793-.702-.793-1.052v-.658c0-.526.177-.92.529-1.183.352-.263.88-.439 1.585-.526.616-.088 1.056-.132 1.32-.132.353 0 .661.044.925.132h2.641c1.497 0 4.051-.088 7.661-.263 3.698-.176 8.805-.483 15.321-.92a192.16 192.16 0 0 0 4.754-.264 50.277 50.277 0 0 1 3.17-.131c.881-.088 1.541-.176 1.981-.264.441-.087.749-.175.925-.263h.264c.176-.175.836-.964 1.981-2.367a240.973 240.973 0 0 0 4.359-5.128 763.22 763.22 0 0 1 4.622-5.524c1.497-1.753 2.466-2.937 2.906-3.55 6.692-7.89 11.226-13.414 13.604-16.57.616-.877 1.1-1.534 1.453-1.973.352-.438.572-.789.66-1.052.088-.263.132-.526.132-.789 0-.789.308-1.403.925-1.841A2.35 2.35 0 0 1 182.884 1c.264 0 .529.044.793.132.616.263.968.789 1.056 1.578 0 .263-.044.526-.132.789 0 .263-.088.57-.264.92-.616 1.49-2.597 4.384-5.943 8.68-3.258 4.208-8.629 10.695-16.114 19.463a542.126 542.126 0 0 1-4.226 5.26c-1.145 1.315-1.717 2.016-1.717 2.104.088 0 1.013-.044 2.774-.132 1.849-.087 4.138-.219 6.868-.394 18.754-1.14 35.044-2.06 48.868-2.762 3.081-.087 5.371-.175 6.867-.263 1.585-.087 2.73-.131 3.434-.131.793-.088 1.585-.22 2.378-.395.44-.087.836-.131 1.188-.131.265 0 .485.044.661.131.44.088.748.307.924.658.177.35.265.701.265 1.052 0 .175-.044.394-.133.657-.352.526-.968.921-1.849 1.184-.528.088-1.144.22-1.849.395-.704.087-1.805.175-3.302.262-1.408.088-3.478.176-6.207.264-13.384.613-32.271 1.665-56.661 3.156-1.937.087-3.61.175-5.018.263-1.409.087-2.202.175-2.378.263-.088 0-.22.087-.396.263l-.66.657c-.265.351-.705.877-1.321 1.578a64.146 64.146 0 0 1-2.246 2.762c-.968 1.14-2.157 2.543-3.566 4.208-15.144 18.587-27.912 34.762-38.302 48.526-4.49 6.05-8.1 11.047-10.83 14.992-2.73 3.945-4.975 7.496-6.736 10.652a20.91 20.91 0 0 0-1.32 2.236c-.44.613-.749 1.008-.925 1.183-.352.263-.616.395-.792.395h-.529a1.27 1.27 0 0 1-.924-.395Z" stroke="#000" stroke-width="2" mask="url(#a)"/><path d="M158.455 85.296c0-1.403.353-2.937 1.057-4.603.088-.35.176-.657.264-.92l.132-.395c-.088 0-.264.088-.528.263-.264.175-.572.395-.925.658-4.49 3.156-8.981 5.874-13.471 8.153-3.434 1.754-6.032 2.63-7.793 2.63h-.528c-1.673 0-2.774-.438-3.302-1.315-.352-.614-.528-1.315-.528-2.104 0-.438.044-.92.132-1.447a14.118 14.118 0 0 1 1.453-4.076c1.232-2.455 2.905-4.998 5.019-7.628.528-.613.88-1.096 1.056-1.446.176-.35.264-.614.264-.79 0-1.139 1.013-2.279 3.038-3.418.704-.351 1.321-.526 1.849-.526.705 0 1.189.394 1.453 1.183.088.175.132.35.132.526a.89.89 0 0 1-.264.658c-.176.438-.572 1.008-1.189 1.71a53.028 53.028 0 0 0-6.207 8.021c-1.761 2.718-2.818 4.866-3.17 6.444 0 .263.044.438.132.526h.264c.616 0 1.673-.263 3.17-.789 1.497-.526 3.038-1.227 4.623-2.104 2.993-1.578 6.075-3.463 9.245-5.655 3.258-2.192 5.943-4.208 8.056-6.05 2.554-2.191 4.183-3.33 4.887-3.418h.264c.529 0 .969.175 1.321.526.352.35.528.789.528 1.315v.394c-.088.175-.264.482-.528.92-.176.351-.396.746-.66 1.184-3.522 5.085-5.327 8.943-5.415 11.573 0 1.753.308 2.674.924 2.761h1.189c.968 0 2.069-.306 3.302-.92 1.409-.79 2.553-1.49 3.434-2.104.176-.088.308-.132.396-.132a216.538 216.538 0 0 0 13.604-9.6c1.585-1.052 2.729-1.578 3.434-1.578.176 0 .352.044.528.132.176.087.264.263.264.526 0 .614-.792 1.666-2.377 3.156a152.076 152.076 0 0 1-14 10.389c-1.673 1.14-3.39 2.016-5.151 2.63-1.673.614-3.038.92-4.095.92-.968 0-1.849-.175-2.641-.525-1.673-.614-2.553-2.499-2.642-5.655Z" stroke="#000" stroke-width="2" mask="url(#a)"/><path d="m172.197 86.216 2.773-3.55c1.145-1.578 2.245-2.937 3.302-4.077.528-.614 1.321-1.578 2.377-2.893a165.565 165.565 0 0 0 3.434-4.077c1.673-2.192 2.906-3.77 3.699-4.734a99.36 99.36 0 0 1 1.717-2.236l1.056-1.578c.793-1.14 1.365-1.71 1.717-1.71.352-.087.572-.13.661-.13.528 0 .924.262 1.188.788.088.175.132.395.132.658 0 .438-.132.964-.396 1.578-.176.35-.484.877-.924 1.578l-1.321 1.841c-.44.614-.793 1.096-1.057 1.447l-.264.263c.352-.088.66-.132.925-.132.88 0 1.628.263 2.245.79.968.613 1.673 1.49 2.113 2.63.881 2.191 2.157 3.287 3.83 3.287h.396c1.761-.175 3.699-.877 5.812-2.104.88-.526 1.629-.79 2.245-.79h.396c.529.088.793.44.793 1.053 0 .614-.308 1.227-.925 1.84-.968.965-2.289 1.754-3.962 2.368-1.849.701-3.522 1.052-5.019 1.052-.44 0-.88-.044-1.321-.131-1.937-.351-3.566-1.535-4.886-3.551a6.837 6.837 0 0 1-.661-1.052c-.352-.79-.704-1.184-1.056-1.184-.265-.087-.441-.131-.529-.131-.528 0-1.277.307-2.245.92-1.585 1.052-3.346 2.63-5.283 4.735-1.849 2.104-3.39 3.945-4.623 5.523-.352.438-.748.964-1.188 1.578-.353.438-.705.92-1.057 1.447-.352.438-.616.745-.792.92-.969 1.052-1.806 1.578-2.51 1.578h-.132c-.704 0-1.101-.219-1.189-.657-.088-.526-.132-.877-.132-1.053 0-.613.22-1.314.661-2.104Z" stroke="#000" stroke-width="2" mask="url(#a)"/><path d="M200.994 90.556c-2.465-.876-3.83-1.972-4.094-3.287-.264-1.403-.352-2.587-.264-3.551.088-1.052.396-2.192.924-3.42 1.585-3.419 3.875-6.487 6.868-9.205 2.994-2.718 5.812-4.734 8.453-6.05a11.161 11.161 0 0 1 3.302-1.051 8.721 8.721 0 0 1 2.113-.263c1.233 0 2.246.263 3.038.789 1.497.701 2.201 1.446 2.113 2.235v1.052c-.176 1.403-1.232 2.806-3.17 4.209-3.786 2.542-7.704 3.813-11.754 3.813-1.233 0-2.466-.087-3.698-.263-1.673 1.49-2.818 3.025-3.434 4.603-.617 1.578-.925 2.63-.925 3.156-.176 1.49.308 2.674 1.453 3.551.88.438 2.025.657 3.434.657h1.321c1.937-.087 3.566-.306 4.886-.657 4.139-.877 9.026-2.542 14.661-4.997 1.761-.79 3.038-1.447 3.83-1.973 1.497-.789 2.598-1.183 3.302-1.183h.396c.529.175.749.526.661 1.052 0 .175-.044.35-.132.526-.353.789-1.145 1.621-2.378 2.498-1.233.702-2.95 1.535-5.151 2.499-6.692 2.98-12.283 4.778-16.773 5.392-1.673.263-3.214.394-4.623.394-1.673 0-3.126-.175-4.359-.526Zm9.378-18.016c1.585-.176 3.258-.658 5.019-1.447l1.849-1.052c1.409-.877 2.113-1.534 2.113-1.972.088-.088.088-.176 0-.264-.264-.35-.748-.526-1.453-.526-.352 0-.792.044-1.321.132-1.32.263-2.949 1.052-4.886 2.367-.617.35-1.233.79-1.85 1.315-1.056.79-1.628 1.315-1.716 1.578 0 .088.132.132.396.132.352 0 .968-.088 1.849-.263Z" stroke="#000" stroke-width="2" mask="url(#a)"/><path d="M227.151 129.745c-.793-.35-1.189-.92-1.189-1.709 0-.263.044-.526.132-.789.352-1.052 1.585-3.288 3.698-6.707s4.579-7.102 7.396-11.047c8.277-11.748 17.567-24.416 27.868-38.005 10.39-13.677 19.063-24.767 26.019-33.272.529-.613.969-1.14 1.321-1.578.352-.438.528-.701.528-.789-.088 0-1.496 1.228-4.226 3.683a7246.586 7246.586 0 0 0-10.83 9.731 5136.864 5136.864 0 0 1-16.642 15.123c-3.698 3.42-6.824 6.181-9.377 8.285-11.094 9.293-19.327 15.123-24.698 17.49-1.409.614-2.642.921-3.698.921A3.891 3.891 0 0 1 222 90.82c-1.321-.614-1.981-1.622-1.981-3.025 0-.964.308-2.104.924-3.419 1.673-2.98 4.183-6.049 7.528-9.205 3.346-3.156 6.428-5.392 9.246-6.707a13.417 13.417 0 0 1 5.547-1.183h.66c2.202 0 3.566 1.183 4.095 3.55l2.641-2.236c4.403-3.77 11.447-10.082 21.132-18.936 4.403-4.033 7.793-7.102 10.17-9.206a456.63 456.63 0 0 1 8.057-7.233c5.283-4.734 9.773-8.68 13.472-11.835 3.698-3.157 5.811-4.91 6.339-5.26.528-.264.969-.395 1.321-.395.44 0 .792.131 1.057.394.528.351.792.92.792 1.71v.394c0 .176-.396.746-1.189 1.71-.792.877-2.113 2.41-3.962 4.603-10.742 12.098-22.717 26.871-35.925 44.318a1732.145 1732.145 0 0 0-19.415 26.038c-6.868 9.381-11.71 16.088-14.528 20.12-4.667 7.014-7.176 11.179-7.528 12.494-.176.964-.529 1.622-1.057 1.972-.528.263-.969.395-1.321.395s-.66-.044-.924-.132Zm-.793-43.397c2.642-1.227 6.296-3.55 10.963-6.97.968-.789 2.025-1.622 3.169-2.499a66.36 66.36 0 0 0 3.038-2.498c.881-.702 1.365-1.096 1.453-1.184l-.396-.394c-.176-.176-.264-.526-.264-1.052 0-.614-.221-.92-.661-.92h-.792c-.441 0-.881.043-1.321.13-.704.176-1.233.351-1.585.527-3.434 1.402-7.176 4.34-11.226 8.81a75.63 75.63 0 0 0-2.114 2.762c-.704.877-1.276 1.71-1.717 2.499-.528.701-.792 1.184-.792 1.447h.132c.264 0 .969-.22 2.113-.658Z" stroke="#000" stroke-width="2" mask="url(#a)"/></svg>