<svg width="36" height="37" fill="none" xmlns="http://www.w3.org/2000/svg">
<path fill-rule="evenodd" clip-rule="evenodd" d="M24.5 34.858V28.44c0-1.833.183-2.567-.917-3.667 5.134-.55 10.084-2.566 10.084-11a8.433 8.433 0 0 0-2.384-5.866A7.7 7.7 0 0 0 31.1 2.04s-2.017-.55-6.417 2.383a22.55 22.55 0 0 0-11.366 0C8.917 1.491 6.9 2.041 6.9 2.041a7.7 7.7 0 0 0-.183 5.867 8.433 8.433 0 0 0-2.384 5.866c0 8.434 4.95 10.45 10.084 11-1.1 1.1-1.1 2.2-.917 3.667v6.417" fill="#FFF8EB"/><path d="M23 34.858a1.5 1.5 0 0 0 3 0h-3Zm.583-10.084-.16-1.491a1.5 1.5 0 0 0-.9 2.552l1.06-1.06Zm10.084-11h1.5v-.001l-1.5.001Zm-2.384-5.866-1.404-.529a1.5 1.5 0 0 0 .328 1.574l1.076-1.045ZM31.1 2.04l1.368-.615a1.5 1.5 0 0 0-.973-.832L31.1 2.04Zm-6.417 2.383-.378 1.452a1.5 1.5 0 0 0 1.21-.204l-.832-1.248Zm-11.366 0-.832 1.248a1.5 1.5 0 0 0 1.21.204l-.378-1.452ZM6.9 2.041 6.505.594a1.5 1.5 0 0 0-.973.832l1.368.615Zm-.183 5.867 1.076 1.045a1.5 1.5 0 0 0 .328-1.574l-1.404.529Zm-2.384 5.866-1.5-.001v.001h1.5Zm10.084 11 1.06 1.06a1.5 1.5 0 0 0-.9-2.551l-.16 1.491Zm-.917 3.667H15c0-.062-.004-.124-.012-.186l-1.488.186ZM12 34.858a1.5 1.5 0 0 0 3 0h-3Zm1.13-1.932a1.5 1.5 0 0 0-.928-2.852l.929 2.852ZM2.09 24.561a1.5 1.5 0 1 0-.847 2.878l.847-2.878ZM26 34.858V28.44h-3v6.417h3Zm0-6.417c0-.751.053-1.642-.066-2.355-.151-.906-.556-1.638-1.29-2.372l-2.121 2.12c.366.367.42.552.451.745.026.15.037.349.037.67 0 .159-.002.33-.005.531-.003.198-.006.42-.006.66h3Zm-2.257-2.175c2.667-.286 5.56-.972 7.789-2.901 2.292-1.985 3.635-5.064 3.635-9.59h-3c0 3.906-1.133 6.052-2.599 7.321-1.53 1.326-3.678 1.922-6.145 2.187l.32 2.983Zm11.424-12.493a9.933 9.933 0 0 0-2.808-6.91l-2.152 2.09a6.934 6.934 0 0 1 1.96 4.823l3-.003Zm-2.48-5.337a9.2 9.2 0 0 0-.219-7.01l-2.736 1.23a6.2 6.2 0 0 1 .147 4.723l2.808 1.057ZM31.1 2.04c.395-1.447.393-1.448.392-1.448a.157.157 0 0 1-.009-.002.79.79 0 0 0-.038-.01 2.106 2.106 0 0 0-.224-.042A3.87 3.87 0 0 0 30.75.5a6.536 6.536 0 0 0-1.526.166c-1.274.277-3.05.961-5.372 2.51l1.664 2.495c2.078-1.385 3.51-1.892 4.345-2.074.417-.09.689-.1.823-.098a.939.939 0 0 1 .105.007l-.019-.003a.87.87 0 0 1-.044-.01l-.01-.003-.005-.002h-.002c-.001 0-.003-.001.392-1.448Zm-6.039.932a24.05 24.05 0 0 0-12.123 0l.757 2.903a21.05 21.05 0 0 1 10.61 0l.756-2.903Zm-10.912.203C11.827 1.628 10.05.944 8.777.666A6.536 6.536 0 0 0 7.25.502a3.87 3.87 0 0 0-.633.066 2.107 2.107 0 0 0-.106.025l-.003.001c-.001 0-.003 0 .392 1.448.395 1.447.393 1.447.392 1.448a.287.287 0 0 1-.018.004 1.252 1.252 0 0 1-.043.01c-.014.004-.02.004-.019.004a.938.938 0 0 1 .105-.007c.134-.003.406.008.823.098.834.182 2.266.689 4.345 2.074l1.664-2.496Zm-8.617-1.75a9.2 9.2 0 0 0-.22 7.01l2.809-1.057a6.2 6.2 0 0 1 .147-4.723l-2.736-1.23Zm.109 5.437a9.933 9.933 0 0 0-2.808 6.91l3 .003a6.934 6.934 0 0 1 1.96-4.823L5.64 6.863Zm-2.808 6.911c0 4.527 1.343 7.606 3.635 9.59 2.228 1.93 5.122 2.616 7.789 2.902l.32-2.983c-2.467-.265-4.615-.861-6.145-2.187-1.466-1.269-2.599-3.415-2.599-7.322h-3Zm10.523 9.94c-.75.75-1.178 1.566-1.352 2.473-.163.846-.086 1.691.008 2.44l2.976-.372c-.09-.718-.104-1.156-.038-1.502.055-.285.177-.568.527-.918l-2.121-2.121ZM12 28.44v6.417h3V28.44h-3Zm.202 1.633c-1.78.58-2.945.556-3.738.334-.783-.22-1.384-.682-1.953-1.336-.65-.748-1.021-1.42-1.714-2.357-.586-.793-1.421-1.776-2.707-2.154l-.847 2.878c.273.08.606.334 1.143 1.06.43.582 1.136 1.708 1.861 2.542.806.927 1.878 1.828 3.41 2.256 1.52.425 3.312.333 5.474-.37l-.929-2.853Z" fill="#343434"/></svg>