<svg width="27" height="48" viewBox="0 0 27 48" fill="none" xmlns="http://www.w3.org/2000/svg">
<path d="M23.4345 0.0937514C24.1323 0.0897346 24.8275 -0.068262 25.52 0.0790229C28.5859 0.350831 31.6089 1.19303 34.336 2.62839C37.8641 4.43464 40.8992 7.18084 43.1011 10.472C45.3473 13.8194 46.6772 17.7613 46.9772 21.7781C46.9278 22.8412 46.8969 23.9111 47 24.9715C46.7805 28.0257 46.0155 31.0544 44.6521 33.8046C43.0972 37.0007 40.7945 39.8286 37.9912 42.0137C34.498 44.7519 30.2118 46.4644 25.7891 46.8703C25.1155 46.9185 24.4428 47.043 23.7653 46.9908C23.3165 46.9612 22.8571 47.1046 22.4259 46.921C24.0776 42.2763 25.7276 37.63 27.3938 32.9892C29.2073 32.9557 31.0223 33.0012 32.8358 32.9678C33.9932 32.9276 35.137 32.2232 35.5174 31.0986C37.0511 26.7818 38.6235 22.4771 40.109 18.1415C40.3527 17.4868 40.488 16.757 40.2938 16.0715C40.0313 15.2025 39.2358 14.5879 38.3811 14.3576C37.6392 14.1273 36.8554 14.2117 36.092 14.1983C33.7641 14.1916 31.4362 14.2103 29.1096 14.1876C29.0721 14.2652 28.9956 14.4192 28.9583 14.4955C25.189 25.0786 21.4267 35.6645 17.6428 46.2421C13.7559 45.2339 10.1341 43.2148 7.24627 40.4244C3.76779 37.097 1.35281 32.6718 0.459421 27.9413C0.179482 26.5207 0.0776864 25.0746 0 23.6326C0.0629528 20.6293 0.55586 17.6126 1.68767 14.8196C4.44822 7.76462 10.8359 2.2093 18.2617 0.621299C14.4604 11.1575 10.7475 21.7259 6.94757 32.2635C7.19001 32.3371 7.4445 32.309 7.69363 32.3115C9.07859 32.3048 10.4649 32.3143 11.8499 32.3089C12.0387 32.3075 12.0186 32.0451 12.0976 31.9246C13.7666 27.2141 15.4556 22.5104 17.1298 17.8026C17.2303 17.5107 17.3241 17.2162 17.458 16.939C18.326 16.9537 19.1939 16.935 20.0618 16.9484C18.2416 22.0511 16.4374 27.1619 14.5903 32.2552C14.7832 32.3328 14.9935 32.3087 15.1957 32.3129C16.6503 32.2994 18.105 32.3221 19.5596 32.3022C21.203 27.6654 22.8666 23.0366 24.5142 18.4025C24.8663 17.4545 24.8972 16.3338 24.3374 15.4595C23.8485 14.6855 22.9203 14.316 22.0349 14.2798C20.8241 14.2437 19.6119 14.2825 18.3998 14.2611C20.0659 9.53472 21.7817 4.82562 23.4345 0.0937514Z" fill="white"/>
<path d="M33.0852 16.9994C33.2297 16.836 33.487 16.9351 33.6797 16.907C34.3521 16.9191 35.0244 16.9016 35.697 16.9164C34.1311 21.3845 32.4917 25.8271 30.9513 30.3046C30.0807 30.3662 29.2034 30.3287 28.3314 30.3233C29.9213 25.8847 31.4951 21.4394 33.0852 16.9994Z" fill="white"/>
</svg>
