<svg width="69" height="68" fill="none" xmlns="http://www.w3.org/2000/svg"><g style="mix-blend-mode:saturation" fill="#fff"><path d="M34.776.112c1.01-.006 2.015-.234 3.017-.021 4.436.393 8.81 1.611 12.755 3.688 5.105 2.613 9.496 6.587 12.682 11.348 3.25 4.843 5.174 10.546 5.608 16.358-.072 1.538-.117 3.086.033 4.62-.318 4.42-1.425 8.801-3.397 12.78a33.99 33.99 0 0 1-9.637 11.877c-5.054 3.962-11.256 6.44-17.655 7.027-.974.07-1.947.25-2.928.174-.649-.043-1.314.165-1.937-.101 2.39-6.72 4.776-13.442 7.187-20.157 2.624-.048 5.25.018 7.874-.03 1.674-.059 3.33-1.078 3.88-2.705 2.218-6.245 4.493-12.474 6.643-18.746.352-.948.548-2.003.267-2.995-.38-1.258-1.53-2.147-2.767-2.48-1.074-.333-2.208-.211-3.312-.23-3.368-.01-6.736.017-10.102-.016l-.22.446c-5.453 15.311-10.896 30.627-16.37 45.93-5.624-1.458-10.864-4.38-15.042-8.416-5.033-4.815-8.527-11.217-9.82-18.06-.405-2.056-.552-4.148-.664-6.235.09-4.345.804-8.71 2.441-12.75C7.306 11.21 16.548 3.172 27.292.874c-5.5 15.244-10.872 30.535-16.37 45.78.351.107.72.066 1.08.07 2.004-.01 4.01.004 6.013-.004.273-.002.244-.382.359-.556 2.414-6.815 4.858-13.62 7.28-20.432.146-.422.281-.848.475-1.25 1.256.022 2.511-.005 3.767.014-2.633 7.383-5.244 14.777-7.916 22.146.279.113.583.078.876.084 2.104-.02 4.209.013 6.313-.016 2.378-6.708 4.785-13.405 7.169-20.11.51-1.371.554-2.993-.256-4.258-.707-1.12-2.05-1.654-3.331-1.706-1.752-.053-3.506.003-5.26-.028 2.411-6.838 4.894-13.65 7.285-20.497Z"/><path d="M48.739 24.571c.209-.236.58-.093.86-.134.973.018 1.945-.007 2.918.014-2.265 6.465-4.637 12.892-6.866 19.37-1.26.09-2.529.035-3.79.027 2.3-6.422 4.577-12.853 6.878-19.277Z"/></g></svg>