<svg width="33" height="33" fill="none" xmlns="http://www.w3.org/2000/svg"><path d="M1.667 5.667A3.667 3.667 0 0 1 5.332 2h22A3.667 3.667 0 0 1 31 5.667v22a3.667 3.667 0 0 1-3.667 3.666h-22a3.667 3.667 0 0 1-3.667-3.666v-22Z" fill="#FFF8EB"/><path fill-rule="evenodd" clip-rule="evenodd" d="M9 14.833V24ZM9 9.333v.019ZM16.333 24v-9.167ZM23.666 24v-5.5a3.667 3.667 0 0 0-7.333 0" fill="#FFF8EB"/><path d="M9 14.833V24M9 9.333v.019M16.333 24v-9.167M23.667 24v-5.5a3.667 3.667 0 0 0-7.334 0m-11 12.833h22A3.667 3.667 0 0 0 31 27.667v-22A3.667 3.667 0 0 0 27.333 2h-22a3.667 3.667 0 0 0-3.667 3.667v22a3.667 3.667 0 0 0 3.667 3.666Z" stroke="#343434" stroke-width="3" stroke-linecap="round" stroke-linejoin="round"/></svg>