<svg width="33" height="33" viewBox="0 0 33 33" fill="none" xmlns="http://www.w3.org/2000/svg">
<path d="M1.6665 5.66667C1.6665 3.64162 3.30813 2 5.33317 2H27.3332C29.3582 2 30.9998 3.64162 30.9998 5.66667V27.6667C30.9998 29.6917 29.3582 31.3333 27.3332 31.3333H5.33317C3.30813 31.3333 1.6665 29.6917 1.6665 27.6667V5.66667Z" fill="#171717"/>
<path fill-rule="evenodd" clip-rule="evenodd" d="M8.99984 14.8333V24V14.8333Z" fill="#171717"/>
<path fill-rule="evenodd" clip-rule="evenodd" d="M8.99984 9.33333V9.35167V9.33333Z" fill="#171717"/>
<path fill-rule="evenodd" clip-rule="evenodd" d="M16.3332 24V14.8333V24Z" fill="#171717"/>
<path fill-rule="evenodd" clip-rule="evenodd" d="M23.6665 24V18.5C23.6665 16.475 22.0249 14.8333 19.9998 14.8333C17.9748 14.8333 16.3332 16.475 16.3332 18.5" fill="#171717"/>
<path d="M8.99984 14.8333V24M8.99984 9.33333V9.35167M16.3332 24V14.8333M23.6665 24V18.5C23.6665 16.475 22.0249 14.8333 19.9998 14.8333C17.9748 14.8333 16.3332 16.475 16.3332 18.5M5.33317 31.3333H27.3332C29.3582 31.3333 30.9998 29.6917 30.9998 27.6667V5.66667C30.9998 3.64162 29.3582 2 27.3332 2H5.33317C3.30813 2 1.6665 3.64162 1.6665 5.66667V27.6667C1.6665 29.6917 3.30813 31.3333 5.33317 31.3333Z" stroke="white" stroke-width="3" stroke-linecap="round" stroke-linejoin="round"/>
</svg>
