<svg width="69" height="75" viewBox="0 0 69 75" fill="none" xmlns="http://www.w3.org/2000/svg">
<path d="M22.6121 17.4582L14.9532 6.69849C14.9532 6.69849 13.1495 12.9463 14.5832 22.6358L20.1696 26.055C20.6772 22.909 21.5398 20.0416 22.6121 17.4582Z" fill="#343434" fill-opacity="0.75"/>
<path d="M14.5832 22.6359L5.0647 16.8086C5.0647 16.8086 5.75519 23.6146 10.6941 32.8008L17.3441 33.5322C15.9244 29.5795 15.0683 25.9109 14.5832 22.6359Z" fill="#343434" fill-opacity="0.5"/>
<path d="M19.8082 33.8031C19.7028 32.8405 19.6598 31.8757 19.6931 30.9142C19.7523 29.2256 19.9179 27.6069 20.1696 26.0549L14.5833 22.6357C15.0683 25.9108 15.9244 29.5794 17.3442 33.532L19.8082 33.8031Z" fill="#343434" fill-opacity="0.75"/>
<path d="M10.6941 32.8008L0 31.6252C0 31.6252 2.26724 37.3342 10.4553 44.0112L16.645 41.9343C14.1788 38.7475 12.23 35.6596 10.6941 32.8008Z" fill="#343434" fill-opacity="0.25"/>
<path d="M20.417 40.6684C20.3212 40.4769 20.2244 40.2855 20.1298 40.0919C19.0198 37.8343 18.1024 35.6434 17.3442 33.5321L10.6941 32.8008C12.23 35.6596 14.1788 38.7474 16.6451 41.9343L20.417 40.6684Z" fill="#343434" fill-opacity="0.5"/>
<path d="M19.8082 33.8033L17.3441 33.5322C18.1024 35.6435 19.0198 37.8344 20.1298 40.0919C20.2244 40.2855 20.3212 40.477 20.4169 40.6684L21.4312 40.3275C20.6277 38.2001 20.0491 36.007 19.8082 33.8033Z" fill="#343434" fill-opacity="0.75"/>
<path d="M10.4553 44.0112L1.64984 46.9668C1.64984 46.9668 6.29079 51.6519 17.5302 54.1256L20.7471 50.8323C16.5686 48.5683 13.1839 46.2365 10.4553 44.0112Z" fill="#343434" fill-opacity="0.15"/>
<path d="M22.7165 48.8167C20.4051 46.5054 18.395 44.1951 16.645 41.9343L10.4553 44.0112C13.184 46.2365 16.5687 48.5683 20.7472 50.8323L22.7165 48.8167Z" fill="#343434" fill-opacity="0.25"/>
<path d="M20.417 40.6682L16.6451 41.9341C18.395 44.1949 20.4052 46.5052 22.7165 48.8165L24.2438 47.2527C22.9348 45.2877 21.642 43.0979 20.417 40.6682Z" fill="#343434" fill-opacity="0.5"/>
<path d="M24.2437 47.2528C23.2101 45.1652 22.2905 42.6022 21.4312 40.3274L20.4169 40.6683C21.6 43.0238 22.8369 45.2975 24.2437 47.2528Z" fill="#343434" fill-opacity="0.75"/>
<path d="M30.2323 55.2322C26.6787 53.8276 23.5231 52.3401 20.7224 50.8225L17.5065 54.1158C21.2021 54.9289 25.8678 55.5366 31.0616 55.6269C30.8701 55.5108 30.4238 55.3559 30.2323 55.2322Z" fill="#343434" fill-opacity="0.15"/>
<path d="M22.7165 48.8167L20.7472 50.8322C23.5479 52.3509 27.508 54.2223 31.0616 55.627C29.985 54.9311 28.8836 54.1072 27.7597 53.1382C26.2443 51.8314 24.0308 50.131 22.7165 48.8167Z" fill="#343434" fill-opacity="0.25"/>
<path d="M17.5065 54.116L10.5736 61.2134C10.5736 61.2134 17.5044 63.5893 30.0086 59.769C30.2517 58.7225 31.0616 55.6271 31.0616 55.6271C30.9777 55.5776 21.2021 54.9291 17.5065 54.116Z" fill="#343434" fill-opacity="0.1"/>
<path d="M24.2437 47.2529L22.7164 48.8168C24.0307 50.1311 25.4397 51.4465 26.9551 52.7532C28.0791 53.7234 30.8583 55.5475 31.0615 55.6271C31.0325 55.5937 26.4647 50.5871 24.2437 47.2529Z" fill="#343434" fill-opacity="0.5"/>
<path d="M35.6391 35.6197L36.3748 0C36.3748 0 27.4069 5.91331 22.6122 17.4582L35.6391 35.6197Z" fill="#343434"/>
<path d="M35.6391 35.6198L22.6122 17.4583C21.5399 20.0417 20.6773 22.9091 20.1696 26.055L35.6391 35.6198Z" fill="#343434"/>
<path d="M35.6391 35.6197L20.1696 26.0549C19.9179 27.6069 19.7523 29.2256 19.6931 30.9142C19.6598 31.8757 19.7028 32.8405 19.8082 33.8031L35.6391 35.6197Z" fill="#343434"/>
<path d="M35.6391 35.6198L19.8082 33.8032C20.0491 36.007 20.6278 38.2 21.4312 40.3274L35.6391 35.6198Z" fill="#343434"/>
<path d="M35.6391 35.6199L21.4312 40.3275C22.0722 42.6023 23.0693 45.1438 24.2437 47.2529L35.6391 35.6199Z" fill="#343434"/>
<path d="M48.8231 25.1032C43.2475 24.1976 37.5299 27.6921 36.122 33.1633L35.6391 35.6199C29.1461 62.9439 29.5171 63.1558 26.1615 71.1277C25.7463 72.114 24.1298 74.8921 24.1298 74.8921C24.1298 74.8921 36.0973 68.4916 39.6433 65.7091C44.4435 61.9437 48.7284 57.335 49.3253 51.44C49.9352 45.4116 48.7058 41.8903 48.0637 37.7225C47.6572 35.0789 48.7456 31.905 49.7319 30.4293C51.0333 28.4815 53.008 27.0887 55.2171 27.1027C58.4405 27.122 68.0602 28.2288 68.0602 28.2288L48.8231 25.1032Z" fill="#343434"/>
<path d="M24.219 47.2432C26.1797 50.5376 30.982 55.5969 31.0616 55.6271L35.6391 35.6199L24.219 47.2432Z" fill="#343434"/>
</svg>
