<svg width="123" height="32" fill="none" xmlns="http://www.w3.org/2000/svg"><path d="M75.068 31.854c2.219 0 3.67-1.086 4.334-3.28l.954-3.112H78.47l-.995 3.196c-.374 1.211-1.037 1.817-2.012 1.817-.995 0-1.286-.606-.913-1.817l.996-3.196h-1.887l-.954 3.113c-.664 2.193.124 3.279 2.364 3.279ZM61.961 27.342h2.157c.56-1.441-.436-2.151-2.986-2.151-2.24 0-3.588.689-4.003 2.067-.29.961-.062 1.567.726 1.818.207.083.975.167 2.281.25.83.063 1.182.314 1.058.752-.125.397-.643.585-1.535.585-.58 0-.954-.042-1.078-.125-.25-.146-.27-.439-.083-.92h-2.24c-.56 1.567.373 2.361 2.841 2.361 2.53 0 4.044-.773 4.521-2.319.27-.877.02-1.462-.746-1.733-.353-.146-1.12-.25-2.303-.334-.829-.063-1.223-.23-1.12-.502.125-.397.623-.585 1.494-.585.498 0 .809.021.892.084.29.084.331.334.124.752ZM84.504 26.799 82.95 31.77h-1.867l1.535-4.971h-2.24l.415-1.316h6.367l-.415 1.316h-2.24ZM87.553 25.483h1.928l-.767 2.444h2.904l.746-2.444h1.887l-1.949 6.287h-1.887l.767-2.485H88.3l-.767 2.485h-1.929l1.95-6.287ZM96.574 27.927h3.049l-.415 1.358h-3.049l-.352 1.128h3.401l-.415 1.357h-5.288l1.95-6.287h5.288l-.415 1.316h-3.401l-.353 1.128Z" fill="#fff"/><path fill-rule="evenodd" clip-rule="evenodd" d="M69.344 25.274c2.489 0 3.38 1.107 2.696 3.321C71.335 30.872 69.738 32 67.25 32c-2.49 0-3.381-1.128-2.697-3.363.726-2.256 2.302-3.363 4.791-3.363ZM66.669 28.7c-.394 1.295-.063 1.942 1.037 1.942 1.057 0 1.804-.668 2.219-1.984.415-1.358.103-2.026-.975-2.026-1.079 0-1.846.69-2.281 2.068ZM104.185 28.052c.457 0 .747-.209.871-.626.125-.418-.041-.627-.497-.627h-1.473l-.394 1.253h1.493Zm-1.908 1.358-.725 2.36h-1.888l1.95-6.308 4.023-.042c1.493 0 2.074.585 1.701 1.734-.249.773-.726 1.274-1.473 1.483.477.021.643.46.519 1.295-.187 1.128-.27 1.734-.249 1.817h-2.012c-.124 0-.124-.396.042-1.17.186-.793.02-1.21-.54-1.21h-1.348v.04Z" fill="#fff"/><path d="M7.646 25.358h1.929l-1.97 6.329H5.011l-1.41-4.01-1.245 4.01H.43l1.97-6.33h2.8l1.285 3.719 1.162-3.718ZM31.184 25.358l-.435 1.357h-3.401l-.374 1.212h3.132l-.436 1.358H26.54l-.726 2.402h-1.929l1.97-6.33h5.33ZM39.625 25.358h1.929l-1.535 4.971h3.318l-.414 1.358h-5.247l1.95-6.33ZM45.204 25.358h1.929l-.892 2.861 3.526-2.861h2.488l-3.525 2.861 1.804 3.468h-2.53L46.22 28.26l-1.057 3.426h-1.93l1.971-6.33Z" fill="#fff"/><path fill-rule="evenodd" clip-rule="evenodd" d="M14.116 25.19c2.49 0 3.38 1.128 2.697 3.363-.685 2.235-2.282 3.363-4.77 3.363-2.49 0-3.38-1.107-2.697-3.32.685-2.277 2.282-3.405 4.77-3.405Zm-2.675 3.426c-.415 1.337-.062 1.985 1.037 1.985 1.058 0 1.804-.669 2.24-2.027.415-1.337.083-1.984-.996-1.984-1.099 0-1.866.69-2.28 2.026ZM21.209 27.927c.436 0 .705-.209.83-.627.124-.397-.042-.585-.498-.585h-1.493l-.374 1.212h1.535Zm-1.95 1.358-.746 2.402h-1.887l1.97-6.35h4.003c1.514 0 2.115.585 1.742 1.733-.229.752-.726 1.233-1.494 1.442.457.062.643.48.519 1.295-.166 1.128-.228 1.754-.207 1.859h-2.054c-.124 0-.103-.397.083-1.212.187-.794 0-1.211-.58-1.211H19.26v.042ZM35.27 25.19c2.468 0 3.34 1.128 2.655 3.363-.685 2.235-2.26 3.363-4.729 3.363-2.488 0-3.38-1.107-2.696-3.32.705-2.277 2.281-3.405 4.77-3.405Zm-2.655 3.426c-.414 1.337-.082 1.985.996 1.985 1.1 0 1.846-.669 2.281-2.027.415-1.337.063-1.984-1.037-1.984-1.078 0-1.825.69-2.24 2.026Z" fill="#fff"/><path d="M40.496 4.658H9.927L8.828 7.812h25.28c1.37-.439 5.434-1.608 9.271-1.671 0 0-2.281-.648-4.542-.982.02 0 .664-.23 1.66-.501ZM5.199 18.36 4.12 21.535h18.748l6.844-2.715-1.866-.46H5.199ZM59.95 1.274C60.114 1.17 60.861.522 61.4 0H59.37c.02.48.062 1.128.103 1.316.042.313.228.125.477-.042ZM6.775 13.786l-1.1 3.154h22.191c1.514-.69 3.401-1.525 3.796-1.692.767-.334 3.214-1.003 3.214-1.003s-.456-.208-1.14-.46H6.774ZM54.536.731c2.095.522 2.676.731 2.676.731s.788-.418 1.7-1.441H11.545l-1.1 3.154h35.879c-.913-.23-2.22-.606-2.841-1.065 0 0 3.4-.523 5.537-.46 2.281.084 4.708.46 4.708.46S52.483.835 50.908.543c-.022-.02 1.472-.355 3.628.188ZM114.016 25.483h1.908l-1.95 6.287h-2.634l-1.41-3.968-1.244 3.968h-1.888l1.95-6.287h2.82l1.286 3.718 1.162-3.718ZM119.159 22.475c.829 0 1.493.69 1.493 1.525 0 .856-.664 1.546-1.493 1.546-.83 0-1.514-.669-1.514-1.546 0-.835.684-1.525 1.514-1.525Zm0 .25c-.664 0-1.224.586-1.224 1.296 0 .731.539 1.295 1.224 1.295.684 0 1.223-.564 1.223-1.295s-.539-1.295-1.223-1.295Zm-.29 2.173h-.27v-1.713c.145-.02.27-.041.477-.041a.98.98 0 0 1 .518.125c.104.084.146.188.146.355 0 .23-.146.355-.332.418v.02c.145.022.249.168.29.418.042.272.083.376.104.418h-.291c-.041-.063-.083-.209-.124-.438-.041-.21-.145-.293-.373-.293h-.145v.731Zm0-.94h.186c.228 0 .415-.083.415-.292 0-.146-.104-.293-.415-.293-.083 0-.145 0-.186.021v.564ZM7.273 12.386h23.994a37.805 37.805 0 0 1 8.69-3.154H8.351l-1.078 3.155ZM110.988 7.666l10.514.376c1.701-2.34.54-4.136.54-4.136-.664-1.587-3.713-2.611-3.713-2.611-6.989-2.026-14.911-.898-14.911-.898-4.127.418-6.18 1.88-6.865 2.465l.975-2.8h-9.25l-3.69 10.674L79.32 0H61.878c-.145.794-.477 2.151-1.161 2.882l-.042.21c1.14.793 2.738 2.986 2.924 3.237.166.272.602.313.872.71.27.397-.042.71.207 1.107.27.397 3.608 5.577 5.786 7.77.747.752.56.752.519 1.003-.042.272-.436.355-.664.794-.228.438.041 1.107-.27 1.441-.31.355-.912.564-1.306.606-.56.48-2.012.71-2.447.397 0 0-.56-.21-.706-1.442-1.576-.271-4.79-2.067-5.537-2.715-.871.125-2.489-.564-2.654-.648-.166-.083-.208-.313-.706-.041-.477.271-.601.438-.705.793l-1.908 5.431 17.359-.042 3.65-10.569 5.33 10.59h.373l-.02.042 9.249-.02 1.14-3.301c1.867 3.55 5.04 3.634 5.04 3.634.415.293 6.118.585 8.192.69 2.074.104 7.466-.355 7.466-.355 7.341-.606 8.129-7.248 8.129-7.248.975-4.345-4.417-5.786-4.417-5.786-1.099-.418-8.98-1.274-8.98-1.274-2.53-.105-1.7-1.442-1.7-1.442.103-1.086 3.09-.877 3.09-.877 3.173-.084 3.214.627 3.214.627.353.981-.207 1.462-.207 1.462Zm-2.219 7.06c1.182.418.518 1.42.518 1.42-.456.669-1.244.815-1.244.815-.622.063-2.924.376-4.5-.063-1.577-.439-1.39-1.149-1.39-1.149-.062-.522.104-.814.104-.814l-9.727-.418 1.473-4.282c1.327 3.76 8.544 3.906 8.544 3.906 4.003.209 6.222.585 6.222.585Z" fill="#fff"/></svg>