<svg width="85" height="23" viewBox="0 0 85 23" fill="none" xmlns="http://www.w3.org/2000/svg">
<path d="M51.5525 22.3101C53.0794 22.3101 54.0782 21.5701 54.5349 20.0757L55.1912 17.9552H53.8927L53.2078 20.1327C52.9509 20.9581 52.4943 21.3708 51.8237 21.3708C51.1387 21.3708 50.939 20.9581 51.1958 20.1327L51.8807 17.9552H50.5822L49.9258 20.0757C49.4692 21.5701 50.0114 22.3101 51.5525 22.3101Z" fill="#F2F2F2"/>
<path d="M42.5342 19.2359H44.0183C44.4035 18.254 43.7186 17.7701 41.9635 17.7701C40.4224 17.7701 39.4948 18.2397 39.2095 19.179C39.0097 19.8337 39.1666 20.2464 39.7089 20.4172C39.8516 20.4741 40.3796 20.531 41.2785 20.588C41.8493 20.6307 42.0919 20.8015 42.0063 21.1003C41.9207 21.3707 41.5639 21.4988 40.9503 21.4988C40.5508 21.4988 40.2939 21.4703 40.2083 21.4134C40.0371 21.3138 40.0228 21.1146 40.1512 20.7872H38.6101C38.2249 21.8546 38.867 22.3954 40.5651 22.3954C42.3059 22.3954 43.3476 21.8688 43.6758 20.8157C43.8613 20.2179 43.6901 19.8195 43.1621 19.6344C42.9195 19.5348 42.3916 19.4637 41.5782 19.4067C41.0074 19.364 40.7363 19.2502 40.8076 19.0652C40.8933 18.7948 41.2357 18.6667 41.835 18.6667C42.1775 18.6667 42.3916 18.6809 42.4486 18.7236C42.6484 18.7805 42.6769 18.9513 42.5342 19.2359Z" fill="#F2F2F2"/>
<path d="M58.0451 18.866L56.9749 22.2532H55.6907L56.7466 18.866H55.2055L55.4909 17.9694H59.8716L59.5862 18.866H58.0451Z" fill="#F2F2F2"/>
<path d="M60.1428 17.9694H61.4698L60.9419 19.6345H62.9396L63.4533 17.9694H64.7518L63.4105 22.2532H62.112L62.6399 20.5596H60.6565L60.1285 22.2532H58.8015L60.1428 17.9694Z" fill="#F2F2F2"/>
<path d="M66.35 19.6345H68.4476L68.1622 20.5596H66.0646L65.822 21.3281H68.1622L67.8768 22.2532H64.2381L65.5794 17.9694H69.2181L68.9327 18.866H66.5926L66.35 19.6345Z" fill="#F2F2F2"/>
<path fillRule="evenodd" clipRule="evenodd" d="M47.6141 17.827C49.3265 17.827 49.9401 18.5813 49.4692 20.0899C48.984 21.6412 47.8852 22.4097 46.1729 22.4097C44.4606 22.4097 43.847 21.6412 44.3179 20.1184C44.8173 18.5813 45.9018 17.827 47.6141 17.827ZM45.7734 20.1611C45.5022 21.0435 45.7306 21.4846 46.4868 21.4846C47.2146 21.4846 47.7283 21.0292 48.0137 20.1326C48.2991 19.2075 48.085 18.7521 47.343 18.7521C46.601 18.7521 46.073 19.2218 45.7734 20.1611Z" fill="#F2F2F2"/>
<path fillRule="evenodd" clipRule="evenodd" d="M71.5869 19.7199C71.9008 19.7199 72.1006 19.5776 72.1862 19.293C72.2718 19.0083 72.1577 18.866 71.8437 18.866H70.8306L70.5595 19.7199H71.5869ZM70.2741 20.645L69.7747 22.2532H68.4761L69.8175 17.9552L72.5858 17.9267C73.6132 17.9267 74.0127 18.3252 73.7559 19.1079C73.5846 19.6345 73.2564 19.9761 72.7427 20.1184C73.0709 20.1326 73.1851 20.4315 73.0995 21.0008C72.971 21.7693 72.9139 22.182 72.9282 22.239H71.5441C71.4585 22.239 71.4585 21.9685 71.5726 21.442C71.701 20.9012 71.5869 20.6165 71.2016 20.6165H70.2741V20.645Z" fill="#F2F2F2"/>
<path d="M5.16244 17.884H6.4895L5.1339 22.1963H3.35021L2.37989 19.4638L1.52372 22.1963H0.196655L1.55226 17.884H3.47864L4.36334 20.4173L5.16244 17.884Z" fill="#F2F2F2"/>
<path d="M21.3583 17.884L21.0586 18.8091H18.7184L18.4615 19.6345H20.6162L20.3166 20.5596H18.1619L17.6625 22.1963H16.3354L17.691 17.884H21.3583Z" fill="#F2F2F2"/>
<path d="M27.1659 17.884H28.493L27.4371 21.2712H29.7202L29.4348 22.1963H25.8246L27.1659 17.884Z" fill="#F2F2F2"/>
<path d="M31.0045 17.884H32.3316L31.718 19.8338L34.1438 17.884H35.8561L33.4303 19.8338L34.6718 22.1963H32.9309L31.7037 19.8622L30.976 22.1963H29.6489L31.0045 17.884Z" fill="#F2F2F2"/>
<path fillRule="evenodd" clipRule="evenodd" d="M9.61455 17.7701C11.3269 17.7701 11.9405 18.5386 11.4696 20.0614C10.9987 21.5842 9.89994 22.3528 8.18761 22.3528C6.47527 22.3528 5.86168 21.5985 6.33257 20.0899C6.80347 18.5386 7.90222 17.7701 9.61455 17.7701ZM7.77379 20.1041C7.4884 21.015 7.73098 21.4561 8.48726 21.4561C9.21501 21.4561 9.72871 21.0007 10.0284 20.0756C10.3138 19.1648 10.0854 18.7236 9.34343 18.7236C8.58715 18.7236 8.05918 19.1933 7.77379 20.1041Z" fill="#F2F2F2"/>
<path fillRule="evenodd" clipRule="evenodd" d="M14.4946 19.6345C14.7943 19.6345 14.9798 19.4921 15.0654 19.2075C15.151 18.9371 15.0369 18.809 14.7229 18.809H13.6955L13.4387 19.6345H14.4946ZM13.1533 20.5595L12.6396 22.1962H11.3411L12.6967 17.8697H15.4507C16.4924 17.8697 16.9062 18.2682 16.6493 19.051C16.4924 19.5633 16.1499 19.8906 15.6219 20.033C15.9358 20.0756 16.0643 20.3603 15.9787 20.9153C15.8645 21.6839 15.8217 22.1108 15.836 22.182H14.4233C14.3377 22.182 14.3519 21.9116 14.4804 21.3565C14.6088 20.8157 14.4804 20.5311 14.0808 20.5311H13.1533V20.5595Z" fill="#F2F2F2"/>
<path fillRule="evenodd" clipRule="evenodd" d="M24.1694 17.7701C25.8675 17.7701 26.4668 18.5386 25.9959 20.0614C25.525 21.5842 24.4405 22.3528 22.7425 22.3528C21.0301 22.3528 20.4166 21.5985 20.8874 20.0899C21.3726 18.5386 22.4571 17.7701 24.1694 17.7701ZM22.3429 20.1041C22.0575 21.015 22.2859 21.4561 23.0279 21.4561C23.7841 21.4561 24.2978 21.0007 24.5975 20.0756C24.8829 19.1648 24.6403 18.7236 23.884 18.7236C23.142 18.7236 22.6283 19.1933 22.3429 20.1041Z" fill="#F2F2F2"/>
<path d="M27.7653 3.78013H6.73208L5.9758 5.92915H23.3703C24.3121 5.63028 27.1089 4.83329 29.7488 4.7906C29.7488 4.7906 28.1791 4.34941 26.6237 4.1217C26.638 4.1217 27.0804 3.96515 27.7653 3.78013Z" fill="#F2F2F2"/>
<path d="M3.47862 13.1163L2.7366 15.2796H15.6362L20.3451 13.4294L19.0609 13.1163H3.47862Z" fill="#F2F2F2"/>
<path d="M41.1501 1.47459C41.2643 1.40343 41.778 0.962244 42.149 0.606445H40.7506C40.7648 0.93378 40.7934 1.37497 40.8219 1.50306C40.8504 1.71654 40.9789 1.58845 41.1501 1.47459Z" fill="#F2F2F2"/>
<path d="M4.5631 9.99949L3.80681 12.1485H19.0752C20.1168 11.6789 21.4154 11.1096 21.6865 10.9957C22.2145 10.768 23.8983 10.3126 23.8983 10.3126C23.8983 10.3126 23.5843 10.1703 23.1134 9.99949H4.5631Z" fill="#F2F2F2"/>
<path d="M37.4257 1.10451C38.8669 1.46031 39.2665 1.60263 39.2665 1.60263C39.2665 1.60263 39.8087 1.31799 40.4366 0.62063H7.84507L7.08879 2.76965H31.775C31.1471 2.6131 30.2482 2.35693 29.8201 2.04382C29.8201 2.04382 32.1603 1.68802 33.63 1.73072C35.1997 1.78765 36.8692 2.04382 36.8692 2.04382C36.8692 2.04382 36.013 1.17568 34.9285 0.976428C34.9143 0.962196 35.9417 0.734484 37.4257 1.10451Z" fill="#F2F2F2"/>
<path d="M78.3506 17.9693H79.6634L78.322 22.2531H76.5098L75.5395 19.5491L74.6833 22.2531H73.3848L74.7261 17.9693H76.6668L77.5515 20.5026L78.3506 17.9693Z" fill="#F2F2F2"/>
<path d="M81.8895 15.92C82.4602 15.92 82.9169 16.3897 82.9169 16.9589C82.9169 17.5424 82.4602 18.0121 81.8895 18.0121C81.3187 18.0121 80.8478 17.5567 80.8478 16.9589C80.8478 16.3897 81.3187 15.92 81.8895 15.92ZM81.8895 16.0908C81.4328 16.0908 81.0476 16.4893 81.0476 16.9732C81.0476 17.4713 81.4186 17.8555 81.8895 17.8555C82.3604 17.8555 82.7314 17.4713 82.7314 16.9732C82.7314 16.475 82.3604 16.0908 81.8895 16.0908ZM81.6897 17.5709H81.5042V16.4039C81.6041 16.3897 81.6897 16.3754 81.8324 16.3754C82.0036 16.3754 82.1178 16.4181 82.1891 16.4608C82.2605 16.5177 82.289 16.5889 82.289 16.7028C82.289 16.8593 82.1891 16.9447 82.0607 16.9874V17.0016C82.1606 17.0159 82.2319 17.1155 82.2605 17.2863C82.289 17.4713 82.3175 17.5424 82.3318 17.5709H82.132C82.1035 17.5282 82.075 17.4286 82.0464 17.272C82.0179 17.1297 81.9465 17.0728 81.7896 17.0728H81.6897V17.5709ZM81.6897 16.9305H81.8181C81.9751 16.9305 82.1035 16.8735 82.1035 16.7312C82.1035 16.6316 82.0322 16.532 81.8181 16.532C81.761 16.532 81.7182 16.532 81.6897 16.5462V16.9305Z" fill="#F2F2F2"/>
<path d="M4.90559 9.04599H21.4154C22.4856 8.50518 24.6545 7.50895 27.3943 6.89697H5.6476L4.90559 9.04599Z" fill="#F2F2F2"/>
<path d="M76.2673 5.82955L83.5019 6.08572C84.672 4.49175 83.8729 3.26781 83.8729 3.26781C83.4163 2.18618 81.3187 1.48882 81.3187 1.48882C76.5099 0.108329 71.0589 0.87685 71.0589 0.87685C68.2193 1.16149 66.8066 2.15772 66.3357 2.55621L67.0064 0.649141H60.6422L58.1023 7.92163L54.4778 0.606445H42.4772C42.3773 1.14726 42.149 2.07233 41.6781 2.57045L41.6495 2.71277C42.4344 3.25358 43.5331 4.74793 43.6615 4.91871C43.7757 5.10372 44.0754 5.13219 44.2609 5.40259C44.4464 5.673 44.2323 5.88648 44.4035 6.15688C44.5891 6.42729 46.8864 9.9568 48.3847 11.4511C48.8984 11.9635 48.77 11.9635 48.7415 12.1343C48.7129 12.3193 48.4418 12.3762 48.2848 12.6751C48.1279 12.974 48.3134 13.4294 48.0993 13.6571C47.8853 13.899 47.4715 14.0413 47.2004 14.0698C46.8151 14.3971 45.8162 14.5537 45.5166 14.3402C45.5166 14.3402 45.1313 14.1979 45.0314 13.3582C43.9469 13.1732 41.7352 11.9493 41.2215 11.5081C40.6221 11.5935 39.5091 11.1238 39.395 11.0669C39.2808 11.01 39.2523 10.8534 38.9098 11.0384C38.5816 11.2234 38.496 11.3373 38.4246 11.5792L37.1118 15.2795L49.0554 15.2511L51.5668 8.04972L55.2341 15.2653H55.4909L55.4767 15.2938L61.8409 15.2795L62.6257 13.0309C63.9099 15.4503 66.0932 15.5072 66.0932 15.5072C66.3786 15.7065 70.3027 15.9057 71.7296 15.9769C73.1566 16.048 76.8666 15.7349 76.8666 15.7349C81.918 15.3222 82.4603 10.7965 82.4603 10.7965C83.1309 7.83625 79.4209 6.85424 79.4209 6.85424C78.6646 6.56961 73.2422 5.9861 73.2422 5.9861C71.5013 5.91494 72.0721 5.0041 72.0721 5.0041C72.1434 4.26404 74.1982 4.40636 74.1982 4.40636C76.3815 4.34943 76.41 4.83332 76.41 4.83332C76.6526 5.50221 76.2673 5.82955 76.2673 5.82955ZM74.7405 10.6399C75.5538 10.9246 75.0972 11.6077 75.0972 11.6077C74.7833 12.0631 74.241 12.1627 74.241 12.1627C73.813 12.2054 72.229 12.4189 71.1446 12.12C70.0601 11.8212 70.1885 11.3373 70.1885 11.3373C70.1457 10.9815 70.2599 10.7822 70.2599 10.7822L63.5675 10.4976L64.5806 7.58007C65.4938 10.1418 70.4596 10.2414 70.4596 10.2414C73.2136 10.3838 74.7405 10.6399 74.7405 10.6399Z" fill="#F2F2F2"/>
</svg>
