<svg width="65" height="28" viewBox="0 0 65 28" fill="none" xmlns="http://www.w3.org/2000/svg">
<g style="mix-blend-mode:luminosity">
<path fillRule="evenodd" clipRule="evenodd" d="M0.35144 15.0484C1.1256 12.8295 5.52704 11.8943 11.9475 12.6685L13.1924 8.09596C6.83686 7.28935 2.19817 8.19586 1.42527 11.0877L0.35144 15.0484V15.0484ZM23.5424 10.2911C22.7695 12.5111 18.3693 13.4414 11.9475 12.6685L10.7039 17.2397C17.0582 18.0476 21.6981 17.1398 22.471 14.248L23.5424 10.2923" fill="#F2F2F2"/>
<path fillRule="evenodd" clipRule="evenodd" d="M4.41692 5.47424C13.7967 6.14601 23.3787 10.7859 22.471 14.2484L23.3113 11.1555C23.5798 10.1816 23.7146 9.6759 23.7146 9.27259C23.7146 5.7427 14.4697 1.4399 5.66056 0.901733L4.41692 5.47424V5.47424ZM19.4792 19.8635C10.097 19.1905 0.51743 14.5493 1.42394 11.0881L0.584856 14.181C0.315151 15.1562 0.180298 15.6606 0.180298 16.0639C0.180298 19.5938 9.42645 23.8979 18.2356 24.4348L19.4792 19.8635V19.8635ZM53.6769 13.6391C54.3699 13.6391 54.7257 14.0861 54.7257 15.0725C54.7257 15.1662 54.7195 15.2636 54.7083 15.3659H52.0474C52.3359 14.3283 52.9539 13.6391 53.6769 13.6391ZM53.6919 18.7872C52.5057 18.8034 51.8726 18.048 51.8726 16.707C51.8726 16.6183 51.8751 16.5309 51.8801 16.4448H56.5438C56.6401 16.0875 56.6917 15.7197 56.6973 15.3497C56.6973 13.7165 55.6959 12.4679 53.6457 12.4679C51.5492 12.4679 49.6837 14.5331 49.6837 16.707C49.6837 18.7872 51.041 20.0521 53.306 20.0521C54.3087 20.0521 55.2951 19.7124 55.9881 19.188L55.5573 18.1092C55.0224 18.5259 54.3696 18.7632 53.6919 18.7872V18.7872ZM29.8005 14.6255H28.9564L30.1189 10.3402H31.0016C32.1167 10.3402 32.7435 11.0956 32.7435 12.0983C32.7435 13.7003 31.4861 14.6255 29.7992 14.6255H29.8005ZM35.2258 12.0046C35.2258 10.309 33.8997 9.07656 31.8957 9.07656H28.0124L25.0831 19.866H27.5329L28.613 15.8891H30.7394C33.1743 15.8891 35.2258 14.3171 35.2258 12.0059V12.0046ZM38.4185 12.6676L38.6932 11.6662C38.8318 11.1418 39.0641 10.2478 39.3875 9.21516C39.7259 8.15132 40.3427 7.48829 41.1755 7.48829C41.5751 7.48829 41.8223 7.67309 41.8223 7.9815C41.8074 8.32113 41.5302 8.52092 41.5302 9.06157C41.5302 9.69338 42.0696 10.1853 42.7626 10.1853C42.966 10.1865 43.1677 10.1475 43.356 10.0707C43.5444 9.9939 43.7158 9.8807 43.8604 9.7376C44.005 9.59451 44.12 9.42432 44.1988 9.23676C44.2776 9.04921 44.3186 8.84796 44.3196 8.64453C44.3196 7.33346 43.1946 6.4719 41.484 6.4719C38.9717 6.4719 37.3222 8.0739 36.2896 11.8198L32.0967 27.0657H34.4691L38.0939 13.8551H40.5625L38.9392 19.866H41.3141L43.2558 12.6676H38.4185" fill="#F2F2F2"/>
<path fillRule="evenodd" clipRule="evenodd" d="M50.4403 12.6674H44.1509L43.8425 13.8536H46.8867L42.1619 19.8658H48.8208L49.1293 18.6796H45.7017L50.4391 12.6674H50.4403ZM62.8942 12.5438C62.0439 12.5438 61.1374 13.0932 60.4282 14.2357L60.844 12.6674H58.4716L56.5274 19.8658H58.9023L59.7801 16.6294C60.1347 15.3033 60.9988 14.0085 61.5682 14.0085C62.185 14.0085 61.9553 15.1647 63.0166 15.1647C63.7883 15.1647 64.2502 14.4555 64.2502 13.8087C64.2502 13.0533 63.6497 12.5438 62.8942 12.5438Z" fill="#F2F2F2"/>
</g>
</svg>
