<svg width="94" height="39" fill="none" xmlns="http://www.w3.org/2000/svg"><path fill-rule="evenodd" clip-rule="evenodd" d="M1.187 21.383c1.12-3.21 7.488-4.563 16.777-3.443l1.801-6.616c-9.195-1.167-15.907.145-17.025 4.329l-1.553 5.73ZM34.739 14.5c-1.118 3.212-7.484 4.558-16.775 3.44l-1.8 6.613c9.194 1.17 15.907-.144 17.025-4.328l1.55-5.723" fill="#fff"/><path fill-rule="evenodd" clip-rule="evenodd" d="M7.069 7.53c13.57.972 27.434 7.686 26.12 12.695l1.216-4.475c.389-1.409.584-2.14.584-2.724C34.989 7.92 21.613 1.694 8.868.915l-1.8 6.616ZM28.86 28.35c-13.575-.975-27.434-7.69-26.123-12.697l-1.214 4.475c-.39 1.41-.585 2.14-.585 2.724 0 5.107 13.377 11.334 26.122 12.11l1.8-6.613Zm49.477-9.007c1.003 0 1.518.647 1.518 2.074 0 .136-.01.277-.025.425h-3.85c.417-1.501 1.311-2.498 2.357-2.498Zm.022 7.449c-1.716.023-2.632-1.07-2.632-3.01 0-.128.004-.255.01-.38h6.748c.14-.516.214-1.048.222-1.584 0-2.363-1.448-4.169-4.415-4.169-3.033 0-5.732 2.988-5.732 6.133 0 3.01 1.964 4.84 5.24 4.84 1.451 0 2.879-.491 3.881-1.25l-.623-1.561a4.66 4.66 0 0 1-2.699.98ZM43.794 20.77h-1.222l1.682-6.2h1.278c1.613 0 2.52 1.093 2.52 2.543 0 2.318-1.82 3.657-4.26 3.657h.002Zm7.85-3.792c0-2.454-1.92-4.237-4.819-4.237h-5.618l-4.238 15.61h3.544l1.563-5.753h3.076c3.523 0 6.491-2.274 6.491-5.618v-.002Zm4.618.959.398-1.449c.2-.759.536-2.052 1.004-3.546.49-1.54 1.382-2.498 2.587-2.498.578 0 .936.267.936.713-.022.492-.423.78-.423 1.563 0 .914.78 1.626 1.783 1.626a2.24 2.24 0 0 0 2.253-2.23c0-1.897-1.628-3.143-4.103-3.143-3.634 0-6.02 2.318-7.515 7.737L47.116 38.77h3.432l5.245-19.113h3.571l-2.348 8.697h3.436l2.809-10.415h-6.999Z" fill="#fff"/><path fill-rule="evenodd" clip-rule="evenodd" d="M73.656 17.938h-9.1l-.446 1.716h4.404l-6.836 8.698h9.635l.446-1.716h-4.96l6.855-8.698h.002Zm18.018-.18c-1.23 0-2.542.796-3.568 2.449l.602-2.27h-3.433l-2.813 10.415h3.436l1.27-4.682c.513-1.919 1.764-3.792 2.587-3.792.893 0 .56 1.673 2.096 1.673 1.117 0 1.785-1.026 1.785-1.962 0-1.093-.87-1.83-1.962-1.83Z" fill="#fff"/></svg>