<svg width="40" height="40" viewBox="0 0 40 40" fill="none" xmlns="http://www.w3.org/2000/svg">
<path d="M20 0C8.95536 0 0 8.95536 0 20C0 31.0446 8.95536 40 20 40C31.0446 40 40 31.0446 40 20C40 8.95536 31.0446 0 20 0ZM28.5714 21.0714C28.5714 21.2679 28.4107 21.4286 28.2143 21.4286H21.4286V28.2143C21.4286 28.4107 21.2679 28.5714 21.0714 28.5714H18.9286C18.7321 28.5714 18.5714 28.4107 18.5714 28.2143V21.4286H11.7857C11.5893 21.4286 11.4286 21.2679 11.4286 21.0714V18.9286C11.4286 18.7321 11.5893 18.5714 11.7857 18.5714H18.5714V11.7857C18.5714 11.5893 18.7321 11.4286 18.9286 11.4286H21.0714C21.2679 11.4286 21.4286 11.5893 21.4286 11.7857V18.5714H28.2143C28.4107 18.5714 28.5714 18.7321 28.5714 18.9286V21.0714Z" fill="#1A1A1A"/>
<path d="M17.958 11V17.958H11V22.042H17.958V29H22.042V22.042H29V17.958H22.042V11H17.958Z" fill="white"/>
</svg>
