<svg width="125" height="105" viewBox="0 0 125 105" fill="none" xmlns="http://www.w3.org/2000/svg">
<path d="M111.931 88.9828C114.865 87.2372 117.427 84.9306 119.47 82.1949C121.513 79.4592 122.997 76.3479 123.838 73.0386C124.678 69.7293 124.859 66.2868 124.369 62.9078C123.879 59.5287 122.729 56.2793 120.983 53.3449C119.237 50.4105 116.931 47.8487 114.195 45.8057C111.459 43.7628 108.348 42.2786 105.039 41.4381C101.729 40.5976 98.2869 40.4171 94.9079 40.9069C91.5288 41.3968 88.2793 42.5474 85.345 44.293L92.1155 55.6739C93.5553 54.8174 95.1497 54.2528 96.8077 54.0125C98.4657 53.7721 100.155 53.8607 101.779 54.2731C103.402 54.6855 104.929 55.4138 106.271 56.4162C107.614 57.4186 108.745 58.6756 109.602 60.1154C110.459 61.5552 111.023 63.1497 111.264 64.8077C111.504 66.4657 111.415 68.1548 111.003 69.7785C110.59 71.4023 109.862 72.929 108.86 74.2713C107.857 75.6136 106.6 76.7454 105.161 77.6019L111.931 88.9828Z" fill="#BD9FEE"/>
<path fillRule="evenodd" clipRule="evenodd" d="M122 105L61 0L49.6582 19.5228C45.4849 16.6691 40.4374 15 35 15C20.6406 15 9 26.6406 9 41C9 51.2708 14.9554 60.1506 23.6014 64.3747L0 105H122ZM49.6582 19.5228L23.6014 64.3747C27.0432 66.0563 30.9114 67 35 67C49.3594 67 61 55.3594 61 41C61 32.0779 56.506 24.2055 49.6582 19.5228Z" fill="#BD9FEE"/>
</svg>
