<svg width="60" height="44" viewBox="0 0 60 44" fill="none" xmlns="http://www.w3.org/2000/svg">
<g style="mix-blend-mode:luminosity">
<path d="M37.9166 13.5551H59.3392V18.9039H37.9166V13.5551Z" fill="#959595"/>
<path d="M37.9166 5.52673H56.5567V18.9048H37.9166V5.52673Z" fill="#BDBDBD"/>
<path d="M37.9166 0.180542H48.8556V18.9046H37.9166V0.180542Z" fill="#A9A9A9"/>
<path d="M37.9166 2.26965H51.0077V18.9044H37.9166V2.26965Z" fill="#C7C7C7"/>
<path d="M37.9136 2.27307H48.8545V18.903H37.9136V2.27307Z" fill="#8A8A8A"/>
<path d="M26.947 18.9047H37.9163V21.5794H26.947V18.9047Z" fill="#444444"/>
<path d="M37.9136 5.5238H51.0141V18.9031H37.9136V5.5238Z" fill="#9B9B9B"/>
<path d="M37.9136 5.5238H48.8545V18.9031H37.9136V5.5238Z" fill="#747474"/>
<path d="M37.9166 10.8749H44.7573V18.9046H37.9166V10.8749Z" fill="#626262"/>
<path d="M37.9136 13.5592H56.5632V18.9026H37.9136V13.5592Z" fill="#727272"/>
<path d="M37.9136 13.5592H51.0141V18.9026H37.9136V13.5592Z" fill="#626262"/>
<path d="M37.9136 13.5592H48.8545V18.9026H37.9136V13.5592Z" fill="#4F4F4F"/>
<path d="M37.9136 13.5592H44.7642V18.9026H37.9136V13.5592Z" fill="#444444"/>
<path d="M40.3014 28.979C38.435 29.3027 37.4396 30.6784 37.4396 33.0655C37.4396 35.4931 38.7668 37.1115 40.7162 37.1115C41.6702 37.1115 42.4997 36.7878 44.2417 35.9381V37.9206C42.1264 38.8917 40.8821 39.1345 39.2231 39.1345C37.3566 39.1345 36.0294 38.6894 34.9925 37.597C33.9141 36.5451 33.3334 35.1694 33.3334 33.5915C33.3334 30.1524 35.9879 27.7653 39.8452 27.7653C42.3753 27.7653 44.1587 28.9386 44.1587 30.5974C44.1587 31.6898 43.3292 32.4586 42.1264 32.4586C41.5042 32.4586 41.0065 32.2563 40.3014 31.8922" fill="#F2F2F2"/>
<path d="M30.9691 33.5915C32.6696 31.528 33.2918 30.6784 33.2918 29.6668C33.2918 28.6554 32.4623 27.7653 31.3009 27.7653C30.6373 27.7653 30.0152 28.1294 29.7248 28.453V32.7013L26.9459 36.3427V28.0889H24.2914L19.895 35.1694V28.0889H18.4018L14.3786 28.979V29.9905L16.5768 30.1928V38.9726H19.3558L23.5863 32.1754V38.9726H26.6971" fill="#F2F2F2"/>
<path d="M5.95879 37.5969H6.58092C8.82063 37.5969 10.0649 36.2617 10.0649 33.5914C10.0649 31.3661 9.06952 30.1523 7.2031 30.1523C6.9542 30.1523 6.58092 30.1927 5.95879 30.3141V37.5969ZM5.95879 42.3712L7.78376 42.7757V43.7873H0.608355V42.7757L2.26741 42.3712V30.1523H0.442444V29.1408L4.79748 27.8461H5.95879V29.3026C7.99113 28.0888 8.69624 27.8865 9.77463 27.8865C12.1803 27.8865 14.0052 30.0713 14.0052 33.1058C14.0052 36.5854 11.5581 38.9725 7.82522 38.9725C7.41047 38.9725 6.70537 38.9321 5.95879 38.8916" fill="#F2F2F2"/>
</g>
</svg>
