<svg width="86" height="64" fill="none" xmlns="http://www.w3.org/2000/svg"><g style="mix-blend-mode:luminosity" fill="#fff"><path d="M58.395 42.56c-2.7.468-4.14 2.458-4.14 5.912 0 3.512 1.92 5.854 4.74 5.854 1.38 0 2.58-.468 5.1-1.698v2.869c-3.06 1.405-4.86 1.756-7.26 1.756-2.7 0-4.621-.644-6.121-2.225-1.56-1.522-2.4-3.512-2.4-5.795 0-4.976 3.84-8.43 9.42-8.43 3.661 0 6.242 1.698 6.242 4.098 0 1.58-1.2 2.693-2.94 2.693-.9 0-1.621-.293-2.641-.82M44.893 49.233c2.46-2.985 3.36-4.215 3.36-5.678s-1.2-2.751-2.88-2.751c-.96 0-1.86.526-2.28.995v6.146l-4.02 5.269V41.272h-3.841L28.87 51.516V41.272h-2.16L20.89 42.56v1.463l3.18.293v12.703h4.02l6.122-9.835v9.835h4.5M8.708 55.029h.9c3.24 0 5.04-1.932 5.04-5.796 0-3.22-1.44-4.975-4.14-4.975-.36 0-.9.058-1.8.234v10.537Zm0 6.907 2.64.585v1.464H.967V62.52l2.4-.585V44.258H.727v-1.464l6.3-1.873h1.68v2.107c2.941-1.756 3.961-2.049 5.521-2.049 3.48 0 6.121 3.161 6.121 7.552 0 5.034-3.54 8.488-8.941 8.488-.6 0-1.62-.059-2.7-.117"/></g><g style="mix-blend-mode:luminosity"><path d="M54.944 20.244H85.94v7.739H54.944v-7.739Z" fill="#959595"/><path d="M54.944 8.628h26.97v19.356h-26.97V8.628Z" fill="#BDBDBD"/><path d="M54.944.894h15.827v27.09H54.944V.894Z" fill="#A9A9A9"/><path d="M54.944 3.916h18.94v24.067h-18.94V3.916Z" fill="#C7C7C7"/><path d="M54.94 3.921h15.83v24.06H54.94V3.922Z" fill="#8A8A8A"/><path d="M39.074 27.984h15.87v3.87h-15.87v-3.87Z" fill="#444"/><path d="M54.94 8.625h18.954v19.357H54.94V8.625Z" fill="#9B9B9B"/><path d="M54.94 8.625h15.83v19.357H54.94V8.625Z" fill="#747474"/><path d="M54.944 16.366h9.898v11.618h-9.898V16.366Z" fill="#626262"/><path d="M54.94 20.25h26.983v7.731H54.94v-7.73Z" fill="#727272"/><path d="M54.94 20.25h18.954v7.731H54.94v-7.73Z" fill="#626262"/><path d="M54.94 20.25h15.83v7.731H54.94v-7.73Z" fill="#4F4F4F"/><path d="M54.94 20.25h9.912v7.731H54.94v-7.73Z" fill="#444"/></g></svg>