<svg width="67" height="27" viewBox="0 0 67 27" fill="none" xmlns="http://www.w3.org/2000/svg">
<g style="mix-blend-mode:luminosity">
<path d="M40.5901 2.93961H39.3237V14.1367H40.5901V2.93961Z" fill="#F2F2F2"/>
<path d="M44.7964 2.93961H43.53V14.1367H44.7964V2.93961Z" fill="#F2F2F2"/>
<path d="M49.0137 6.67558H47.7473V14.1366H49.0137V6.67558Z" fill="#F2F2F2"/>
<path d="M51.23 10.5127V10.4006C51.23 8.15665 52.6887 6.59713 54.758 6.59713C56.4993 6.59713 58.1502 7.62933 58.1502 10.2884V10.6698H52.4739C52.5304 12.364 53.3558 13.2952 54.8936 13.2952C56.0583 13.2952 56.7368 12.8688 56.8951 12.0049H58.0937C57.8336 13.4971 56.5785 14.2713 54.8823 14.2713C52.7452 14.2713 51.23 12.7903 51.23 10.5127ZM56.9177 9.71616C56.8046 8.19031 56.0018 7.56201 54.758 7.56201C53.5141 7.56201 52.7113 8.38104 52.5078 9.71616H56.9177Z" fill="#F2F2F2"/>
<path d="M30.7749 12.0835C30.7749 10.3669 32.5954 9.78348 34.5516 9.78348H35.6484V9.24494C35.6484 8.06689 35.1848 7.57323 34.0315 7.57323C32.9912 7.57323 32.4145 7.99957 32.3014 8.90835H31.0916C31.2499 7.22543 32.6181 6.59713 34.0767 6.59713C35.5354 6.59713 36.8244 7.18055 36.8244 9.24494V14.1367H35.6258V13.2054C35.0831 13.9347 34.1898 14.3386 33.2739 14.2825C31.8718 14.2825 30.7636 13.6093 30.7636 12.0947L30.7749 12.0835ZM35.6371 11.5562V10.6137H34.5968C33.0817 10.6137 31.9735 10.9727 31.9735 12.0723C31.9735 12.8352 32.3354 13.3176 33.3983 13.3176C34.6647 13.3176 35.6371 12.6781 35.6371 11.5225" fill="#F2F2F2"/>
<path d="M51.2075 22.0351C51.2075 20.3185 53.0506 19.7351 54.9842 19.7351H56.081V19.1966C56.081 18.0185 55.6174 17.5249 54.4641 17.5249C53.4238 17.5249 52.8471 17.9512 52.734 18.86H51.5354C51.6937 17.1658 53.0619 16.5488 54.5206 16.5488C55.9792 16.5488 57.2683 17.1322 57.2683 19.1966V24.0883H56.0697V23.1458C55.527 23.8751 54.645 24.279 53.7178 24.2229C52.3157 24.2229 51.2075 23.561 51.2075 22.0463V22.0351ZM56.0697 21.5078V20.5654H55.0294C53.5142 20.5654 52.4061 20.9244 52.4061 22.0239C52.4061 22.7868 52.7679 23.2693 53.8308 23.2693C55.0973 23.2693 56.0697 22.6297 56.0697 21.4741" fill="#F2F2F2"/>
<path d="M59.4394 20.4644V20.3522C59.4394 18.1083 60.8981 16.5488 62.9673 16.5488C64.7087 16.5488 66.3482 17.581 66.3482 20.24V20.6215H60.6832C60.7398 22.3156 61.5652 23.2468 63.103 23.2468C64.2677 23.2468 64.9235 22.8205 65.1044 21.9566H66.303C66.0429 23.4488 64.7878 24.2229 63.0917 24.2229C60.9659 24.2229 59.4507 22.7419 59.4394 20.4644ZM65.1383 19.6678C65.0253 18.1419 64.2224 17.5136 62.9786 17.5136C61.7348 17.5136 60.932 18.3327 60.7284 19.6678H65.1383Z" fill="#F2F2F2"/>
<path d="M22.9163 11.8591H24.081C24.1714 12.7342 24.6463 13.2952 25.8562 13.2952C26.9983 13.2952 27.4958 12.9137 27.4958 12.1171C27.4958 11.3206 26.9078 11.0849 25.7318 10.8718C23.7757 10.5127 23.1085 9.97421 23.1085 8.68396C23.1085 7.30396 24.4767 6.59713 25.664 6.59713C27.0209 6.59713 28.1856 7.13567 28.3891 8.75128H27.2357C27.0548 7.92104 26.6025 7.56201 25.6414 7.56201C24.7707 7.56201 24.2166 7.98835 24.2166 8.63909C24.2166 9.28982 24.5785 9.57031 25.9693 9.81714C27.5297 10.0976 28.6152 10.4454 28.6152 12.0162C28.6152 13.3625 27.6767 14.2713 25.8562 14.2713C24.0244 14.2713 22.9728 13.3737 22.905 11.8591" fill="#F2F2F2"/>
<path d="M47.5101 3.52294C47.5101 2.99562 47.9398 2.56928 48.4825 2.56928C49.0253 2.56928 49.455 2.99562 49.455 3.52294C49.455 4.05025 49.0253 4.4766 48.4825 4.4766C47.9398 4.46538 47.5101 4.05025 47.5101 3.52294Z" fill="#F2F2F2"/>
<path d="M17.3193 3.52291C17.3193 3.14145 17.5568 2.79364 17.9186 2.63657C18.2804 2.49072 18.6988 2.56925 18.9815 2.84974C19.2642 3.11901 19.3433 3.53413 19.185 3.89316C19.038 4.25218 18.6762 4.47657 18.2804 4.47657C17.749 4.46535 17.3193 4.05023 17.3193 3.52291Z" fill="#F2F2F2"/>
<path d="M46.617 16.5489C45.7576 16.5377 44.9661 16.9865 44.5477 17.7157C44.2311 16.9865 43.4961 16.5265 42.7046 16.5489C41.8226 16.5265 40.9859 16.9753 40.5336 17.727V16.6274H39.3237V24.0997H40.5901V19.7914C40.5901 18.4787 41.4834 17.6372 42.241 17.6372C43.1682 17.6372 43.5414 18.1309 43.5414 19.4323V24.0997H44.8078V19.7914C44.8078 18.4562 45.4523 17.6372 46.3682 17.6372C47.2841 17.6372 47.759 18.1309 47.759 19.4323V24.0997H49.0255V19.4548C49.0141 17.2894 47.8947 16.5489 46.617 16.5489Z" fill="#F2F2F2"/>
<path d="M10.8742 19.2864H9.60774C9.60774 12.3415 11.1908 8.52689 15.3971 5.13859L16.1773 6.08103C12.265 9.24494 10.8742 12.7006 10.8742 19.2864Z" fill="#F2F2F2"/>
<path d="M10.8742 18.8713H9.60774V24.0323H10.8742V18.8713Z" fill="#F2F2F2"/>
<path d="M6.59989 0.426392H5.38999V26.5903H6.59989V0.426392Z" fill="#F2F2F2"/>
<path d="M2.38213 11.1522H1.17224V24.0322H2.38213V11.1522Z" fill="#F2F2F2"/>
<path d="M35.6371 11.5562V10.6137H34.5968C33.0817 10.6137 31.9735 10.9727 31.9735 12.0723C31.9735 12.8352 32.3354 13.3176 33.3983 13.3176C34.6647 13.3176 35.6371 12.6781 35.6371 11.5225M56.0697 21.5078V20.5654H55.0294C53.5142 20.5654 52.4061 20.9244 52.4061 22.0239C52.4061 22.7868 52.7679 23.2693 53.8308 23.2693C55.0973 23.2693 56.0697 22.6297 56.0697 21.4741M22.9163 11.8591H24.081C24.1714 12.7342 24.6463 13.2952 25.8562 13.2952C26.9983 13.2952 27.4958 12.9137 27.4958 12.1171C27.4958 11.3206 26.9078 11.0849 25.7318 10.8718C23.7757 10.5127 23.1085 9.97421 23.1085 8.68396C23.1085 7.30396 24.4767 6.59713 25.664 6.59713C27.0209 6.59713 28.1856 7.13567 28.3891 8.75128H27.2357C27.0548 7.92104 26.6025 7.56201 25.6414 7.56201C24.7707 7.56201 24.2166 7.98835 24.2166 8.63909C24.2166 9.28982 24.5785 9.57031 25.9693 9.81714C27.5297 10.0976 28.6152 10.4454 28.6152 12.0162C28.6152 13.3625 27.6767 14.2713 25.8562 14.2713C24.0244 14.2713 22.9728 13.3737 22.905 11.8591M40.5901 2.93961H39.3237V14.1367H40.5901V2.93961ZM44.7964 2.93961H43.53V14.1367H44.7964V2.93961ZM49.0137 6.67558H47.7473V14.1366H49.0137V6.67558ZM51.23 10.5127V10.4006C51.23 8.15665 52.6887 6.59713 54.758 6.59713C56.4993 6.59713 58.1502 7.62933 58.1502 10.2884V10.6698H52.4739C52.5304 12.364 53.3558 13.2952 54.8936 13.2952C56.0583 13.2952 56.7368 12.8688 56.8951 12.0049H58.0937C57.8336 13.4971 56.5785 14.2713 54.8823 14.2713C52.7452 14.2713 51.23 12.7903 51.23 10.5127ZM56.9177 9.71616C56.8046 8.19031 56.0018 7.56201 54.758 7.56201C53.5141 7.56201 52.7113 8.38104 52.5078 9.71616H56.9177ZM30.7749 12.0835C30.7749 10.3669 32.5954 9.78348 34.5516 9.78348H35.6484V9.24494C35.6484 8.06689 35.1848 7.57323 34.0315 7.57323C32.9912 7.57323 32.4145 7.99957 32.3014 8.90835H31.0916C31.2499 7.22543 32.6181 6.59713 34.0767 6.59713C35.5354 6.59713 36.8244 7.18055 36.8244 9.24494V14.1367H35.6258V13.2054C35.0831 13.9347 34.1898 14.3386 33.2739 14.2825C31.8718 14.2825 30.7636 13.6093 30.7636 12.0947L30.7749 12.0835ZM51.2075 22.0351C51.2075 20.3185 53.0506 19.7351 54.9842 19.7351H56.081V19.1966C56.081 18.0185 55.6174 17.5249 54.4641 17.5249C53.4238 17.5249 52.8471 17.9512 52.734 18.86H51.5354C51.6937 17.1658 53.0619 16.5488 54.5206 16.5488C55.9792 16.5488 57.2683 17.1322 57.2683 19.1966V24.0883H56.0697V23.1458C55.527 23.8751 54.645 24.279 53.7178 24.2229C52.3157 24.2229 51.2075 23.561 51.2075 22.0463V22.0351ZM59.4394 20.4644V20.3522C59.4394 18.1083 60.8981 16.5488 62.9673 16.5488C64.7087 16.5488 66.3482 17.581 66.3482 20.24V20.6215H60.6832C60.7398 22.3156 61.5652 23.2468 63.103 23.2468C64.2677 23.2468 64.9235 22.8205 65.1044 21.9566H66.303C66.0429 23.4488 64.7878 24.2229 63.0917 24.2229C60.9659 24.2229 59.4507 22.7419 59.4394 20.4644ZM65.1383 19.6678C65.0253 18.1419 64.2224 17.5136 62.9786 17.5136C61.7348 17.5136 60.932 18.3327 60.7284 19.6678H65.1383ZM47.5101 3.52294C47.5101 2.99562 47.9398 2.56928 48.4825 2.56928C49.0253 2.56928 49.455 2.99562 49.455 3.52294C49.455 4.05025 49.0253 4.4766 48.4825 4.4766C47.9398 4.46538 47.5101 4.05025 47.5101 3.52294ZM17.3193 3.52291C17.3193 3.14145 17.5568 2.79364 17.9186 2.63657C18.2804 2.49072 18.6988 2.56925 18.9815 2.84974C19.2642 3.11901 19.3433 3.53413 19.185 3.89316C19.038 4.25218 18.6762 4.47657 18.2804 4.47657C17.749 4.46535 17.3193 4.05023 17.3193 3.52291ZM46.617 16.5489C45.7576 16.5377 44.9661 16.9865 44.5477 17.7157C44.2311 16.9865 43.4961 16.5265 42.7046 16.5489C41.8226 16.5265 40.9859 16.9753 40.5336 17.727V16.6274H39.3237V24.0997H40.5901V19.7914C40.5901 18.4787 41.4834 17.6372 42.241 17.6372C43.1682 17.6372 43.5414 18.1309 43.5414 19.4323V24.0997H44.8078V19.7914C44.8078 18.4562 45.4523 17.6372 46.3682 17.6372C47.2841 17.6372 47.759 18.1309 47.759 19.4323V24.0997H49.0255V19.4548C49.0141 17.2894 47.8947 16.5489 46.617 16.5489ZM10.8742 19.2864H9.60774C9.60774 12.3415 11.1908 8.52689 15.3971 5.13859L16.1773 6.08103C12.265 9.24494 10.8742 12.7006 10.8742 19.2864ZM10.8742 18.8713H9.60774V24.0323H10.8742V18.8713ZM6.59989 0.426392H5.38999V26.5903H6.59989V0.426392ZM2.38213 11.1522H1.17224V24.0322H2.38213V11.1522Z" stroke="#F2F2F2" stroke-width="0.5"/>
</g>
</svg>
