<svg width="96" height="40" fill="none" xmlns="http://www.w3.org/2000/svg"><path d="M57.85 4.65h-1.826v16.263h1.826V4.65ZM63.917 4.65H62.09v16.263h1.827V4.65ZM70 10.076h-1.827v10.836h1.826V10.076ZM73.196 15.65v-.164c0-3.259 2.104-5.524 5.088-5.524 2.511 0 4.892 1.5 4.892 5.361v.554H74.99c.081 2.46 1.272 3.813 3.49 3.813 1.68 0 2.658-.619 2.886-1.873h1.729c-.375 2.167-2.186 3.291-4.632 3.291-3.082 0-5.267-2.15-5.267-5.459Zm8.203-1.158c-.163-2.216-1.321-3.128-3.115-3.128-1.794 0-2.952 1.19-3.245 3.128h6.36ZM43.694 17.93c0-2.493 2.626-3.34 5.447-3.34h1.582v-.782c0-1.711-.668-2.428-2.332-2.428-1.5 0-2.332.62-2.495 1.939h-1.745c.228-2.444 2.202-3.357 4.305-3.357 2.104 0 3.963.848 3.963 3.846v7.105h-1.728V19.56a3.924 3.924 0 0 1-3.392 1.564c-2.023 0-3.62-.977-3.62-3.177l.015-.017Zm7.013-.765v-1.37h-1.5c-2.186 0-3.784.522-3.784 2.12 0 1.107.522 1.808 2.055 1.808 1.826 0 3.229-.929 3.229-2.607M73.163 32.384c0-2.493 2.659-3.34 5.447-3.34h1.582v-.782c0-1.712-.668-2.428-2.332-2.428-1.5 0-2.332.619-2.495 1.939h-1.729c.229-2.46 2.202-3.357 4.306-3.357 2.103 0 3.963.847 3.963 3.846v7.104h-1.73v-1.369a3.906 3.906 0 0 1-3.391 1.565c-2.023 0-3.62-.962-3.62-3.162v-.016Zm7.013-.766V30.25h-1.5c-2.186 0-3.784.522-3.784 2.119 0 1.108.522 1.808 2.055 1.808 1.826 0 3.229-.928 3.229-2.607M85.036 30.103v-.163c0-3.26 2.103-5.524 5.088-5.524 2.511 0 4.876 1.499 4.876 5.36v.555h-8.17c.081 2.46 1.272 3.813 3.49 3.813 1.68 0 2.625-.62 2.886-1.874h1.729c-.375 2.167-2.186 3.292-4.632 3.292-3.066 0-5.25-2.151-5.267-5.46Zm8.219-1.157c-.163-2.216-1.32-3.129-3.115-3.129-1.794 0-2.952 1.19-3.245 3.129h6.36ZM32.36 17.605h1.68c.13 1.27.816 2.085 2.56 2.085 1.648 0 2.365-.554 2.365-1.71 0-1.157-.848-1.5-2.544-1.81-2.821-.52-3.783-1.303-3.783-3.177 0-2.004 1.973-3.03 3.685-3.03 1.957 0 3.637.781 3.93 3.128H38.59c-.26-1.206-.913-1.727-2.3-1.727-1.255 0-2.054.619-2.054 1.564 0 .945.522 1.352 2.528 1.71 2.25.408 3.816.914 3.816 3.195 0 1.955-1.354 3.275-3.98 3.275-2.642 0-4.158-1.303-4.256-3.503M67.83 5.497c0-.766.62-1.385 1.403-1.385s1.403.62 1.403 1.385c0 .766-.62 1.385-1.403 1.385-.783-.016-1.402-.619-1.402-1.385ZM24.288 5.497c0-.554.343-1.059.864-1.287a1.413 1.413 0 0 1 1.533.31c.408.39.522.994.294 1.515-.212.521-.734.847-1.305.847-.766-.016-1.386-.619-1.386-1.385ZM66.543 24.416a3.377 3.377 0 0 0-2.985 1.695 2.812 2.812 0 0 0-2.658-1.695 3.546 3.546 0 0 0-3.131 1.711V24.53h-1.745v10.853h1.826v-6.258c0-1.906 1.289-3.128 2.381-3.128 1.338 0 1.876.717 1.876 2.607v6.779h1.826v-6.258c0-1.939.93-3.128 2.25-3.128 1.322 0 2.007.717 2.007 2.607v6.779h1.826v-6.747c-.016-3.145-1.63-4.22-3.473-4.22ZM14.993 28.392h-1.827c0-10.087 2.283-15.627 8.35-20.548l1.125 1.369c-5.642 4.595-7.648 9.614-7.648 19.179Z" fill="#fff"/><path d="M14.993 27.79h-1.827v7.495h1.827v-7.496ZM8.828 1H7.083v38h1.745V1ZM2.745 16.578H1v18.707h1.745V16.578Z" fill="#fff"/><path d="M50.707 17.165v-1.37h-1.5c-2.186 0-3.784.522-3.784 2.12 0 1.107.522 1.808 2.055 1.808 1.826 0 3.229-.929 3.229-2.607m29.469 14.502V30.25h-1.5c-2.186 0-3.784.522-3.784 2.119 0 1.108.522 1.808 2.055 1.808 1.826 0 3.229-.928 3.229-2.607M32.36 17.605h1.68c.13 1.27.816 2.085 2.56 2.085 1.648 0 2.365-.554 2.365-1.71 0-1.157-.848-1.5-2.544-1.81-2.821-.52-3.783-1.303-3.783-3.177 0-2.004 1.973-3.03 3.685-3.03 1.957 0 3.637.781 3.93 3.128H38.59c-.26-1.206-.913-1.727-2.3-1.727-1.255 0-2.054.619-2.054 1.564 0 .945.522 1.352 2.528 1.71 2.25.408 3.816.914 3.816 3.195 0 1.955-1.354 3.275-3.98 3.275-2.642 0-4.158-1.303-4.256-3.503M57.85 4.65h-1.826v16.263h1.826V4.65Zm6.067 0H62.09v16.263h1.827V4.65Zm6.082 5.426h-1.826v10.836h1.826V10.076Zm3.197 5.573v-.163c0-3.259 2.104-5.524 5.088-5.524 2.511 0 4.892 1.5 4.892 5.361v.554H74.99c.081 2.46 1.272 3.813 3.49 3.813 1.68 0 2.658-.619 2.886-1.873h1.729c-.375 2.167-2.186 3.291-4.632 3.291-3.082 0-5.267-2.15-5.267-5.459Zm8.203-1.157c-.163-2.216-1.321-3.128-3.115-3.128-1.794 0-2.952 1.19-3.245 3.128h6.36ZM43.694 17.93c0-2.493 2.626-3.34 5.447-3.34h1.582v-.782c0-1.711-.668-2.428-2.332-2.428-1.5 0-2.332.62-2.495 1.939h-1.745c.228-2.444 2.202-3.357 4.305-3.357 2.104 0 3.963.848 3.963 3.846v7.105h-1.728V19.56a3.924 3.924 0 0 1-3.392 1.564c-2.023 0-3.62-.977-3.62-3.177l.015-.017Zm29.47 14.454c0-2.493 2.657-3.34 5.446-3.34h1.582v-.782c0-1.712-.668-2.428-2.332-2.428-1.5 0-2.332.619-2.495 1.939h-1.729c.229-2.46 2.202-3.357 4.306-3.357 2.103 0 3.963.847 3.963 3.846v7.104h-1.73v-1.369a3.906 3.906 0 0 1-3.391 1.565c-2.023 0-3.62-.962-3.62-3.162v-.016Zm11.872-2.281v-.163c0-3.26 2.103-5.524 5.088-5.524 2.511 0 4.876 1.499 4.876 5.36v.555h-8.17c.081 2.46 1.272 3.813 3.49 3.813 1.68 0 2.625-.62 2.886-1.874h1.729c-.375 2.167-2.186 3.292-4.632 3.292-3.066 0-5.25-2.151-5.267-5.46Zm8.219-1.157c-.163-2.216-1.32-3.129-3.115-3.129-1.794 0-2.952 1.19-3.245 3.129h6.36ZM67.831 5.497c0-.766.62-1.385 1.402-1.385.783 0 1.403.62 1.403 1.385 0 .766-.62 1.385-1.403 1.385-.783-.016-1.402-.619-1.402-1.385Zm-43.543 0c0-.554.343-1.059.864-1.287a1.413 1.413 0 0 1 1.533.31c.408.39.522.994.294 1.515-.212.521-.734.847-1.305.847-.766-.016-1.386-.619-1.386-1.385Zm42.255 18.919a3.377 3.377 0 0 0-2.985 1.695 2.812 2.812 0 0 0-2.658-1.695 3.546 3.546 0 0 0-3.131 1.711V24.53h-1.745v10.853h1.826v-6.258c0-1.906 1.289-3.128 2.381-3.128 1.338 0 1.876.717 1.876 2.607v6.779h1.826v-6.258c0-1.939.93-3.128 2.25-3.128 1.322 0 2.007.717 2.007 2.607v6.779h1.826v-6.747c-.016-3.145-1.63-4.22-3.473-4.22Zm-51.55 3.976h-1.827c0-10.087 2.283-15.627 8.35-20.548l1.125 1.369c-5.642 4.595-7.648 9.614-7.648 19.179Zm0-.603h-1.827v7.496h1.827v-7.496ZM8.828 1H7.083v38h1.745V1ZM2.745 16.578H1v18.707h1.745V16.578Z" stroke="#fff" stroke-width=".5"/></svg>