<svg width="58" height="38" fill="none" xmlns="http://www.w3.org/2000/svg"><path fillRule="evenodd" clipRule="evenodd" d="M41.866 1.614c.2 1.493.013 2.086-1.262 3.98-1.524 2.264-1.665 3.094-.562 3.293.352.063 1.132-.828 1.819-2.079.662-1.204 1.69-2.41 2.283-2.681.595-.271 1.081-.752 1.081-1.069 0-.66 4.537.817 5.61 1.826 1.073 1.01 1.375 4.544.388 4.544-2.244 0-4.568 2.15-6.218 5.754-1.509 3.296-5.602 5.554-10.067 5.554-.124 0 .476-1.255 1.334-2.789 3.234-5.784 2.707-6.163-9.749-7.004C-3.202 8.935-.773 8.832.859 12.03c3.395 6.655 11.526 10.392 23.59 10.842l6.842.255-2.611 4.567H8.76l.66 1.68c3.952 10.059 13.374 11.628 18.456 3.074 1.7-2.861 1.872-3.014 3.396-3.014 5.81 0 10.67-3.794 14.166-11.057 3.12-6.485 3.644-6.935 8.381-7.21l3.744-.217-1.996-1.523c-1.521-1.16-2.055-1.888-2.245-3.063-.38-2.346-2.102-3.632-6.906-5.157-5.217-1.657-4.83-1.691-4.55.406ZM11.518 11.617c3.349.242 8.927.63 12.395.86 13.997.927 13.298.556 10.416 5.534l-1.762 3.044-3.624.294c-9.569.777-18.967-1.956-24.058-6.994-3.568-3.533-3.682-3.486 6.633-2.738ZM40.769 23.02c-1.841 2.247-5.152 4.142-7.893 4.518-2.378.326-2.389.283-.642-2.636l1.361-2.276 3.276-.551c1.803-.303 3.685-.705 4.185-.894 1.42-.539 1.364-.175-.287 1.84Zm-13.376 6.672c0 .68-2.816 4.836-3.75 5.534-3.509 2.622-8.629.661-11.606-4.445l-.786-1.347h8.071c4.44 0 8.07.116 8.07.258Z" fill="#F2F2F2"/></svg>