<svg width="824" height="541" viewBox="0 0 824 541" fill="none" xmlns="http://www.w3.org/2000/svg">
<path opacity="0.05" fillRule="evenodd" clipRule="evenodd" d="M599.306 22.9827C602.171 44.2403 599.48 52.6816 581.239 79.6389C559.426 111.879 557.397 123.69 573.19 126.521C578.229 127.423 589.394 114.739 599.23 96.9304C608.7 79.7878 623.409 62.6073 631.916 58.7524C640.422 54.8975 647.384 48.0491 647.384 43.5359C647.384 34.1357 712.331 55.163 727.688 69.537C743.056 83.9164 747.379 134.228 733.25 134.228C701.123 134.228 667.854 164.845 644.241 216.143C622.641 263.071 564.052 295.219 500.131 295.219C498.35 295.219 506.938 277.353 519.217 255.513C565.52 173.167 557.969 167.768 379.67 155.792C-45.8379 127.204 -11.071 125.735 12.2913 171.282C60.8925 266.029 177.287 319.231 349.983 325.641L447.927 329.276L410.547 394.292H125.409L134.855 418.202C191.416 561.414 326.291 583.755 399.039 461.969C423.371 421.236 425.836 419.061 447.657 419.061C530.829 419.061 600.395 365.051 650.432 261.641C695.097 169.326 702.594 162.914 770.406 158.996L824 155.9L795.43 134.228C773.653 117.708 766.01 107.341 763.289 90.6211C757.849 57.2245 733.196 38.9144 664.43 17.1963C589.759 -6.38558 595.28 -6.87591 599.306 22.9827ZM164.877 165.384C212.817 168.841 292.663 174.346 342.316 177.621C542.667 190.835 532.668 185.55 491.412 256.423L466.184 299.762L414.317 303.947C277.333 315 142.803 276.099 69.9329 204.364C18.8476 154.074 17.2187 154.743 164.877 165.384ZM583.603 327.748C557.245 359.742 509.853 386.715 470.608 392.066C436.565 396.706 436.418 396.102 461.418 354.535L480.904 322.133L527.806 314.293C553.603 309.983 580.552 304.253 587.7 301.56C608.039 293.894 607.227 299.074 583.603 327.748ZM392.121 422.737C392.121 432.424 351.811 491.584 338.44 501.52C288.215 538.845 214.928 510.931 172.308 438.241L161.061 419.061H276.59C340.134 419.061 392.121 420.713 392.121 422.737Z" fill="#F2F2F2"/>
</svg>
