<svg width="41" height="33" viewBox="0 0 41 33" fill="none" xmlns="http://www.w3.org/2000/svg">
<path fill-rule="evenodd" clip-rule="evenodd" d="M38.9997 2.20277C37.1663 3.1011 35.3697 3.46593 33.4997 4.01777C31.4445 1.6986 28.3975 1.57027 25.4697 2.6666C22.5418 3.76293 20.6242 6.44327 20.6663 9.51777V11.3511C14.7172 11.5033 9.41884 8.7936 5.99967 4.01777C5.99967 4.01777 -1.66733 17.6449 13.333 24.1844C9.90101 26.4706 6.47817 28.0124 2.33301 27.8511C8.39767 31.1566 15.0068 32.2933 20.7287 30.6323C27.292 28.7256 32.6857 23.8068 34.7555 16.4386C35.373 14.1977 35.6795 11.8825 35.6667 9.5581C35.663 9.1016 38.435 4.4761 38.9997 2.20093V2.20277Z" fill="#FFF8EB" stroke="#343434" stroke-width="3" stroke-linecap="round" stroke-linejoin="round"/>
</svg>
