<svg width="41" height="33" fill="none" xmlns="http://www.w3.org/2000/svg"><path fill-rule="evenodd" clip-rule="evenodd" d="M39 2.203c-1.834.898-3.63 1.263-5.5 1.815-2.055-2.32-5.102-2.448-8.03-1.351-2.928 1.096-4.846 3.776-4.804 6.85v1.834C14.717 11.503 9.42 8.794 6 4.018c0 0-7.667 13.627 7.333 20.166-3.432 2.287-6.855 3.828-11 3.667 6.065 3.306 12.674 4.442 18.396 2.781 6.563-1.906 11.957-6.825 14.026-14.193.618-2.241.924-4.556.912-6.88C35.663 9.101 38.435 4.475 39 2.2v.002Z" fill="#FFF8EB" stroke="#343434" stroke-width="3" stroke-linecap="round" stroke-linejoin="round"/></svg>