<svg width="125" height="105" fill="none" xmlns="http://www.w3.org/2000/svg"><path d="M111.931 88.983a26.004 26.004 0 0 0 12.438-26.075 25.996 25.996 0 0 0-19.33-21.47 26.004 26.004 0 0 0-19.694 2.855l6.77 11.38a12.757 12.757 0 0 1 13.046 21.929l6.77 11.38Z" fill="#D72929"/><path fill-rule="evenodd" clip-rule="evenodd" d="M122 105 61 0 49.658 19.523A25.88 25.88 0 0 0 35 15C20.64 15 9 26.64 9 41c0 10.27 5.955 19.15 14.601 23.375L0 105h122ZM49.658 19.523 23.601 64.375A25.894 25.894 0 0 0 35 67c14.36 0 26-11.64 26-26 0-8.922-4.494-16.794-11.342-21.477Z" fill="#D72929"/></svg>