<svg width="209" height="139" viewBox="0 0 209 139" fill="none" xmlns="http://www.w3.org/2000/svg">
<path d="M44.1226 138C39.0118 137.362 35.9453 133.727 34.9231 127.095C34.7953 126.139 34.7315 124.863 34.7315 123.269C34.7315 121.611 34.7953 120.144 34.9231 118.869C35.9453 109.43 39.8742 97.1544 46.71 82.0406C47.5405 80.1275 48.6904 77.6723 50.1598 74.675C51.693 71.6778 53.0346 69.0632 54.1845 66.8312C54.6956 65.9384 55.1109 65.1731 55.4303 64.5354L55.8136 63.6745C55.7497 63.6745 55.6539 63.7383 55.5261 63.8658C55.2706 64.0571 54.9831 64.2803 54.6637 64.5354C53.7054 65.3644 50.575 67.9153 45.2725 72.188C39.5229 76.8433 32.1441 82.9972 23.1363 90.6498C19.0476 94.1572 15.8533 96.8037 13.5535 98.5893C11.3175 100.375 9.56064 101.65 8.28293 102.416C7.26076 103.053 6.49414 103.468 5.98306 103.659C5.40809 103.85 4.76924 103.946 4.0665 103.946C3.68318 103.946 3.3957 103.946 3.20404 103.946C3.01239 103.946 2.85267 103.914 2.7249 103.85C2.59713 103.787 2.46936 103.691 2.34159 103.563C2.14994 103.5 1.95828 103.372 1.76662 103.181C1.57497 102.99 1.4472 102.798 1.38331 102.607C1.25554 102.416 1.15971 102.256 1.09583 102.129C1.03194 101.937 1 101.714 1 101.459C1 101.14 1 100.662 1 100.024C1 99.2589 1.03194 98.6531 1.09583 98.2067C1.09583 97.7603 1.19166 97.2501 1.38331 96.6762C2.7249 91.1281 7.00522 81.7537 14.2243 68.553C20.9322 56.3727 28.3429 44.0967 36.4564 31.725C44.6337 19.2896 50.7667 10.9037 54.8553 6.56724C55.8136 5.61067 56.4844 5.03673 56.8677 4.84541C57.3149 4.6541 57.6663 4.55844 57.9218 4.55844C58.1774 4.55844 58.4329 4.6541 58.6885 4.84541C59.1995 5.16427 59.4551 5.57878 59.4551 6.08895C59.4551 6.28027 59.4231 6.47158 59.3593 6.6629C59.2954 7.04552 59.1357 7.5557 58.8801 8.19341C58.6246 8.76735 58.369 9.30941 58.1135 9.81958C57.858 10.3297 57.6663 10.6167 57.5385 10.6805C57.283 10.8718 57.0274 10.9675 56.7719 10.9675C56.5164 10.9675 56.2289 10.808 55.9094 10.4892L55.4303 10.1065L54.3762 11.5414C52.3958 13.9647 49.7126 17.6316 46.3267 22.542C42.9407 27.3886 39.6826 32.2671 36.5522 37.1775C26.0111 53.5667 17.4824 68.266 10.9661 81.2754C6.36637 90.4585 4.03455 96.6124 3.97067 99.7372V100.981H4.35398C4.92895 100.853 5.91917 100.343 7.32465 99.4502C8.66624 98.5574 10.2314 97.4095 12.0202 96.0066C13.1702 95.1138 14.4479 94.0934 15.8533 92.9455C17.2588 91.7339 19.4948 89.8207 22.5613 87.2061C27.0972 83.3161 30.9942 80.0318 34.2523 77.3534C37.5744 74.6113 41.4714 71.3908 45.9433 67.6921C48.5626 65.6514 50.5431 64.089 51.8847 63.0049C53.2263 61.9208 54.2484 61.0599 54.9512 60.4221C55.7178 59.7207 56.4844 58.9554 57.251 58.1264C58.7204 56.7234 59.7106 55.8625 60.2217 55.5436C60.7967 55.161 61.2758 54.9697 61.6591 54.9697C61.7869 54.9697 61.9147 55.0016 62.0424 55.0654C62.7452 55.3204 63.0966 55.7668 63.0966 56.4046C63.0966 56.7234 62.9688 57.1379 62.7132 57.6481C62.5855 57.9032 62.3619 58.3177 62.0424 58.8916C61.723 59.4018 61.3716 60.0076 60.9883 60.7091C56.0692 69.4458 51.693 78.1187 47.8599 86.7278C42.7491 98.6531 39.5229 108.793 38.1813 117.147C37.9896 118.55 37.8618 119.857 37.798 121.069C37.798 122.217 37.798 123.014 37.798 123.46C37.798 124.736 37.8618 125.82 37.9896 126.712C38.7562 132.261 41.2158 135.035 45.3684 135.035C46.71 135.035 48.2113 134.748 49.8723 134.174C58.944 130.858 69.517 121.706 81.5914 106.72C88.2354 98.3661 94.6879 89.0874 100.949 78.884C107.273 68.6805 112.129 59.6888 115.514 51.9087C117.878 46.2968 119.954 40.2704 121.743 33.8295C123.532 27.3248 124.746 21.3303 125.385 15.846C125.513 14.8256 125.608 13.8372 125.672 12.8806C125.736 11.924 125.768 11.1269 125.768 10.4892L125.672 8.76735C125.608 7.68324 125.544 6.91798 125.481 6.47158C125.289 5.83387 125.065 5.3237 124.81 4.94107C124.618 4.55844 124.299 4.14393 123.852 3.69753C123.532 3.44244 123.308 3.25113 123.181 3.12359C123.053 2.93227 122.957 2.80473 122.893 2.74096C122.893 2.61342 122.893 2.45399 122.893 2.26267C122.893 2.00759 122.925 1.81627 122.989 1.68873C123.053 1.56119 123.149 1.46553 123.277 1.40176C123.532 1.14667 123.788 1.01913 124.043 1.01913C124.299 0.95536 124.682 1.05102 125.193 1.3061C126.726 2.00759 127.78 3.44244 128.355 5.61067C128.483 5.92953 128.547 6.24838 128.547 6.56724C128.611 6.8861 128.643 7.3325 128.643 7.90644C128.643 8.48038 128.643 9.34129 128.643 10.4892C128.643 12.5936 128.579 14.3155 128.451 15.6547C128.387 16.9301 128.132 18.6838 127.685 20.9158C125.704 32.012 122.51 42.885 118.102 53.5348C114.652 61.4425 109.701 70.5937 103.248 80.9884C96.7961 91.3831 90.1839 100.821 83.4121 109.303C73.7654 121.292 64.6937 129.71 56.1969 134.556C53.2582 136.214 50.575 137.299 48.1474 137.809C47.5724 137.936 46.9655 138 46.3267 138C45.7517 138 45.3045 138 44.9851 138H44.1226Z" fill="white"/>
<path d="M120.264 86.4409C118.475 85.8031 117.485 85.006 117.293 84.0494C117.101 83.0291 117.037 82.1682 117.101 81.4667C117.165 80.7014 117.389 79.8724 117.772 78.9796C118.922 76.4925 120.583 74.2605 122.755 72.2836C124.927 70.3067 126.972 68.84 128.888 67.8834C129.655 67.5008 130.453 67.2457 131.284 67.1181C131.795 66.9906 132.306 66.9268 132.817 66.9268C133.712 66.9268 134.446 67.1181 135.021 67.5008C136.107 68.0109 136.618 68.553 136.554 69.1269V69.8922C136.427 70.9125 135.66 71.9329 134.255 72.9532C131.508 74.8026 128.665 75.7273 125.726 75.7273C124.832 75.7273 123.937 75.6635 123.043 75.536C121.829 76.6201 120.998 77.7361 120.551 78.884C120.104 80.0318 119.88 80.7971 119.88 81.1797C119.753 82.2638 120.104 83.1247 120.935 83.7625C121.573 84.0813 122.404 84.2408 123.426 84.2408H124.384C125.79 84.177 126.972 84.0175 127.93 83.7625C130.933 83.1247 134.478 81.9131 138.567 80.1275C139.845 79.5536 140.771 79.0753 141.346 78.6926C142.432 78.1187 143.23 77.8317 143.742 77.8317H144.029C144.412 77.9593 144.572 78.2144 144.508 78.597C144.508 78.7245 144.476 78.8521 144.412 78.9796C144.157 79.5536 143.582 80.1594 142.687 80.7971C141.793 81.3073 140.547 81.9131 138.95 82.6146C134.095 84.7828 130.038 86.0901 126.78 86.5365C125.566 86.7278 124.448 86.8235 123.426 86.8235C122.212 86.8235 121.158 86.6959 120.264 86.4409ZM127.067 73.3358C128.217 73.2083 129.431 72.8576 130.709 72.2836L132.051 71.5184C133.073 70.8807 133.584 70.4024 133.584 70.0835C133.648 70.0197 133.648 69.956 133.584 69.8922C133.392 69.6371 133.041 69.5096 132.53 69.5096C132.274 69.5096 131.955 69.5415 131.571 69.6052C130.613 69.7965 129.431 70.3705 128.026 71.3271C127.579 71.5821 127.131 71.901 126.684 72.2836C125.918 72.8576 125.502 73.2402 125.438 73.4315C125.438 73.4953 125.534 73.5272 125.726 73.5272C125.981 73.5272 126.429 73.4634 127.067 73.3358Z" fill="white"/>
<path d="M134.979 84.3364V84.0494C134.979 81.4348 135.81 78.4057 137.471 74.962C139.195 71.327 141.208 67.7559 143.508 64.2484C145.872 60.741 147.948 57.8075 149.737 55.448C159.192 43.0126 170.435 31.8845 183.468 22.0637C191.581 15.9416 197.906 12.498 202.442 11.7327C202.889 11.6052 203.272 11.5414 203.592 11.5414C203.911 11.5414 204.263 11.5733 204.646 11.6371C205.221 11.7008 205.668 11.7965 205.988 11.924C206.307 12.0516 206.626 12.2429 206.946 12.498C207.649 13.1357 208 13.9328 208 14.8894C208 15.7822 207.744 16.7707 207.233 17.8548C206.147 20.0868 203.784 23.1478 200.142 27.0378C196.501 30.8641 192.252 34.818 187.397 38.8993C181.008 44.1923 174.141 49.2303 166.794 54.0131C159.447 58.7322 153.314 62.1121 148.395 64.1528C147.884 64.3441 147.469 64.5035 147.149 64.6311L146.574 64.918C146.446 65.0456 146.191 65.3963 145.808 65.9703C145.488 66.5442 145.073 67.2457 144.562 68.0747C144.051 68.9037 143.54 69.7647 143.029 70.6574C140.218 75.4403 138.557 79.3304 138.046 82.3276C137.918 82.9015 137.854 83.4436 137.854 83.9538C137.854 84.7828 138.046 85.5162 138.429 86.1539C138.812 86.7278 139.451 87.0148 140.345 87.0148C140.793 87.0148 141.336 86.9191 141.975 86.7278C143.188 86.2814 144.53 85.4524 145.999 84.2408C147.533 83.0291 148.746 81.8174 149.641 80.6058C149.832 80.2869 150.024 79.9362 150.216 79.5536C150.407 79.1709 150.535 78.8521 150.599 78.597C150.663 78.3419 150.695 78.1506 150.695 78.023V77.9274L150.503 77.8317C150.312 77.768 150.088 77.7042 149.832 77.6404C147.916 77.0665 146.862 76.4288 146.67 75.7273C146.542 75.0258 146.478 74.5475 146.478 74.2924C146.478 73.4634 146.83 72.6981 147.533 71.9966C148.044 71.4865 148.651 71.2314 149.353 71.2314C149.8 71.2314 150.28 71.3589 150.791 71.614C151.749 72.0604 152.548 72.9532 153.186 74.2924L153.666 75.249C156.093 76.1418 158.649 76.5882 161.332 76.5882C164.015 76.5882 166.602 76.0142 169.094 74.8664C170.052 74.4837 170.787 74.2924 171.298 74.2924C171.873 74.2924 172.16 74.5156 172.16 74.962C172.16 75.8548 171.138 76.7795 169.094 77.7361C168.519 77.9274 167.433 78.1825 165.836 78.5013C164.302 78.7564 162.993 78.9158 161.907 78.9796C160.821 78.9796 160.118 78.9796 159.799 78.9796C158.137 78.9796 156.604 78.8202 155.199 78.5013C154.879 78.4376 154.624 78.3738 154.432 78.31C154.24 78.1825 154.081 78.1187 153.953 78.1187C153.825 78.1187 153.729 78.2144 153.666 78.4057C153.602 78.597 153.506 78.884 153.378 79.2666C152.42 82.2001 150.056 85.006 146.287 87.6844C144.69 88.7047 143.348 89.3106 142.262 89.5019C141.24 89.6932 140.505 89.7889 140.058 89.7889C138.972 89.7889 137.982 89.5019 137.087 88.9279C135.873 88.1627 135.171 86.6322 134.979 84.3364ZM153.666 58.6047C167.593 50.697 179.954 41.8966 190.751 32.2033C199.439 24.1044 204.231 18.4287 205.125 15.1764V14.9851C205.125 14.7937 205.061 14.6662 204.934 14.6024C204.806 14.5387 204.454 14.5068 203.879 14.5068C200.749 14.5068 195.606 16.9939 188.451 21.968C181.36 26.8784 174.045 33.0642 166.506 40.5255C162.482 44.5431 158.744 48.6882 155.295 52.9609C154.847 53.5348 154.304 54.2363 153.666 55.0654C153.027 55.8944 152.388 56.7234 151.749 57.5524C151.11 58.3815 150.567 59.1148 150.12 59.7525C149.673 60.3265 149.449 60.6453 149.449 60.7091C149.577 60.7091 149.992 60.5178 150.695 60.1352C151.525 59.7525 152.516 59.2424 153.666 58.6047ZM149.928 74.3881C149.8 74.2605 149.673 74.1968 149.545 74.1968C149.481 74.1968 149.449 74.2605 149.449 74.3881C149.449 74.4518 149.481 74.5156 149.545 74.5794C149.673 74.5794 149.769 74.6113 149.832 74.675C149.896 74.675 149.96 74.675 150.024 74.675H150.12L150.024 74.5794C150.024 74.5156 149.992 74.4518 149.928 74.3881Z" fill="white"/>
<path d="M173.364 103.85C172.725 103.787 171.958 103.659 171.064 103.468C170.17 103.276 169.403 103.085 168.764 102.894C166.017 101.874 164.228 100.439 163.398 98.5893C163.078 97.8878 162.919 97.1544 162.919 96.3892C162.919 94.7311 163.685 92.8818 165.219 90.8411C165.73 90.1396 166.113 89.6932 166.368 89.5019C166.624 89.3106 166.88 89.2149 167.135 89.2149C167.263 89.2149 167.391 89.2468 167.518 89.3106C167.646 89.3743 167.774 89.47 167.902 89.5975C168.029 89.6613 168.093 89.7251 168.093 89.7889C168.285 89.9802 168.381 90.1715 168.381 90.3628C168.381 90.4903 168.349 90.6179 168.285 90.7454C168.157 91.1281 167.87 91.7339 167.423 92.5629C166.656 93.7746 166.209 94.6355 166.081 95.1456C165.953 95.6558 165.889 96.0703 165.889 96.3892C165.889 96.708 165.921 97.0269 165.985 97.3458C167.135 99.4502 170.106 100.694 174.897 101.076H175.472C179.05 101.076 183.011 100.024 187.355 97.9197C191.252 96.0066 194.35 93.7108 196.65 91.0324C199.014 88.2902 200.196 85.8031 200.196 83.5711V83.1885C200.068 81.658 199.333 80.3826 197.992 79.3622C196.586 78.2781 194.542 77.481 191.859 76.9708C190.773 76.8433 189.112 76.7795 186.876 76.7795C184.64 76.7795 182.787 76.8752 181.318 77.0665C179.848 77.2578 178.698 77.4172 177.868 77.5448C177.037 77.6085 176.462 77.6404 176.143 77.6404C175.887 77.6404 175.696 77.6404 175.568 77.6404C175.312 77.6404 175.121 77.6085 174.993 77.5448C174.801 77.481 174.642 77.3853 174.514 77.2578C174.194 76.8752 174.035 76.4925 174.035 76.1099C174.035 75.6635 174.29 75.1852 174.801 74.675C175.057 74.4837 176.079 73.7822 177.868 72.5706C179.657 71.2952 181.829 69.7965 184.384 68.0747C186.94 66.4167 189.239 64.918 191.284 63.5788C193.328 62.1759 194.638 61.2512 195.213 60.8048C196.938 59.5931 198.343 58.5409 199.429 57.6481C200.515 56.6915 201.058 56.0857 201.058 55.8306C201.058 55.7668 200.739 55.735 200.1 55.735C199.461 55.735 198.375 55.7987 196.842 55.9263C195.309 55.99 193.105 56.1495 190.23 56.4046C187.674 56.5959 185.566 56.6915 183.905 56.6915C182.244 56.6915 180.998 56.5959 180.168 56.4046C178.954 55.8944 178.347 55.2567 178.347 54.4914C178.347 54.2363 178.379 54.0131 178.443 53.8218C178.762 53.1841 179.241 52.8652 179.88 52.8652C180.136 52.8652 180.327 52.929 180.455 53.0566C180.583 53.1203 180.743 53.2798 180.934 53.5348L181.413 54.0131H184.097C185.119 54.0131 186.141 53.9812 187.163 53.9175C188.185 53.8537 189.559 53.7262 191.284 53.5348C193.967 53.2798 195.947 53.1203 197.225 53.0566C198.503 52.929 199.461 52.8652 200.1 52.8652H200.962C201.729 52.8652 202.304 52.9609 202.687 53.1522C203.837 53.6624 204.412 54.3958 204.412 55.3523C204.412 55.7987 204.316 56.2451 204.125 56.6915C203.614 57.6481 202.368 58.9554 200.387 60.6135C199.621 61.1874 198.822 61.7932 197.992 62.4309C197.225 63.0049 196.107 63.802 194.638 64.8224C193.168 65.7789 191.028 67.1819 188.217 69.0313C186.045 70.498 184.224 71.7097 182.755 72.6662C181.35 73.6228 180.647 74.133 180.647 74.1968C180.711 74.1968 180.839 74.1968 181.03 74.1968C181.286 74.133 181.573 74.1011 181.893 74.1011C182.979 73.9736 184.033 73.8779 185.055 73.8141C186.077 73.7504 186.908 73.7185 187.546 73.7185C188.121 73.7185 188.664 73.7504 189.176 73.8141C193.584 74.133 197.002 75.1533 199.429 76.8752C201.857 78.5332 203.071 80.7971 203.071 83.6668C202.879 87.5569 200.739 91.3831 196.65 95.1456C192.625 98.8444 187.706 101.491 181.893 103.085C179.721 103.659 177.58 103.946 175.472 103.946C174.769 103.946 174.067 103.914 173.364 103.85Z" fill="white"/>
<path d="M44.1226 138C39.0118 137.362 35.9453 133.727 34.9231 127.095C34.7953 126.139 34.7315 124.863 34.7315 123.269C34.7315 121.611 34.7953 120.144 34.9231 118.869C35.9453 109.43 39.8742 97.1544 46.71 82.0406C47.5405 80.1275 48.6904 77.6723 50.1598 74.675C51.693 71.6778 53.0346 69.0632 54.1845 66.8312C54.6956 65.9384 55.1109 65.1731 55.4303 64.5354L55.8136 63.6745C55.7497 63.6745 55.6539 63.7383 55.5261 63.8658C55.2706 64.0571 54.9831 64.2803 54.6637 64.5354C53.7054 65.3644 50.575 67.9153 45.2725 72.188C39.5229 76.8433 32.1441 82.9972 23.1363 90.6498C19.0476 94.1572 15.8533 96.8037 13.5535 98.5893C11.3175 100.375 9.56064 101.65 8.28293 102.416C7.26076 103.053 6.49414 103.468 5.98306 103.659C5.40809 103.85 4.76924 103.946 4.0665 103.946C3.68318 103.946 3.3957 103.946 3.20404 103.946C3.01239 103.946 2.85267 103.914 2.7249 103.85C2.59713 103.787 2.46936 103.691 2.34159 103.563C2.14994 103.5 1.95828 103.372 1.76662 103.181C1.57497 102.99 1.4472 102.798 1.38331 102.607C1.25554 102.416 1.15971 102.256 1.09583 102.129C1.03194 101.937 1 101.714 1 101.459C1 101.14 1 100.662 1 100.024C1 99.2589 1.03194 98.6531 1.09583 98.2067C1.09583 97.7603 1.19166 97.2501 1.38331 96.6762C2.7249 91.1281 7.00522 81.7537 14.2243 68.553C20.9322 56.3727 28.3429 44.0967 36.4564 31.725C44.6337 19.2896 50.7667 10.9037 54.8553 6.56724C55.8136 5.61067 56.4844 5.03673 56.8677 4.84541C57.3149 4.6541 57.6663 4.55844 57.9218 4.55844C58.1774 4.55844 58.4329 4.6541 58.6885 4.84541C59.1995 5.16427 59.4551 5.57878 59.4551 6.08895C59.4551 6.28027 59.4231 6.47158 59.3593 6.6629C59.2954 7.04552 59.1357 7.5557 58.8801 8.19341C58.6246 8.76735 58.369 9.30941 58.1135 9.81958C57.858 10.3297 57.6663 10.6167 57.5385 10.6805C57.283 10.8718 57.0274 10.9675 56.7719 10.9675C56.5164 10.9675 56.2289 10.808 55.9094 10.4892L55.4303 10.1065L54.3762 11.5414C52.3958 13.9647 49.7126 17.6316 46.3267 22.542C42.9407 27.3886 39.6826 32.2671 36.5522 37.1775C26.0111 53.5667 17.4824 68.266 10.9661 81.2754C6.36637 90.4585 4.03455 96.6124 3.97067 99.7372V100.981H4.35398C4.92895 100.853 5.91917 100.343 7.32465 99.4502C8.66624 98.5574 10.2314 97.4095 12.0202 96.0066C13.1702 95.1138 14.4479 94.0934 15.8533 92.9455C17.2588 91.7339 19.4948 89.8207 22.5613 87.2061C27.0972 83.3161 30.9942 80.0318 34.2523 77.3534C37.5744 74.6113 41.4714 71.3908 45.9433 67.6921C48.5626 65.6514 50.5431 64.089 51.8847 63.0049C53.2263 61.9208 54.2484 61.0599 54.9512 60.4221C55.7178 59.7207 56.4844 58.9554 57.251 58.1264C58.7204 56.7234 59.7106 55.8625 60.2217 55.5436C60.7967 55.161 61.2758 54.9697 61.6591 54.9697C61.7869 54.9697 61.9147 55.0016 62.0424 55.0654C62.7452 55.3204 63.0966 55.7668 63.0966 56.4046C63.0966 56.7234 62.9688 57.1379 62.7132 57.6481C62.5855 57.9032 62.3619 58.3177 62.0424 58.8916C61.723 59.4018 61.3716 60.0076 60.9883 60.7091C56.0692 69.4458 51.693 78.1187 47.8599 86.7278C42.7491 98.6531 39.5229 108.793 38.1813 117.147C37.9896 118.55 37.8618 119.857 37.798 121.069C37.798 122.217 37.798 123.014 37.798 123.46C37.798 124.736 37.8618 125.82 37.9896 126.712C38.7562 132.261 41.2158 135.035 45.3684 135.035C46.71 135.035 48.2113 134.748 49.8723 134.174C58.944 130.858 69.517 121.706 81.5914 106.72C88.2354 98.3661 94.6879 89.0874 100.949 78.884C107.273 68.6805 112.129 59.6888 115.514 51.9087C117.878 46.2968 119.954 40.2704 121.743 33.8295C123.532 27.3248 124.746 21.3303 125.385 15.846C125.513 14.8256 125.608 13.8372 125.672 12.8806C125.736 11.924 125.768 11.1269 125.768 10.4892L125.672 8.76735C125.608 7.68324 125.544 6.91798 125.481 6.47158C125.289 5.83387 125.065 5.3237 124.81 4.94107C124.618 4.55844 124.299 4.14393 123.852 3.69753C123.532 3.44244 123.308 3.25113 123.181 3.12359C123.053 2.93227 122.957 2.80473 122.893 2.74096C122.893 2.61342 122.893 2.45399 122.893 2.26267C122.893 2.00759 122.925 1.81627 122.989 1.68873C123.053 1.56119 123.149 1.46553 123.277 1.40176C123.532 1.14667 123.788 1.01913 124.043 1.01913C124.299 0.95536 124.682 1.05102 125.193 1.3061C126.726 2.00759 127.78 3.44244 128.355 5.61067C128.483 5.92953 128.547 6.24838 128.547 6.56724C128.611 6.8861 128.643 7.3325 128.643 7.90644C128.643 8.48038 128.643 9.34129 128.643 10.4892C128.643 12.5936 128.579 14.3155 128.451 15.6547C128.387 16.9301 128.132 18.6838 127.685 20.9158C125.704 32.012 122.51 42.885 118.102 53.5348C114.652 61.4425 109.701 70.5937 103.248 80.9884C96.7961 91.3831 90.1839 100.821 83.4121 109.303C73.7654 121.292 64.6937 129.71 56.1969 134.556C53.2582 136.214 50.575 137.299 48.1474 137.809C47.5724 137.936 46.9655 138 46.3267 138C45.7517 138 45.3045 138 44.9851 138H44.1226Z" stroke="white" stroke-width="2"/>
<path d="M120.264 86.4409C118.475 85.8031 117.485 85.006 117.293 84.0494C117.101 83.0291 117.037 82.1682 117.101 81.4667C117.165 80.7014 117.389 79.8724 117.772 78.9796C118.922 76.4925 120.583 74.2605 122.755 72.2836C124.927 70.3067 126.972 68.84 128.888 67.8834C129.655 67.5008 130.453 67.2457 131.284 67.1181C131.795 66.9906 132.306 66.9268 132.817 66.9268C133.712 66.9268 134.446 67.1181 135.021 67.5008C136.107 68.0109 136.618 68.553 136.554 69.1269V69.8922C136.427 70.9125 135.66 71.9329 134.255 72.9532C131.508 74.8026 128.665 75.7273 125.726 75.7273C124.832 75.7273 123.937 75.6635 123.043 75.536C121.829 76.6201 120.998 77.7361 120.551 78.884C120.104 80.0318 119.88 80.7971 119.88 81.1797C119.753 82.2638 120.104 83.1247 120.935 83.7625C121.573 84.0813 122.404 84.2408 123.426 84.2408H124.384C125.79 84.177 126.972 84.0175 127.93 83.7625C130.933 83.1247 134.478 81.9131 138.567 80.1275C139.845 79.5536 140.771 79.0753 141.346 78.6926C142.432 78.1187 143.23 77.8317 143.742 77.8317H144.029C144.412 77.9593 144.572 78.2144 144.508 78.597C144.508 78.7245 144.476 78.8521 144.412 78.9796C144.157 79.5536 143.582 80.1594 142.687 80.7971C141.793 81.3073 140.547 81.9131 138.95 82.6146C134.095 84.7828 130.038 86.0901 126.78 86.5365C125.566 86.7278 124.448 86.8235 123.426 86.8235C122.212 86.8235 121.158 86.6959 120.264 86.4409ZM127.067 73.3358C128.217 73.2083 129.431 72.8576 130.709 72.2836L132.051 71.5184C133.073 70.8807 133.584 70.4024 133.584 70.0835C133.648 70.0197 133.648 69.956 133.584 69.8922C133.392 69.6371 133.041 69.5096 132.53 69.5096C132.274 69.5096 131.955 69.5415 131.571 69.6052C130.613 69.7965 129.431 70.3705 128.026 71.3271C127.579 71.5821 127.131 71.901 126.684 72.2836C125.918 72.8576 125.502 73.2402 125.438 73.4315C125.438 73.4953 125.534 73.5272 125.726 73.5272C125.981 73.5272 126.429 73.4634 127.067 73.3358Z" stroke="white" stroke-width="2"/>
<path d="M134.979 84.3364V84.0494C134.979 81.4348 135.81 78.4057 137.471 74.962C139.195 71.327 141.208 67.7559 143.508 64.2484C145.872 60.741 147.948 57.8075 149.737 55.448C159.192 43.0126 170.435 31.8845 183.468 22.0637C191.581 15.9416 197.906 12.498 202.442 11.7327C202.889 11.6052 203.272 11.5414 203.592 11.5414C203.911 11.5414 204.263 11.5733 204.646 11.6371C205.221 11.7008 205.668 11.7965 205.988 11.924C206.307 12.0516 206.626 12.2429 206.946 12.498C207.649 13.1357 208 13.9328 208 14.8894C208 15.7822 207.744 16.7707 207.233 17.8548C206.147 20.0868 203.784 23.1478 200.142 27.0378C196.501 30.8641 192.252 34.818 187.397 38.8993C181.008 44.1923 174.141 49.2303 166.794 54.0131C159.447 58.7322 153.314 62.1121 148.395 64.1528C147.884 64.3441 147.469 64.5035 147.149 64.6311L146.574 64.918C146.446 65.0456 146.191 65.3963 145.808 65.9703C145.488 66.5442 145.073 67.2457 144.562 68.0747C144.051 68.9037 143.54 69.7647 143.029 70.6574C140.218 75.4403 138.557 79.3304 138.046 82.3276C137.918 82.9015 137.854 83.4436 137.854 83.9538C137.854 84.7828 138.046 85.5162 138.429 86.1539C138.812 86.7278 139.451 87.0148 140.345 87.0148C140.793 87.0148 141.336 86.9191 141.975 86.7278C143.188 86.2814 144.53 85.4524 145.999 84.2408C147.533 83.0291 148.746 81.8174 149.641 80.6058C149.832 80.2869 150.024 79.9362 150.216 79.5536C150.407 79.1709 150.535 78.8521 150.599 78.597C150.663 78.3419 150.695 78.1506 150.695 78.023V77.9274L150.503 77.8317C150.312 77.768 150.088 77.7042 149.832 77.6404C147.916 77.0665 146.862 76.4288 146.67 75.7273C146.542 75.0258 146.478 74.5475 146.478 74.2924C146.478 73.4634 146.83 72.6981 147.533 71.9966C148.044 71.4865 148.651 71.2314 149.353 71.2314C149.8 71.2314 150.28 71.3589 150.791 71.614C151.749 72.0604 152.548 72.9532 153.186 74.2924L153.666 75.249C156.093 76.1418 158.649 76.5882 161.332 76.5882C164.015 76.5882 166.602 76.0142 169.094 74.8664C170.052 74.4837 170.787 74.2924 171.298 74.2924C171.873 74.2924 172.16 74.5156 172.16 74.962C172.16 75.8548 171.138 76.7795 169.094 77.7361C168.519 77.9274 167.433 78.1825 165.836 78.5013C164.302 78.7564 162.993 78.9158 161.907 78.9796C160.821 78.9796 160.118 78.9796 159.799 78.9796C158.137 78.9796 156.604 78.8202 155.199 78.5013C154.879 78.4376 154.624 78.3738 154.432 78.31C154.24 78.1825 154.081 78.1187 153.953 78.1187C153.825 78.1187 153.729 78.2144 153.666 78.4057C153.602 78.597 153.506 78.884 153.378 79.2666C152.42 82.2001 150.056 85.006 146.287 87.6844C144.69 88.7047 143.348 89.3106 142.262 89.5019C141.24 89.6932 140.505 89.7889 140.058 89.7889C138.972 89.7889 137.982 89.5019 137.087 88.9279C135.873 88.1627 135.171 86.6322 134.979 84.3364ZM153.666 58.6047C167.593 50.697 179.954 41.8966 190.751 32.2033C199.439 24.1044 204.231 18.4287 205.125 15.1764V14.9851C205.125 14.7937 205.061 14.6662 204.934 14.6024C204.806 14.5387 204.454 14.5068 203.879 14.5068C200.749 14.5068 195.606 16.9939 188.451 21.968C181.36 26.8784 174.045 33.0642 166.506 40.5255C162.482 44.5431 158.744 48.6882 155.295 52.9609C154.847 53.5348 154.304 54.2363 153.666 55.0654C153.027 55.8944 152.388 56.7234 151.749 57.5524C151.11 58.3815 150.567 59.1148 150.12 59.7525C149.673 60.3265 149.449 60.6453 149.449 60.7091C149.577 60.7091 149.992 60.5178 150.695 60.1352C151.525 59.7525 152.516 59.2424 153.666 58.6047ZM149.928 74.3881C149.8 74.2605 149.673 74.1968 149.545 74.1968C149.481 74.1968 149.449 74.2605 149.449 74.3881C149.449 74.4518 149.481 74.5156 149.545 74.5794C149.673 74.5794 149.769 74.6113 149.832 74.675C149.896 74.675 149.96 74.675 150.024 74.675H150.12L150.024 74.5794C150.024 74.5156 149.992 74.4518 149.928 74.3881Z" stroke="white" stroke-width="2"/>
<path d="M173.364 103.85C172.725 103.787 171.958 103.659 171.064 103.468C170.17 103.276 169.403 103.085 168.764 102.894C166.017 101.874 164.228 100.439 163.398 98.5893C163.078 97.8878 162.919 97.1544 162.919 96.3892C162.919 94.7311 163.685 92.8818 165.219 90.8411C165.73 90.1396 166.113 89.6932 166.368 89.5019C166.624 89.3106 166.88 89.2149 167.135 89.2149C167.263 89.2149 167.391 89.2468 167.518 89.3106C167.646 89.3743 167.774 89.47 167.902 89.5975C168.029 89.6613 168.093 89.7251 168.093 89.7889C168.285 89.9802 168.381 90.1715 168.381 90.3628C168.381 90.4903 168.349 90.6179 168.285 90.7454C168.157 91.1281 167.87 91.7339 167.423 92.5629C166.656 93.7746 166.209 94.6355 166.081 95.1456C165.953 95.6558 165.889 96.0703 165.889 96.3892C165.889 96.708 165.921 97.0269 165.985 97.3458C167.135 99.4502 170.106 100.694 174.897 101.076H175.472C179.05 101.076 183.011 100.024 187.355 97.9197C191.252 96.0066 194.35 93.7108 196.65 91.0324C199.014 88.2902 200.196 85.8031 200.196 83.5711V83.1885C200.068 81.658 199.333 80.3826 197.992 79.3622C196.586 78.2781 194.542 77.481 191.859 76.9708C190.773 76.8433 189.112 76.7795 186.876 76.7795C184.64 76.7795 182.787 76.8752 181.318 77.0665C179.848 77.2578 178.698 77.4172 177.868 77.5448C177.037 77.6085 176.462 77.6404 176.143 77.6404C175.887 77.6404 175.696 77.6404 175.568 77.6404C175.312 77.6404 175.121 77.6085 174.993 77.5448C174.801 77.481 174.642 77.3853 174.514 77.2578C174.194 76.8752 174.035 76.4925 174.035 76.1099C174.035 75.6635 174.29 75.1852 174.801 74.675C175.057 74.4837 176.079 73.7822 177.868 72.5706C179.657 71.2952 181.829 69.7965 184.384 68.0747C186.94 66.4167 189.239 64.918 191.284 63.5788C193.328 62.1759 194.638 61.2512 195.213 60.8048C196.938 59.5931 198.343 58.5409 199.429 57.6481C200.515 56.6915 201.058 56.0857 201.058 55.8306C201.058 55.7668 200.739 55.735 200.1 55.735C199.461 55.735 198.375 55.7987 196.842 55.9263C195.309 55.99 193.105 56.1495 190.23 56.4046C187.674 56.5959 185.566 56.6915 183.905 56.6915C182.244 56.6915 180.998 56.5959 180.168 56.4046C178.954 55.8944 178.347 55.2567 178.347 54.4914C178.347 54.2363 178.379 54.0131 178.443 53.8218C178.762 53.1841 179.241 52.8652 179.88 52.8652C180.136 52.8652 180.327 52.929 180.455 53.0566C180.583 53.1203 180.743 53.2798 180.934 53.5348L181.413 54.0131H184.097C185.119 54.0131 186.141 53.9812 187.163 53.9175C188.185 53.8537 189.559 53.7262 191.284 53.5348C193.967 53.2798 195.947 53.1203 197.225 53.0566C198.503 52.929 199.461 52.8652 200.1 52.8652H200.962C201.729 52.8652 202.304 52.9609 202.687 53.1522C203.837 53.6624 204.412 54.3958 204.412 55.3523C204.412 55.7987 204.316 56.2451 204.125 56.6915C203.614 57.6481 202.368 58.9554 200.387 60.6135C199.621 61.1874 198.822 61.7932 197.992 62.4309C197.225 63.0049 196.107 63.802 194.638 64.8224C193.168 65.7789 191.028 67.1819 188.217 69.0313C186.045 70.498 184.224 71.7097 182.755 72.6662C181.35 73.6228 180.647 74.133 180.647 74.1968C180.711 74.1968 180.839 74.1968 181.03 74.1968C181.286 74.133 181.573 74.1011 181.893 74.1011C182.979 73.9736 184.033 73.8779 185.055 73.8141C186.077 73.7504 186.908 73.7185 187.546 73.7185C188.121 73.7185 188.664 73.7504 189.176 73.8141C193.584 74.133 197.002 75.1533 199.429 76.8752C201.857 78.5332 203.071 80.7971 203.071 83.6668C202.879 87.5569 200.739 91.3831 196.65 95.1456C192.625 98.8444 187.706 101.491 181.893 103.085C179.721 103.659 177.58 103.946 175.472 103.946C174.769 103.946 174.067 103.914 173.364 103.85Z" stroke="white" stroke-width="2"/>
</svg>
