<svg width="257" height="171" viewBox="0 0 257 171" fill="none" xmlns="http://www.w3.org/2000/svg">
<mask id="path-1-outside-1_2505_36" maskUnits="userSpaceOnUse" x="0" y="0" width="257" height="171" fill="black">
<rect fill="white" width="257" height="171"/>
<path d="M54.122 170C47.8261 169.213 44.0485 164.729 42.7893 156.548C42.6319 155.368 42.5532 153.795 42.5532 151.828C42.5532 149.783 42.6319 147.973 42.7893 146.4C44.0485 134.757 48.8885 119.614 57.3094 100.97C58.3325 98.6098 59.7491 95.5812 61.5591 91.8838C63.4479 88.1865 65.1006 84.9611 66.5172 82.2078C67.1468 81.1065 67.6583 80.1625 68.0518 79.3758L68.524 78.3138C68.4453 78.3138 68.3273 78.3924 68.1699 78.5498C67.8551 78.7858 67.5009 79.0611 67.1074 79.3758C65.9269 80.3985 62.0707 83.5451 55.5386 88.8158C48.4557 94.5585 39.3659 102.15 28.2693 111.59C23.2326 115.917 19.2976 119.181 16.4644 121.384C13.7099 123.587 11.5457 125.16 9.97172 126.104C8.71253 126.891 7.76814 127.402 7.13855 127.638C6.43025 127.874 5.64326 127.992 4.77757 127.992C4.30537 127.992 3.95122 127.992 3.71513 127.992C3.47903 127.992 3.28228 127.953 3.12488 127.874C2.96748 127.795 2.81008 127.677 2.65269 127.52C2.41659 127.441 2.18049 127.284 1.94439 127.048C1.70829 126.812 1.5509 126.576 1.4722 126.34C1.3148 126.104 1.19675 125.907 1.11805 125.75C1.03935 125.514 1 125.239 1 124.924C1 124.531 1 123.941 1 123.154C1 122.21 1.03935 121.463 1.11805 120.912C1.11805 120.361 1.2361 119.732 1.4722 119.024C3.12488 112.18 8.39774 100.616 17.2908 84.3318C25.5542 69.3064 34.6833 54.1631 44.6781 38.9017C54.7516 23.5617 62.3068 13.217 67.3435 7.86762C68.524 6.68761 69.3504 5.97961 69.8226 5.74361C70.3735 5.50761 70.8063 5.38961 71.1211 5.38961C71.4359 5.38961 71.7507 5.50761 72.0655 5.74361C72.6951 6.13695 73.0099 6.64828 73.0099 7.27762C73.0099 7.51362 72.9705 7.74962 72.8918 7.98562C72.8131 8.45762 72.6164 9.08695 72.3016 9.87362C71.9868 10.5816 71.672 11.2503 71.3572 11.8796C71.0424 12.509 70.8063 12.863 70.6489 12.9416C70.3341 13.1776 70.0193 13.2956 69.7045 13.2956C69.3897 13.2956 69.0356 13.099 68.6421 12.7056L68.0518 12.2336L66.7533 14.0036C64.3136 16.993 61.0082 21.5163 56.8372 27.5737C52.6661 33.5523 48.6524 39.5704 44.7962 45.6277C31.8108 65.8451 21.3044 83.9778 13.2771 100.026C7.61074 111.354 4.73822 118.945 4.65952 122.8V124.334H5.13171C5.84001 124.177 7.05985 123.547 8.79123 122.446C10.4439 121.345 12.3721 119.929 14.5756 118.198C15.9922 117.097 17.5662 115.838 19.2976 114.422C21.029 112.927 23.7835 110.567 27.561 107.342C33.1487 102.543 37.9493 98.4918 41.963 95.1878C46.0554 91.8051 50.856 87.8325 56.365 83.2698C59.5917 80.7525 62.0313 78.8251 63.684 77.4878C65.3367 76.1504 66.5959 75.0884 67.4616 74.3018C68.406 73.4364 69.3504 72.4924 70.2948 71.4698C72.1048 69.7391 73.3247 68.6771 73.9543 68.2838C74.6626 67.8118 75.2528 67.5758 75.725 67.5758C75.8824 67.5758 76.0398 67.6151 76.1972 67.6938C77.0629 68.0084 77.4958 68.5591 77.4958 69.3458C77.4958 69.7391 77.3383 70.2504 77.0236 70.8798C76.8662 71.1944 76.5907 71.7058 76.1972 72.4138C75.8037 73.0431 75.3709 73.7904 74.8987 74.6558C68.8388 85.4331 63.4479 96.1318 58.726 106.752C52.43 121.463 48.4557 133.971 46.803 144.276C46.5669 146.007 46.4095 147.619 46.3308 149.114C46.3308 150.53 46.3308 151.513 46.3308 152.064C46.3308 153.637 46.4095 154.975 46.5669 156.076C47.5113 162.92 50.5412 166.342 55.6567 166.342C57.3094 166.342 59.1588 165.988 61.205 165.28C72.3803 161.189 85.405 149.901 100.279 131.414C108.464 121.109 116.413 109.663 124.125 97.0758C131.916 84.4891 137.897 73.3971 142.069 63.7997C144.98 56.8771 147.538 49.443 149.742 41.4977C151.945 33.4737 153.441 26.079 154.228 19.3136C154.385 18.055 154.503 16.8356 154.582 15.6556C154.66 14.4756 154.7 13.4923 154.7 12.7056L154.582 10.5816C154.503 9.24429 154.424 8.30028 154.346 7.74962C154.11 6.96295 153.834 6.33361 153.519 5.86161C153.283 5.38961 152.89 4.87828 152.339 4.32761C151.945 4.01294 151.67 3.77694 151.512 3.61961C151.355 3.38361 151.237 3.22627 151.158 3.14761C151.158 2.99027 151.158 2.7936 151.158 2.5576C151.158 2.24294 151.198 2.00694 151.276 1.8496C151.355 1.69227 151.473 1.57427 151.631 1.4956C151.945 1.18093 152.26 1.0236 152.575 1.0236C152.89 0.944933 153.362 1.06293 153.992 1.3776C155.88 2.24294 157.179 4.01294 157.887 6.68761C158.045 7.08095 158.123 7.47428 158.123 7.86762C158.202 8.26095 158.241 8.81162 158.241 9.51962C158.241 10.2276 158.241 11.2896 158.241 12.7056C158.241 15.3016 158.163 17.4256 158.005 19.0776C157.926 20.651 157.612 22.8143 157.061 25.5677C154.621 39.2557 150.686 52.6684 145.256 65.8058C141.006 75.5604 134.907 86.8491 126.958 99.6718C119.01 112.495 110.864 124.137 102.522 134.6C90.6385 149.389 79.4632 159.773 68.9962 165.752C65.3761 167.797 62.0707 169.135 59.0801 169.764C58.3718 169.921 57.6242 170 56.8372 170C56.1289 170 55.578 170 55.1845 170H54.122Z"/>
<path d="M147.919 106.398C145.715 105.611 144.496 104.628 144.26 103.448C144.023 102.189 143.945 101.127 144.023 100.262C144.102 99.3178 144.378 98.2952 144.85 97.1938C146.266 94.1258 148.313 91.3725 150.988 88.9338C153.664 86.4951 156.182 84.6858 158.543 83.5058C159.488 83.0338 160.472 82.7191 161.495 82.5618C162.124 82.4045 162.754 82.3258 163.383 82.3258C164.485 82.3258 165.39 82.5618 166.099 83.0338C167.436 83.6631 168.066 84.3318 167.987 85.0398V85.9838C167.83 87.2425 166.886 88.5011 165.154 89.7598C161.77 92.0412 158.268 93.1818 154.648 93.1818C153.546 93.1818 152.444 93.1031 151.342 92.9458C149.847 94.2832 148.824 95.6598 148.273 97.0758C147.722 98.4918 147.447 99.4358 147.447 99.9078C147.289 101.245 147.722 102.307 148.745 103.094C149.532 103.487 150.555 103.684 151.815 103.684H152.995C154.727 103.605 156.182 103.409 157.363 103.094C161.062 102.307 165.43 100.813 170.466 98.6098C172.04 97.9018 173.182 97.3118 173.89 96.8398C175.228 96.1318 176.211 95.7778 176.841 95.7778H177.195C177.667 95.9352 177.864 96.2498 177.785 96.7218C177.785 96.8792 177.746 97.0365 177.667 97.1938C177.353 97.9018 176.644 98.6492 175.543 99.4358C174.441 100.065 172.906 100.813 170.939 101.678C164.957 104.353 159.96 105.965 155.946 106.516C154.451 106.752 153.074 106.87 151.815 106.87C150.319 106.87 149.021 106.713 147.919 106.398ZM156.301 90.2318C157.717 90.0745 159.212 89.6418 160.786 88.9338L162.439 87.9898C163.698 87.2031 164.328 86.6131 164.328 86.2198C164.407 86.1411 164.407 86.0625 164.328 85.9838C164.092 85.6691 163.659 85.5118 163.029 85.5118C162.715 85.5118 162.321 85.5511 161.849 85.6298C160.668 85.8658 159.212 86.5738 157.481 87.7538C156.93 88.0685 156.379 88.4618 155.828 88.9338C154.884 89.6418 154.372 90.1138 154.294 90.3498C154.294 90.4285 154.412 90.4678 154.648 90.4678C154.963 90.4678 155.514 90.3891 156.301 90.2318Z"/>
<path d="M166.047 103.802V103.448C166.047 100.223 167.07 96.4858 169.116 92.2378C171.241 87.7538 173.72 83.3485 176.553 79.0218C179.465 74.6951 182.023 71.0764 184.226 68.1658C195.874 52.8257 209.725 39.0984 225.779 26.9837C235.774 19.4316 243.565 15.1836 249.153 14.2396C249.704 14.0823 250.176 14.0036 250.57 14.0036C250.963 14.0036 251.396 14.043 251.868 14.1216C252.577 14.2003 253.127 14.3183 253.521 14.4756C253.914 14.633 254.308 14.869 254.701 15.1836C255.567 15.9703 256 16.9536 256 18.1336C256 19.235 255.685 20.4543 255.056 21.7917C253.718 24.545 250.806 28.321 246.32 33.1197C241.834 37.8397 236.601 42.717 230.619 47.7517C222.75 54.2811 214.289 60.4957 205.239 66.3958C196.189 72.2171 188.633 76.3864 182.574 78.9038C181.944 79.1398 181.432 79.3364 181.039 79.4938L180.331 79.8478C180.173 80.0051 179.858 80.4378 179.386 81.1458C178.993 81.8538 178.481 82.7191 177.852 83.7418C177.222 84.7645 176.592 85.8265 175.963 86.9278C172.5 92.8278 170.454 97.6265 169.824 101.324C169.667 102.032 169.588 102.701 169.588 103.33C169.588 104.353 169.824 105.257 170.296 106.044C170.769 106.752 171.556 107.106 172.657 107.106C173.208 107.106 173.877 106.988 174.664 106.752C176.16 106.201 177.812 105.179 179.622 103.684C181.511 102.189 183.006 100.694 184.108 99.1998C184.344 98.8065 184.58 98.3738 184.816 97.9018C185.053 97.4298 185.21 97.0365 185.289 96.7218C185.367 96.4072 185.407 96.1712 185.407 96.0138V95.8958L185.171 95.7778C184.935 95.6992 184.659 95.6205 184.344 95.5418C181.983 94.8338 180.685 94.0472 180.449 93.1818C180.291 92.3165 180.213 91.7265 180.213 91.4118C180.213 90.3891 180.645 89.4451 181.511 88.5798C182.141 87.9505 182.888 87.6358 183.754 87.6358C184.305 87.6358 184.895 87.7931 185.525 88.1078C186.705 88.6585 187.689 89.7598 188.476 91.4118L189.066 92.5918C192.057 93.6932 195.205 94.2438 198.51 94.2438C201.816 94.2438 205.003 93.5358 208.072 92.1198C209.253 91.6478 210.158 91.4118 210.787 91.4118C211.496 91.4118 211.85 91.6871 211.85 92.2378C211.85 93.3392 210.59 94.4798 208.072 95.6598C207.364 95.8958 206.026 96.2105 204.058 96.6038C202.17 96.9185 200.556 97.1152 199.218 97.1938C197.881 97.1938 197.015 97.1938 196.621 97.1938C194.575 97.1938 192.686 96.9972 190.955 96.6038C190.562 96.5252 190.247 96.4465 190.011 96.3678C189.775 96.2105 189.578 96.1318 189.42 96.1318C189.263 96.1318 189.145 96.2498 189.066 96.4858C188.988 96.7218 188.869 97.0758 188.712 97.5478C187.532 101.167 184.62 104.628 179.976 107.932C178.009 109.191 176.356 109.938 175.018 110.174C173.759 110.41 172.854 110.528 172.303 110.528C170.965 110.528 169.746 110.174 168.644 109.466C167.148 108.522 166.283 106.634 166.047 103.802ZM189.066 72.0598C206.223 62.3051 221.451 51.4491 234.751 39.4917C245.454 29.501 251.357 22.4997 252.459 18.4876V18.2516C252.459 18.0156 252.38 17.8583 252.222 17.7796C252.065 17.701 251.632 17.6616 250.924 17.6616C247.068 17.6616 240.732 20.7296 231.918 26.8657C223.182 32.923 214.171 40.5537 204.885 49.7577C199.927 54.7137 195.323 59.8271 191.073 65.0977C190.522 65.8057 189.853 66.6711 189.066 67.6938C188.279 68.7164 187.492 69.7391 186.705 70.7618C185.918 71.7844 185.249 72.6891 184.698 73.4758C184.148 74.1838 183.872 74.5771 183.872 74.6558C184.029 74.6558 184.541 74.4198 185.407 73.9478C186.43 73.4758 187.65 72.8464 189.066 72.0598ZM184.462 91.5298C184.305 91.3725 184.148 91.2938 183.99 91.2938C183.911 91.2938 183.872 91.3725 183.872 91.5298C183.872 91.6085 183.911 91.6871 183.99 91.7658C184.148 91.7658 184.266 91.8051 184.344 91.8838C184.423 91.8838 184.502 91.8838 184.58 91.8838H184.698L184.58 91.7658C184.58 91.6871 184.541 91.6085 184.462 91.5298Z"/>
<path d="M213.332 127.874C212.545 127.795 211.601 127.638 210.499 127.402C209.397 127.166 208.453 126.93 207.666 126.694C204.282 125.435 202.078 123.665 201.055 121.384C200.662 120.519 200.465 119.614 200.465 118.67C200.465 116.625 201.409 114.343 203.298 111.826C203.928 110.961 204.4 110.41 204.715 110.174C205.03 109.938 205.344 109.82 205.659 109.82C205.817 109.82 205.974 109.859 206.131 109.938C206.289 110.017 206.446 110.135 206.604 110.292C206.761 110.371 206.84 110.449 206.84 110.528C207.076 110.764 207.194 111 207.194 111.236C207.194 111.393 207.154 111.551 207.076 111.708C206.918 112.18 206.564 112.927 206.013 113.95C205.069 115.445 204.518 116.507 204.361 117.136C204.203 117.765 204.125 118.277 204.125 118.67C204.125 119.063 204.164 119.457 204.243 119.85C205.659 122.446 209.319 123.98 215.221 124.452H215.929C220.337 124.452 225.216 123.154 230.568 120.558C235.368 118.198 239.185 115.366 242.018 112.062C244.93 108.679 246.386 105.611 246.386 102.858V102.386C246.229 100.498 245.324 98.9245 243.671 97.6658C241.94 96.3285 239.421 95.3452 236.116 94.7158C234.778 94.5585 232.732 94.4798 229.977 94.4798C227.223 94.4798 224.941 94.5978 223.13 94.8338C221.32 95.0698 219.904 95.2665 218.881 95.4238C217.858 95.5025 217.149 95.5418 216.756 95.5418C216.441 95.5418 216.205 95.5418 216.048 95.5418C215.733 95.5418 215.497 95.5025 215.339 95.4238C215.103 95.3452 214.906 95.2272 214.749 95.0698C214.355 94.5978 214.159 94.1258 214.159 93.6538C214.159 93.1031 214.474 92.5131 215.103 91.8838C215.418 91.6478 216.677 90.7825 218.881 89.2878C221.084 87.7145 223.76 85.8658 226.908 83.7418C230.056 81.6965 232.889 79.8478 235.408 78.1958C237.926 76.4651 239.539 75.3244 240.248 74.7738C242.372 73.2791 244.104 71.9811 245.442 70.8798C246.78 69.6998 247.449 68.9524 247.449 68.6378C247.449 68.5591 247.055 68.5198 246.268 68.5198C245.481 68.5198 244.143 68.5984 242.254 68.7558C240.366 68.8344 237.65 69.0311 234.109 69.3458C230.961 69.5818 228.364 69.6998 226.318 69.6998C224.272 69.6998 222.737 69.5818 221.714 69.3458C220.219 68.7164 219.471 67.9298 219.471 66.9858C219.471 66.6711 219.51 66.3958 219.589 66.1598C219.982 65.3731 220.573 64.9798 221.36 64.9798C221.675 64.9798 221.911 65.0584 222.068 65.2158C222.225 65.2944 222.422 65.4911 222.658 65.8058L223.249 66.3958H226.554C227.813 66.3958 229.072 66.3564 230.331 66.2778C231.591 66.1991 233.283 66.0418 235.408 65.8058C238.713 65.4911 241.153 65.2944 242.727 65.2158C244.301 65.0584 245.481 64.9798 246.268 64.9798H247.33C248.275 64.9798 248.983 65.0977 249.455 65.3337C250.872 65.9631 251.58 66.8678 251.58 68.0478C251.58 68.5984 251.462 69.1491 251.226 69.6998C250.597 70.8798 249.062 72.4924 246.622 74.5378C245.678 75.2458 244.694 75.9931 243.671 76.7798C242.727 77.4878 241.349 78.4711 239.539 79.7298C237.729 80.9098 235.093 82.6405 231.63 84.9218C228.954 86.7311 226.711 88.2258 224.901 89.4058C223.17 90.5858 222.304 91.2151 222.304 91.2938C222.383 91.2938 222.54 91.2938 222.776 91.2938C223.091 91.2151 223.445 91.1758 223.839 91.1758C225.177 91.0185 226.475 90.9005 227.734 90.8218C228.994 90.7431 230.017 90.7038 230.804 90.7038C231.512 90.7038 232.181 90.7431 232.81 90.8218C238.241 91.2151 242.451 92.4738 245.442 94.5978C248.432 96.6432 249.928 99.4358 249.928 102.976C249.691 107.775 247.055 112.495 242.018 117.136C237.06 121.699 231 124.963 223.839 126.93C221.163 127.638 218.527 127.992 215.929 127.992C215.064 127.992 214.198 127.953 213.332 127.874Z"/>
</mask>
<path d="M54.122 170C47.8261 169.213 44.0485 164.729 42.7893 156.548C42.6319 155.368 42.5532 153.795 42.5532 151.828C42.5532 149.783 42.6319 147.973 42.7893 146.4C44.0485 134.757 48.8885 119.614 57.3094 100.97C58.3325 98.6098 59.7491 95.5812 61.5591 91.8838C63.4479 88.1865 65.1006 84.9611 66.5172 82.2078C67.1468 81.1065 67.6583 80.1625 68.0518 79.3758L68.524 78.3138C68.4453 78.3138 68.3273 78.3924 68.1699 78.5498C67.8551 78.7858 67.5009 79.0611 67.1074 79.3758C65.9269 80.3985 62.0707 83.5451 55.5386 88.8158C48.4557 94.5585 39.3659 102.15 28.2693 111.59C23.2326 115.917 19.2976 119.181 16.4644 121.384C13.7099 123.587 11.5457 125.16 9.97172 126.104C8.71253 126.891 7.76814 127.402 7.13855 127.638C6.43025 127.874 5.64326 127.992 4.77757 127.992C4.30537 127.992 3.95122 127.992 3.71513 127.992C3.47903 127.992 3.28228 127.953 3.12488 127.874C2.96748 127.795 2.81008 127.677 2.65269 127.52C2.41659 127.441 2.18049 127.284 1.94439 127.048C1.70829 126.812 1.5509 126.576 1.4722 126.34C1.3148 126.104 1.19675 125.907 1.11805 125.75C1.03935 125.514 1 125.239 1 124.924C1 124.531 1 123.941 1 123.154C1 122.21 1.03935 121.463 1.11805 120.912C1.11805 120.361 1.2361 119.732 1.4722 119.024C3.12488 112.18 8.39774 100.616 17.2908 84.3318C25.5542 69.3064 34.6833 54.1631 44.6781 38.9017C54.7516 23.5617 62.3068 13.217 67.3435 7.86762C68.524 6.68761 69.3504 5.97961 69.8226 5.74361C70.3735 5.50761 70.8063 5.38961 71.1211 5.38961C71.4359 5.38961 71.7507 5.50761 72.0655 5.74361C72.6951 6.13695 73.0099 6.64828 73.0099 7.27762C73.0099 7.51362 72.9705 7.74962 72.8918 7.98562C72.8131 8.45762 72.6164 9.08695 72.3016 9.87362C71.9868 10.5816 71.672 11.2503 71.3572 11.8796C71.0424 12.509 70.8063 12.863 70.6489 12.9416C70.3341 13.1776 70.0193 13.2956 69.7045 13.2956C69.3897 13.2956 69.0356 13.099 68.6421 12.7056L68.0518 12.2336L66.7533 14.0036C64.3136 16.993 61.0082 21.5163 56.8372 27.5737C52.6661 33.5523 48.6524 39.5704 44.7962 45.6277C31.8108 65.8451 21.3044 83.9778 13.2771 100.026C7.61074 111.354 4.73822 118.945 4.65952 122.8V124.334H5.13171C5.84001 124.177 7.05985 123.547 8.79123 122.446C10.4439 121.345 12.3721 119.929 14.5756 118.198C15.9922 117.097 17.5662 115.838 19.2976 114.422C21.029 112.927 23.7835 110.567 27.561 107.342C33.1487 102.543 37.9493 98.4918 41.963 95.1878C46.0554 91.8051 50.856 87.8325 56.365 83.2698C59.5917 80.7525 62.0313 78.8251 63.684 77.4878C65.3367 76.1504 66.5959 75.0884 67.4616 74.3018C68.406 73.4364 69.3504 72.4924 70.2948 71.4698C72.1048 69.7391 73.3247 68.6771 73.9543 68.2838C74.6626 67.8118 75.2528 67.5758 75.725 67.5758C75.8824 67.5758 76.0398 67.6151 76.1972 67.6938C77.0629 68.0084 77.4958 68.5591 77.4958 69.3458C77.4958 69.7391 77.3383 70.2504 77.0236 70.8798C76.8662 71.1944 76.5907 71.7058 76.1972 72.4138C75.8037 73.0431 75.3709 73.7904 74.8987 74.6558C68.8388 85.4331 63.4479 96.1318 58.726 106.752C52.43 121.463 48.4557 133.971 46.803 144.276C46.5669 146.007 46.4095 147.619 46.3308 149.114C46.3308 150.53 46.3308 151.513 46.3308 152.064C46.3308 153.637 46.4095 154.975 46.5669 156.076C47.5113 162.92 50.5412 166.342 55.6567 166.342C57.3094 166.342 59.1588 165.988 61.205 165.28C72.3803 161.189 85.405 149.901 100.279 131.414C108.464 121.109 116.413 109.663 124.125 97.0758C131.916 84.4891 137.897 73.3971 142.069 63.7997C144.98 56.8771 147.538 49.443 149.742 41.4977C151.945 33.4737 153.441 26.079 154.228 19.3136C154.385 18.055 154.503 16.8356 154.582 15.6556C154.66 14.4756 154.7 13.4923 154.7 12.7056L154.582 10.5816C154.503 9.24429 154.424 8.30028 154.346 7.74962C154.11 6.96295 153.834 6.33361 153.519 5.86161C153.283 5.38961 152.89 4.87828 152.339 4.32761C151.945 4.01294 151.67 3.77694 151.512 3.61961C151.355 3.38361 151.237 3.22627 151.158 3.14761C151.158 2.99027 151.158 2.7936 151.158 2.5576C151.158 2.24294 151.198 2.00694 151.276 1.8496C151.355 1.69227 151.473 1.57427 151.631 1.4956C151.945 1.18093 152.26 1.0236 152.575 1.0236C152.89 0.944933 153.362 1.06293 153.992 1.3776C155.88 2.24294 157.179 4.01294 157.887 6.68761C158.045 7.08095 158.123 7.47428 158.123 7.86762C158.202 8.26095 158.241 8.81162 158.241 9.51962C158.241 10.2276 158.241 11.2896 158.241 12.7056C158.241 15.3016 158.163 17.4256 158.005 19.0776C157.926 20.651 157.612 22.8143 157.061 25.5677C154.621 39.2557 150.686 52.6684 145.256 65.8058C141.006 75.5604 134.907 86.8491 126.958 99.6718C119.01 112.495 110.864 124.137 102.522 134.6C90.6385 149.389 79.4632 159.773 68.9962 165.752C65.3761 167.797 62.0707 169.135 59.0801 169.764C58.3718 169.921 57.6242 170 56.8372 170C56.1289 170 55.578 170 55.1845 170H54.122Z" fill="#7A05D7"/>
<path d="M147.919 106.398C145.715 105.611 144.496 104.628 144.26 103.448C144.023 102.189 143.945 101.127 144.023 100.262C144.102 99.3178 144.378 98.2952 144.85 97.1938C146.266 94.1258 148.313 91.3725 150.988 88.9338C153.664 86.4951 156.182 84.6858 158.543 83.5058C159.488 83.0338 160.472 82.7191 161.495 82.5618C162.124 82.4045 162.754 82.3258 163.383 82.3258C164.485 82.3258 165.39 82.5618 166.099 83.0338C167.436 83.6631 168.066 84.3318 167.987 85.0398V85.9838C167.83 87.2425 166.886 88.5011 165.154 89.7598C161.77 92.0412 158.268 93.1818 154.648 93.1818C153.546 93.1818 152.444 93.1031 151.342 92.9458C149.847 94.2832 148.824 95.6598 148.273 97.0758C147.722 98.4918 147.447 99.4358 147.447 99.9078C147.289 101.245 147.722 102.307 148.745 103.094C149.532 103.487 150.555 103.684 151.815 103.684H152.995C154.727 103.605 156.182 103.409 157.363 103.094C161.062 102.307 165.43 100.813 170.466 98.6098C172.04 97.9018 173.182 97.3118 173.89 96.8398C175.228 96.1318 176.211 95.7778 176.841 95.7778H177.195C177.667 95.9352 177.864 96.2498 177.785 96.7218C177.785 96.8792 177.746 97.0365 177.667 97.1938C177.353 97.9018 176.644 98.6492 175.543 99.4358C174.441 100.065 172.906 100.813 170.939 101.678C164.957 104.353 159.96 105.965 155.946 106.516C154.451 106.752 153.074 106.87 151.815 106.87C150.319 106.87 149.021 106.713 147.919 106.398ZM156.301 90.2318C157.717 90.0745 159.212 89.6418 160.786 88.9338L162.439 87.9898C163.698 87.2031 164.328 86.6131 164.328 86.2198C164.407 86.1411 164.407 86.0625 164.328 85.9838C164.092 85.6691 163.659 85.5118 163.029 85.5118C162.715 85.5118 162.321 85.5511 161.849 85.6298C160.668 85.8658 159.212 86.5738 157.481 87.7538C156.93 88.0685 156.379 88.4618 155.828 88.9338C154.884 89.6418 154.372 90.1138 154.294 90.3498C154.294 90.4285 154.412 90.4678 154.648 90.4678C154.963 90.4678 155.514 90.3891 156.301 90.2318Z" fill="#7A05D7"/>
<path d="M166.047 103.802V103.448C166.047 100.223 167.07 96.4858 169.116 92.2378C171.241 87.7538 173.72 83.3485 176.553 79.0218C179.465 74.6951 182.023 71.0764 184.226 68.1658C195.874 52.8257 209.725 39.0984 225.779 26.9837C235.774 19.4316 243.565 15.1836 249.153 14.2396C249.704 14.0823 250.176 14.0036 250.57 14.0036C250.963 14.0036 251.396 14.043 251.868 14.1216C252.577 14.2003 253.127 14.3183 253.521 14.4756C253.914 14.633 254.308 14.869 254.701 15.1836C255.567 15.9703 256 16.9536 256 18.1336C256 19.235 255.685 20.4543 255.056 21.7917C253.718 24.545 250.806 28.321 246.32 33.1197C241.834 37.8397 236.601 42.717 230.619 47.7517C222.75 54.2811 214.289 60.4957 205.239 66.3958C196.189 72.2171 188.633 76.3864 182.574 78.9038C181.944 79.1398 181.432 79.3364 181.039 79.4938L180.331 79.8478C180.173 80.0051 179.858 80.4378 179.386 81.1458C178.993 81.8538 178.481 82.7191 177.852 83.7418C177.222 84.7645 176.592 85.8265 175.963 86.9278C172.5 92.8278 170.454 97.6265 169.824 101.324C169.667 102.032 169.588 102.701 169.588 103.33C169.588 104.353 169.824 105.257 170.296 106.044C170.769 106.752 171.556 107.106 172.657 107.106C173.208 107.106 173.877 106.988 174.664 106.752C176.16 106.201 177.812 105.179 179.622 103.684C181.511 102.189 183.006 100.694 184.108 99.1998C184.344 98.8065 184.58 98.3738 184.816 97.9018C185.053 97.4298 185.21 97.0365 185.289 96.7218C185.367 96.4072 185.407 96.1712 185.407 96.0138V95.8958L185.171 95.7778C184.935 95.6992 184.659 95.6205 184.344 95.5418C181.983 94.8338 180.685 94.0472 180.449 93.1818C180.291 92.3165 180.213 91.7265 180.213 91.4118C180.213 90.3891 180.645 89.4451 181.511 88.5798C182.141 87.9505 182.888 87.6358 183.754 87.6358C184.305 87.6358 184.895 87.7931 185.525 88.1078C186.705 88.6585 187.689 89.7598 188.476 91.4118L189.066 92.5918C192.057 93.6932 195.205 94.2438 198.51 94.2438C201.816 94.2438 205.003 93.5358 208.072 92.1198C209.253 91.6478 210.158 91.4118 210.787 91.4118C211.496 91.4118 211.85 91.6871 211.85 92.2378C211.85 93.3392 210.59 94.4798 208.072 95.6598C207.364 95.8958 206.026 96.2105 204.058 96.6038C202.17 96.9185 200.556 97.1152 199.218 97.1938C197.881 97.1938 197.015 97.1938 196.621 97.1938C194.575 97.1938 192.686 96.9972 190.955 96.6038C190.562 96.5252 190.247 96.4465 190.011 96.3678C189.775 96.2105 189.578 96.1318 189.42 96.1318C189.263 96.1318 189.145 96.2498 189.066 96.4858C188.988 96.7218 188.869 97.0758 188.712 97.5478C187.532 101.167 184.62 104.628 179.976 107.932C178.009 109.191 176.356 109.938 175.018 110.174C173.759 110.41 172.854 110.528 172.303 110.528C170.965 110.528 169.746 110.174 168.644 109.466C167.148 108.522 166.283 106.634 166.047 103.802ZM189.066 72.0598C206.223 62.3051 221.451 51.4491 234.751 39.4917C245.454 29.501 251.357 22.4997 252.459 18.4876V18.2516C252.459 18.0156 252.38 17.8583 252.222 17.7796C252.065 17.701 251.632 17.6616 250.924 17.6616C247.068 17.6616 240.732 20.7296 231.918 26.8657C223.182 32.923 214.171 40.5537 204.885 49.7577C199.927 54.7137 195.323 59.8271 191.073 65.0977C190.522 65.8057 189.853 66.6711 189.066 67.6938C188.279 68.7164 187.492 69.7391 186.705 70.7618C185.918 71.7844 185.249 72.6891 184.698 73.4758C184.148 74.1838 183.872 74.5771 183.872 74.6558C184.029 74.6558 184.541 74.4198 185.407 73.9478C186.43 73.4758 187.65 72.8464 189.066 72.0598ZM184.462 91.5298C184.305 91.3725 184.148 91.2938 183.99 91.2938C183.911 91.2938 183.872 91.3725 183.872 91.5298C183.872 91.6085 183.911 91.6871 183.99 91.7658C184.148 91.7658 184.266 91.8051 184.344 91.8838C184.423 91.8838 184.502 91.8838 184.58 91.8838H184.698L184.58 91.7658C184.58 91.6871 184.541 91.6085 184.462 91.5298Z" fill="#7A05D7"/>
<path d="M213.332 127.874C212.545 127.795 211.601 127.638 210.499 127.402C209.397 127.166 208.453 126.93 207.666 126.694C204.282 125.435 202.078 123.665 201.055 121.384C200.662 120.519 200.465 119.614 200.465 118.67C200.465 116.625 201.409 114.343 203.298 111.826C203.928 110.961 204.4 110.41 204.715 110.174C205.03 109.938 205.344 109.82 205.659 109.82C205.817 109.82 205.974 109.859 206.131 109.938C206.289 110.017 206.446 110.135 206.604 110.292C206.761 110.371 206.84 110.449 206.84 110.528C207.076 110.764 207.194 111 207.194 111.236C207.194 111.393 207.154 111.551 207.076 111.708C206.918 112.18 206.564 112.927 206.013 113.95C205.069 115.445 204.518 116.507 204.361 117.136C204.203 117.765 204.125 118.277 204.125 118.67C204.125 119.063 204.164 119.457 204.243 119.85C205.659 122.446 209.319 123.98 215.221 124.452H215.929C220.337 124.452 225.216 123.154 230.568 120.558C235.368 118.198 239.185 115.366 242.018 112.062C244.93 108.679 246.386 105.611 246.386 102.858V102.386C246.229 100.498 245.324 98.9245 243.671 97.6658C241.94 96.3285 239.421 95.3452 236.116 94.7158C234.778 94.5585 232.732 94.4798 229.977 94.4798C227.223 94.4798 224.941 94.5978 223.13 94.8338C221.32 95.0698 219.904 95.2665 218.881 95.4238C217.858 95.5025 217.149 95.5418 216.756 95.5418C216.441 95.5418 216.205 95.5418 216.048 95.5418C215.733 95.5418 215.497 95.5025 215.339 95.4238C215.103 95.3452 214.906 95.2272 214.749 95.0698C214.355 94.5978 214.159 94.1258 214.159 93.6538C214.159 93.1031 214.474 92.5131 215.103 91.8838C215.418 91.6478 216.677 90.7825 218.881 89.2878C221.084 87.7145 223.76 85.8658 226.908 83.7418C230.056 81.6965 232.889 79.8478 235.408 78.1958C237.926 76.4651 239.539 75.3244 240.248 74.7738C242.372 73.2791 244.104 71.9811 245.442 70.8798C246.78 69.6998 247.449 68.9524 247.449 68.6378C247.449 68.5591 247.055 68.5198 246.268 68.5198C245.481 68.5198 244.143 68.5984 242.254 68.7558C240.366 68.8344 237.65 69.0311 234.109 69.3458C230.961 69.5818 228.364 69.6998 226.318 69.6998C224.272 69.6998 222.737 69.5818 221.714 69.3458C220.219 68.7164 219.471 67.9298 219.471 66.9858C219.471 66.6711 219.51 66.3958 219.589 66.1598C219.982 65.3731 220.573 64.9798 221.36 64.9798C221.675 64.9798 221.911 65.0584 222.068 65.2158C222.225 65.2944 222.422 65.4911 222.658 65.8058L223.249 66.3958H226.554C227.813 66.3958 229.072 66.3564 230.331 66.2778C231.591 66.1991 233.283 66.0418 235.408 65.8058C238.713 65.4911 241.153 65.2944 242.727 65.2158C244.301 65.0584 245.481 64.9798 246.268 64.9798H247.33C248.275 64.9798 248.983 65.0977 249.455 65.3337C250.872 65.9631 251.58 66.8678 251.58 68.0478C251.58 68.5984 251.462 69.1491 251.226 69.6998C250.597 70.8798 249.062 72.4924 246.622 74.5378C245.678 75.2458 244.694 75.9931 243.671 76.7798C242.727 77.4878 241.349 78.4711 239.539 79.7298C237.729 80.9098 235.093 82.6405 231.63 84.9218C228.954 86.7311 226.711 88.2258 224.901 89.4058C223.17 90.5858 222.304 91.2151 222.304 91.2938C222.383 91.2938 222.54 91.2938 222.776 91.2938C223.091 91.2151 223.445 91.1758 223.839 91.1758C225.177 91.0185 226.475 90.9005 227.734 90.8218C228.994 90.7431 230.017 90.7038 230.804 90.7038C231.512 90.7038 232.181 90.7431 232.81 90.8218C238.241 91.2151 242.451 92.4738 245.442 94.5978C248.432 96.6432 249.928 99.4358 249.928 102.976C249.691 107.775 247.055 112.495 242.018 117.136C237.06 121.699 231 124.963 223.839 126.93C221.163 127.638 218.527 127.992 215.929 127.992C215.064 127.992 214.198 127.953 213.332 127.874Z" fill="#7A05D7"/>
<path d="M54.122 170C47.8261 169.213 44.0485 164.729 42.7893 156.548C42.6319 155.368 42.5532 153.795 42.5532 151.828C42.5532 149.783 42.6319 147.973 42.7893 146.4C44.0485 134.757 48.8885 119.614 57.3094 100.97C58.3325 98.6098 59.7491 95.5812 61.5591 91.8838C63.4479 88.1865 65.1006 84.9611 66.5172 82.2078C67.1468 81.1065 67.6583 80.1625 68.0518 79.3758L68.524 78.3138C68.4453 78.3138 68.3273 78.3924 68.1699 78.5498C67.8551 78.7858 67.5009 79.0611 67.1074 79.3758C65.9269 80.3985 62.0707 83.5451 55.5386 88.8158C48.4557 94.5585 39.3659 102.15 28.2693 111.59C23.2326 115.917 19.2976 119.181 16.4644 121.384C13.7099 123.587 11.5457 125.16 9.97172 126.104C8.71253 126.891 7.76814 127.402 7.13855 127.638C6.43025 127.874 5.64326 127.992 4.77757 127.992C4.30537 127.992 3.95122 127.992 3.71513 127.992C3.47903 127.992 3.28228 127.953 3.12488 127.874C2.96748 127.795 2.81008 127.677 2.65269 127.52C2.41659 127.441 2.18049 127.284 1.94439 127.048C1.70829 126.812 1.5509 126.576 1.4722 126.34C1.3148 126.104 1.19675 125.907 1.11805 125.75C1.03935 125.514 1 125.239 1 124.924C1 124.531 1 123.941 1 123.154C1 122.21 1.03935 121.463 1.11805 120.912C1.11805 120.361 1.2361 119.732 1.4722 119.024C3.12488 112.18 8.39774 100.616 17.2908 84.3318C25.5542 69.3064 34.6833 54.1631 44.6781 38.9017C54.7516 23.5617 62.3068 13.217 67.3435 7.86762C68.524 6.68761 69.3504 5.97961 69.8226 5.74361C70.3735 5.50761 70.8063 5.38961 71.1211 5.38961C71.4359 5.38961 71.7507 5.50761 72.0655 5.74361C72.6951 6.13695 73.0099 6.64828 73.0099 7.27762C73.0099 7.51362 72.9705 7.74962 72.8918 7.98562C72.8131 8.45762 72.6164 9.08695 72.3016 9.87362C71.9868 10.5816 71.672 11.2503 71.3572 11.8796C71.0424 12.509 70.8063 12.863 70.6489 12.9416C70.3341 13.1776 70.0193 13.2956 69.7045 13.2956C69.3897 13.2956 69.0356 13.099 68.6421 12.7056L68.0518 12.2336L66.7533 14.0036C64.3136 16.993 61.0082 21.5163 56.8372 27.5737C52.6661 33.5523 48.6524 39.5704 44.7962 45.6277C31.8108 65.8451 21.3044 83.9778 13.2771 100.026C7.61074 111.354 4.73822 118.945 4.65952 122.8V124.334H5.13171C5.84001 124.177 7.05985 123.547 8.79123 122.446C10.4439 121.345 12.3721 119.929 14.5756 118.198C15.9922 117.097 17.5662 115.838 19.2976 114.422C21.029 112.927 23.7835 110.567 27.561 107.342C33.1487 102.543 37.9493 98.4918 41.963 95.1878C46.0554 91.8051 50.856 87.8325 56.365 83.2698C59.5917 80.7525 62.0313 78.8251 63.684 77.4878C65.3367 76.1504 66.5959 75.0884 67.4616 74.3018C68.406 73.4364 69.3504 72.4924 70.2948 71.4698C72.1048 69.7391 73.3247 68.6771 73.9543 68.2838C74.6626 67.8118 75.2528 67.5758 75.725 67.5758C75.8824 67.5758 76.0398 67.6151 76.1972 67.6938C77.0629 68.0084 77.4958 68.5591 77.4958 69.3458C77.4958 69.7391 77.3383 70.2504 77.0236 70.8798C76.8662 71.1944 76.5907 71.7058 76.1972 72.4138C75.8037 73.0431 75.3709 73.7904 74.8987 74.6558C68.8388 85.4331 63.4479 96.1318 58.726 106.752C52.43 121.463 48.4557 133.971 46.803 144.276C46.5669 146.007 46.4095 147.619 46.3308 149.114C46.3308 150.53 46.3308 151.513 46.3308 152.064C46.3308 153.637 46.4095 154.975 46.5669 156.076C47.5113 162.92 50.5412 166.342 55.6567 166.342C57.3094 166.342 59.1588 165.988 61.205 165.28C72.3803 161.189 85.405 149.901 100.279 131.414C108.464 121.109 116.413 109.663 124.125 97.0758C131.916 84.4891 137.897 73.3971 142.069 63.7997C144.98 56.8771 147.538 49.443 149.742 41.4977C151.945 33.4737 153.441 26.079 154.228 19.3136C154.385 18.055 154.503 16.8356 154.582 15.6556C154.66 14.4756 154.7 13.4923 154.7 12.7056L154.582 10.5816C154.503 9.24429 154.424 8.30028 154.346 7.74962C154.11 6.96295 153.834 6.33361 153.519 5.86161C153.283 5.38961 152.89 4.87828 152.339 4.32761C151.945 4.01294 151.67 3.77694 151.512 3.61961C151.355 3.38361 151.237 3.22627 151.158 3.14761C151.158 2.99027 151.158 2.7936 151.158 2.5576C151.158 2.24294 151.198 2.00694 151.276 1.8496C151.355 1.69227 151.473 1.57427 151.631 1.4956C151.945 1.18093 152.26 1.0236 152.575 1.0236C152.89 0.944933 153.362 1.06293 153.992 1.3776C155.88 2.24294 157.179 4.01294 157.887 6.68761C158.045 7.08095 158.123 7.47428 158.123 7.86762C158.202 8.26095 158.241 8.81162 158.241 9.51962C158.241 10.2276 158.241 11.2896 158.241 12.7056C158.241 15.3016 158.163 17.4256 158.005 19.0776C157.926 20.651 157.612 22.8143 157.061 25.5677C154.621 39.2557 150.686 52.6684 145.256 65.8058C141.006 75.5604 134.907 86.8491 126.958 99.6718C119.01 112.495 110.864 124.137 102.522 134.6C90.6385 149.389 79.4632 159.773 68.9962 165.752C65.3761 167.797 62.0707 169.135 59.0801 169.764C58.3718 169.921 57.6242 170 56.8372 170C56.1289 170 55.578 170 55.1845 170H54.122Z" stroke="#7A05D7" stroke-width="2" mask="url(#path-1-outside-1_2505_36)"/>
<path d="M147.919 106.398C145.715 105.611 144.496 104.628 144.26 103.448C144.023 102.189 143.945 101.127 144.023 100.262C144.102 99.3178 144.378 98.2952 144.85 97.1938C146.266 94.1258 148.313 91.3725 150.988 88.9338C153.664 86.4951 156.182 84.6858 158.543 83.5058C159.488 83.0338 160.472 82.7191 161.495 82.5618C162.124 82.4045 162.754 82.3258 163.383 82.3258C164.485 82.3258 165.39 82.5618 166.099 83.0338C167.436 83.6631 168.066 84.3318 167.987 85.0398V85.9838C167.83 87.2425 166.886 88.5011 165.154 89.7598C161.77 92.0412 158.268 93.1818 154.648 93.1818C153.546 93.1818 152.444 93.1031 151.342 92.9458C149.847 94.2832 148.824 95.6598 148.273 97.0758C147.722 98.4918 147.447 99.4358 147.447 99.9078C147.289 101.245 147.722 102.307 148.745 103.094C149.532 103.487 150.555 103.684 151.815 103.684H152.995C154.727 103.605 156.182 103.409 157.363 103.094C161.062 102.307 165.43 100.813 170.466 98.6098C172.04 97.9018 173.182 97.3118 173.89 96.8398C175.228 96.1318 176.211 95.7778 176.841 95.7778H177.195C177.667 95.9352 177.864 96.2498 177.785 96.7218C177.785 96.8792 177.746 97.0365 177.667 97.1938C177.353 97.9018 176.644 98.6492 175.543 99.4358C174.441 100.065 172.906 100.813 170.939 101.678C164.957 104.353 159.96 105.965 155.946 106.516C154.451 106.752 153.074 106.87 151.815 106.87C150.319 106.87 149.021 106.713 147.919 106.398ZM156.301 90.2318C157.717 90.0745 159.212 89.6418 160.786 88.9338L162.439 87.9898C163.698 87.2031 164.328 86.6131 164.328 86.2198C164.407 86.1411 164.407 86.0625 164.328 85.9838C164.092 85.6691 163.659 85.5118 163.029 85.5118C162.715 85.5118 162.321 85.5511 161.849 85.6298C160.668 85.8658 159.212 86.5738 157.481 87.7538C156.93 88.0685 156.379 88.4618 155.828 88.9338C154.884 89.6418 154.372 90.1138 154.294 90.3498C154.294 90.4285 154.412 90.4678 154.648 90.4678C154.963 90.4678 155.514 90.3891 156.301 90.2318Z" stroke="#7A05D7" stroke-width="2" mask="url(#path-1-outside-1_2505_36)"/>
<path d="M166.047 103.802V103.448C166.047 100.223 167.07 96.4858 169.116 92.2378C171.241 87.7538 173.72 83.3485 176.553 79.0218C179.465 74.6951 182.023 71.0764 184.226 68.1658C195.874 52.8257 209.725 39.0984 225.779 26.9837C235.774 19.4316 243.565 15.1836 249.153 14.2396C249.704 14.0823 250.176 14.0036 250.57 14.0036C250.963 14.0036 251.396 14.043 251.868 14.1216C252.577 14.2003 253.127 14.3183 253.521 14.4756C253.914 14.633 254.308 14.869 254.701 15.1836C255.567 15.9703 256 16.9536 256 18.1336C256 19.235 255.685 20.4543 255.056 21.7917C253.718 24.545 250.806 28.321 246.32 33.1197C241.834 37.8397 236.601 42.717 230.619 47.7517C222.75 54.2811 214.289 60.4957 205.239 66.3958C196.189 72.2171 188.633 76.3864 182.574 78.9038C181.944 79.1398 181.432 79.3364 181.039 79.4938L180.331 79.8478C180.173 80.0051 179.858 80.4378 179.386 81.1458C178.993 81.8538 178.481 82.7191 177.852 83.7418C177.222 84.7645 176.592 85.8265 175.963 86.9278C172.5 92.8278 170.454 97.6265 169.824 101.324C169.667 102.032 169.588 102.701 169.588 103.33C169.588 104.353 169.824 105.257 170.296 106.044C170.769 106.752 171.556 107.106 172.657 107.106C173.208 107.106 173.877 106.988 174.664 106.752C176.16 106.201 177.812 105.179 179.622 103.684C181.511 102.189 183.006 100.694 184.108 99.1998C184.344 98.8065 184.58 98.3738 184.816 97.9018C185.053 97.4298 185.21 97.0365 185.289 96.7218C185.367 96.4072 185.407 96.1712 185.407 96.0138V95.8958L185.171 95.7778C184.935 95.6992 184.659 95.6205 184.344 95.5418C181.983 94.8338 180.685 94.0472 180.449 93.1818C180.291 92.3165 180.213 91.7265 180.213 91.4118C180.213 90.3891 180.645 89.4451 181.511 88.5798C182.141 87.9505 182.888 87.6358 183.754 87.6358C184.305 87.6358 184.895 87.7931 185.525 88.1078C186.705 88.6585 187.689 89.7598 188.476 91.4118L189.066 92.5918C192.057 93.6932 195.205 94.2438 198.51 94.2438C201.816 94.2438 205.003 93.5358 208.072 92.1198C209.253 91.6478 210.158 91.4118 210.787 91.4118C211.496 91.4118 211.85 91.6871 211.85 92.2378C211.85 93.3392 210.59 94.4798 208.072 95.6598C207.364 95.8958 206.026 96.2105 204.058 96.6038C202.17 96.9185 200.556 97.1152 199.218 97.1938C197.881 97.1938 197.015 97.1938 196.621 97.1938C194.575 97.1938 192.686 96.9972 190.955 96.6038C190.562 96.5252 190.247 96.4465 190.011 96.3678C189.775 96.2105 189.578 96.1318 189.42 96.1318C189.263 96.1318 189.145 96.2498 189.066 96.4858C188.988 96.7218 188.869 97.0758 188.712 97.5478C187.532 101.167 184.62 104.628 179.976 107.932C178.009 109.191 176.356 109.938 175.018 110.174C173.759 110.41 172.854 110.528 172.303 110.528C170.965 110.528 169.746 110.174 168.644 109.466C167.148 108.522 166.283 106.634 166.047 103.802ZM189.066 72.0598C206.223 62.3051 221.451 51.4491 234.751 39.4917C245.454 29.501 251.357 22.4997 252.459 18.4876V18.2516C252.459 18.0156 252.38 17.8583 252.222 17.7796C252.065 17.701 251.632 17.6616 250.924 17.6616C247.068 17.6616 240.732 20.7296 231.918 26.8657C223.182 32.923 214.171 40.5537 204.885 49.7577C199.927 54.7137 195.323 59.8271 191.073 65.0977C190.522 65.8057 189.853 66.6711 189.066 67.6938C188.279 68.7164 187.492 69.7391 186.705 70.7618C185.918 71.7844 185.249 72.6891 184.698 73.4758C184.148 74.1838 183.872 74.5771 183.872 74.6558C184.029 74.6558 184.541 74.4198 185.407 73.9478C186.43 73.4758 187.65 72.8464 189.066 72.0598ZM184.462 91.5298C184.305 91.3725 184.148 91.2938 183.99 91.2938C183.911 91.2938 183.872 91.3725 183.872 91.5298C183.872 91.6085 183.911 91.6871 183.99 91.7658C184.148 91.7658 184.266 91.8051 184.344 91.8838C184.423 91.8838 184.502 91.8838 184.58 91.8838H184.698L184.58 91.7658C184.58 91.6871 184.541 91.6085 184.462 91.5298Z" stroke="#7A05D7" stroke-width="2" mask="url(#path-1-outside-1_2505_36)"/>
<path d="M213.332 127.874C212.545 127.795 211.601 127.638 210.499 127.402C209.397 127.166 208.453 126.93 207.666 126.694C204.282 125.435 202.078 123.665 201.055 121.384C200.662 120.519 200.465 119.614 200.465 118.67C200.465 116.625 201.409 114.343 203.298 111.826C203.928 110.961 204.4 110.41 204.715 110.174C205.03 109.938 205.344 109.82 205.659 109.82C205.817 109.82 205.974 109.859 206.131 109.938C206.289 110.017 206.446 110.135 206.604 110.292C206.761 110.371 206.84 110.449 206.84 110.528C207.076 110.764 207.194 111 207.194 111.236C207.194 111.393 207.154 111.551 207.076 111.708C206.918 112.18 206.564 112.927 206.013 113.95C205.069 115.445 204.518 116.507 204.361 117.136C204.203 117.765 204.125 118.277 204.125 118.67C204.125 119.063 204.164 119.457 204.243 119.85C205.659 122.446 209.319 123.98 215.221 124.452H215.929C220.337 124.452 225.216 123.154 230.568 120.558C235.368 118.198 239.185 115.366 242.018 112.062C244.93 108.679 246.386 105.611 246.386 102.858V102.386C246.229 100.498 245.324 98.9245 243.671 97.6658C241.94 96.3285 239.421 95.3452 236.116 94.7158C234.778 94.5585 232.732 94.4798 229.977 94.4798C227.223 94.4798 224.941 94.5978 223.13 94.8338C221.32 95.0698 219.904 95.2665 218.881 95.4238C217.858 95.5025 217.149 95.5418 216.756 95.5418C216.441 95.5418 216.205 95.5418 216.048 95.5418C215.733 95.5418 215.497 95.5025 215.339 95.4238C215.103 95.3452 214.906 95.2272 214.749 95.0698C214.355 94.5978 214.159 94.1258 214.159 93.6538C214.159 93.1031 214.474 92.5131 215.103 91.8838C215.418 91.6478 216.677 90.7825 218.881 89.2878C221.084 87.7145 223.76 85.8658 226.908 83.7418C230.056 81.6965 232.889 79.8478 235.408 78.1958C237.926 76.4651 239.539 75.3244 240.248 74.7738C242.372 73.2791 244.104 71.9811 245.442 70.8798C246.78 69.6998 247.449 68.9524 247.449 68.6378C247.449 68.5591 247.055 68.5198 246.268 68.5198C245.481 68.5198 244.143 68.5984 242.254 68.7558C240.366 68.8344 237.65 69.0311 234.109 69.3458C230.961 69.5818 228.364 69.6998 226.318 69.6998C224.272 69.6998 222.737 69.5818 221.714 69.3458C220.219 68.7164 219.471 67.9298 219.471 66.9858C219.471 66.6711 219.51 66.3958 219.589 66.1598C219.982 65.3731 220.573 64.9798 221.36 64.9798C221.675 64.9798 221.911 65.0584 222.068 65.2158C222.225 65.2944 222.422 65.4911 222.658 65.8058L223.249 66.3958H226.554C227.813 66.3958 229.072 66.3564 230.331 66.2778C231.591 66.1991 233.283 66.0418 235.408 65.8058C238.713 65.4911 241.153 65.2944 242.727 65.2158C244.301 65.0584 245.481 64.9798 246.268 64.9798H247.33C248.275 64.9798 248.983 65.0977 249.455 65.3337C250.872 65.9631 251.58 66.8678 251.58 68.0478C251.58 68.5984 251.462 69.1491 251.226 69.6998C250.597 70.8798 249.062 72.4924 246.622 74.5378C245.678 75.2458 244.694 75.9931 243.671 76.7798C242.727 77.4878 241.349 78.4711 239.539 79.7298C237.729 80.9098 235.093 82.6405 231.63 84.9218C228.954 86.7311 226.711 88.2258 224.901 89.4058C223.17 90.5858 222.304 91.2151 222.304 91.2938C222.383 91.2938 222.54 91.2938 222.776 91.2938C223.091 91.2151 223.445 91.1758 223.839 91.1758C225.177 91.0185 226.475 90.9005 227.734 90.8218C228.994 90.7431 230.017 90.7038 230.804 90.7038C231.512 90.7038 232.181 90.7431 232.81 90.8218C238.241 91.2151 242.451 92.4738 245.442 94.5978C248.432 96.6432 249.928 99.4358 249.928 102.976C249.691 107.775 247.055 112.495 242.018 117.136C237.06 121.699 231 124.963 223.839 126.93C221.163 127.638 218.527 127.992 215.929 127.992C215.064 127.992 214.198 127.953 213.332 127.874Z" stroke="#7A05D7" stroke-width="2" mask="url(#path-1-outside-1_2505_36)"/>
</svg>
