<svg width="53" height="28" viewBox="0 0 53 28" fill="none" xmlns="http://www.w3.org/2000/svg">
<g style="mix-blend-mode:luminosity">
<path fillRule="evenodd" clipRule="evenodd" d="M0.795105 2.48317V1.19177H5.5134V2.48317H4.17974L5.85396 8.46002L7.88213 1.20606H10.0049L12.0552 8.5479L13.693 2.48317H12.289V1.20606H24.5988V4.52654H23.5346C23.2606 3.53587 23.159 2.48317 21.7609 2.48317H19.4196V5.52694H22.3286C22.5868 5.92771 22.5661 6.61734 22.3286 6.96733H19.4196V10.0819H22.0708C23.1855 10.0819 23.4199 9.01708 23.6766 7.88958H24.7408V11.3873H16.0139V10.0819H17.2555V2.48317H15.279L12.7284 11.3873H10.6927L8.64231 4.05796L6.54877 11.3873H4.49841L1.95119 2.48317H0.795105Z" fill="#F2F2F2"/>
<path fillRule="evenodd" clipRule="evenodd" d="M25.7878 2.48328V1.20618H30.5815V2.48328H29.1952V10.0821H31.3459C32.4607 10.0821 32.6951 9.0172 32.9517 7.88969H34.016V11.3874H25.7896V10.0821H27.0311V2.48328H25.7878Z" fill="#F2F2F2"/>
<path fillRule="evenodd" clipRule="evenodd" d="M34.9238 2.48328V1.20618H39.7175V2.48328H38.3313V10.0821H40.482C41.5967 10.0821 41.8311 9.0172 42.0878 7.88969H43.152V11.3874H34.9257V10.0821H36.1672V2.48328H34.9238Z" fill="#F2F2F2"/>
<path fillRule="evenodd" clipRule="evenodd" d="M2.39316 16.5675V17.8446H3.62526V25.4647H2.38373V26.7488H7.2869V25.4647H5.78934V22.5273H8.78841C9.0262 22.1773 9.04657 21.4874 8.78841 21.0869H5.78934V17.8446H8.3095C9.70763 17.8446 9.80919 18.8973 10.0835 19.888H11.1477V16.5675H2.39316ZM14.269 16.5675L10.7165 25.4647H9.69911V26.7488H13.5873V25.4647H12.3591L13.0339 23.6764H16.7536L17.4183 25.4647H16.2479V26.7488H25.3792V25.4647H24.0097V22.4136H24.8827C26.4754 22.4136 26.9343 23.1489 27.0446 24.6464C27.1748 26.1239 27.6902 26.881 29.4094 26.881C29.9066 26.881 30.4721 26.819 30.4721 26.819C30.6068 26.4973 30.7008 26.0737 30.4655 25.6082C29.3227 25.731 29.2905 24.9149 29.2361 24.0316C29.1814 22.6116 28.3588 21.9578 27.1617 21.8474C28.7322 21.8158 29.8941 20.7154 29.8941 19.3233C29.8941 17.5086 28.33 16.5675 26.5143 16.5675H20.5761V17.8799H21.8316V25.4647H19.8545L16.2047 16.5675H14.269ZM24.0097 17.8799H25.5212C26.9656 17.8799 27.6595 18.3658 27.6595 19.5115C27.6595 20.6658 26.6512 21.1082 25.7399 21.1082H24.0097V17.8799ZM14.8857 18.6468L16.2975 22.4422H13.4739L14.8857 18.6468Z" fill="#F2F2F2"/>
<path fillRule="evenodd" clipRule="evenodd" d="M44.11 10.7199V7.86135H45.1995C45.5546 9.47324 46.2655 10.3292 48.1614 10.3292C49.4385 10.3292 50.2556 9.91475 50.2556 8.86935C50.2556 6.26314 44.1036 8.29526 44.1036 4.03155C44.1036 2.11498 45.7285 0.901733 48.1897 0.901733C50.3039 0.901733 51.8933 1.80908 51.8933 1.80908V4.34201H50.8093C50.5384 2.80432 49.7125 2.23388 48.2815 2.23388C47.0345 2.23388 46.2823 2.78364 46.2823 3.61801C46.2823 6.09347 52.4546 4.10696 52.4546 8.537C52.4546 9.9558 51.5017 11.6601 48.311 11.6601C45.5878 11.6601 44.11 10.7199 44.11 10.7199V10.7199Z" fill="#F2F2F2"/>
<path fillRule="evenodd" clipRule="evenodd" d="M36.4323 27.0626C33.0133 27.0626 31.0654 24.7434 31.0654 21.7097C31.0654 18.776 32.8862 16.2528 36.4715 16.2528C38.5821 16.2528 40.2998 17.1757 40.2998 17.1757V19.774H39.2143C38.8026 18.62 38.2002 17.6135 36.5314 17.6135C34.2731 17.6135 33.4995 19.5222 33.4995 21.693C33.4995 23.982 34.4428 25.7238 36.6777 25.7238C37.5914 25.7238 38.3629 25.365 38.3629 25.365V22.8533H36.6275C36.3852 22.2941 36.4545 21.7614 36.6275 21.4202H40.527V25.9339C40.527 25.9339 38.6727 27.0626 36.4323 27.0626Z" fill="#F2F2F2"/>
<path fillRule="evenodd" clipRule="evenodd" d="M47.3923 16.257C44.3403 16.257 41.9798 18.3243 41.9798 21.7026C41.9798 24.9252 44.3126 27.0655 47.3786 27.0655C50.6413 27.0655 52.7954 24.7293 52.7954 21.6737C52.7954 18.3949 50.4142 16.257 47.3923 16.257ZM47.3564 17.625C49.2553 17.625 50.3801 19.0356 50.3801 21.6485C50.3801 24.2291 49.3353 25.7057 47.3929 25.7057C45.3951 25.7057 44.3881 24.1519 44.3881 21.7062C44.3881 19.3165 45.2845 17.625 47.3564 17.625Z" fill="#F2F2F2"/>
</g>
</svg>
