<svg width="76" height="39" fill="none" xmlns="http://www.w3.org/2000/svg"><path fill-rule="evenodd" clip-rule="evenodd" d="M.636 3.203V1.334h6.827v1.869h-1.93l2.422 8.647L10.89 1.355h3.071l2.966 10.622 2.37-8.774h-2.031V1.355h17.81V6.16h-1.54c-.397-1.433-.543-2.956-2.566-2.956h-3.388v4.404h4.21c.373.58.343 1.577 0 2.084h-4.21v4.506h3.836c1.613 0 1.952-1.54 2.323-3.172h1.54v5.06H22.655v-1.888h1.796V3.203h-2.86l-3.69 12.883h-2.945L11.99 5.48 8.96 16.085H5.995L2.31 3.204H.636ZM36.796 3.204V1.356h6.935v1.848h-2.005v10.994h3.111c1.613 0 1.952-1.541 2.324-3.172h1.54v5.06H36.797v-1.888h1.797V3.204h-1.8ZM50.014 3.204V1.356h6.935v1.848h-2.005v10.994h3.111c1.613 0 1.952-1.541 2.324-3.172h1.54v5.06H50.015v-1.888h1.797V3.204h-1.8ZM2.948 23.58v1.848h1.783v11.025H2.935v1.858h7.093v-1.858H7.862v-4.25H12.2c.344-.506.373-1.504 0-2.084H7.86v-4.69h3.647c2.023 0 2.17 1.522 2.567 2.956h1.54V23.58H2.947Zm17.182 0-5.14 12.873h-1.472v1.858h5.626v-1.858h-1.777l.976-2.587h5.382l.962 2.587h-1.694v1.858h13.212v-1.858h-1.982V32.04h1.263c2.305 0 2.969 1.063 3.128 3.23.189 2.138.934 3.233 3.422 3.233.719 0 1.537-.09 1.537-.09.195-.465.331-1.078-.01-1.751-1.653.178-1.7-1.003-1.778-2.281-.08-2.055-1.27-3-3.001-3.16 2.272-.046 3.953-1.638 3.953-3.652 0-2.626-2.263-3.987-4.89-3.987h-8.592v1.898h1.817v10.974h-2.86L22.93 23.581h-2.8Zm14.093 1.9h2.187c2.09 0 3.094.702 3.094 2.36 0 1.67-1.46 2.31-2.778 2.31h-2.503v-4.67Zm-13.2 1.109 2.042 5.491H18.98l2.043-5.491ZM63.305 15.12v-4.136h1.576c.514 2.332 1.543 3.57 4.286 3.57 1.848 0 3.03-.599 3.03-2.111 0-3.771-8.901-.83-8.901-7 0-2.773 2.35-4.528 5.912-4.528 3.059 0 5.358 1.313 5.358 1.313v3.664h-1.568c-.392-2.224-1.587-3.05-3.657-3.05-1.805 0-2.893.796-2.893 2.003 0 3.581 8.93.707 8.93 7.117 0 2.053-1.379 4.518-5.995 4.518-3.94 0-6.078-1.36-6.078-1.36ZM52.197 38.765c-4.947 0-7.765-3.356-7.765-7.745 0-4.244 2.634-7.895 7.821-7.895 3.054 0 5.539 1.335 5.539 1.335v3.76h-1.57c-.596-1.67-1.468-3.126-3.882-3.126-3.268 0-4.387 2.761-4.387 5.902 0 3.312 1.365 5.832 4.598 5.832 1.322 0 2.439-.52 2.439-.52v-3.633h-2.511c-.35-.81-.25-1.58 0-2.074h5.642v6.53s-2.683 1.634-5.925 1.634ZM68.053 23.131c-4.415 0-7.83 2.991-7.83 7.88 0 4.662 3.375 7.758 7.81 7.758 4.721 0 7.838-3.38 7.838-7.8 0-4.745-3.445-7.838-7.817-7.838Zm-.051 1.98c2.747 0 4.374 2.04 4.374 5.82 0 3.735-1.511 5.87-4.322 5.87-2.89 0-4.347-2.247-4.347-5.786 0-3.457 1.297-5.904 4.295-5.904Z" fill="#fff"/></svg>